M48
;Layer_Color=9474304
;FILE_FORMAT=4:4
METRIC,TZ
;TYPE=PLATED
T01F00S00C0.3000
T02F00S00C0.9000
%
T01
X20000Y0
X30000
X40000
X25000Y10000
X15000
X20000Y20000
X30000
X25000Y30000
X15000
X20000Y40000
X30000
X25000Y50000
X15000
X20000Y60000
X30000
X40000
X35000Y70000
X25000
X15000
X20000Y80000
X30000
X25000Y90000
X15000
X20000Y100000
X30000
X85000Y85000
X92500Y65000
X97500Y40000
X110000
X135000Y50000
X145000
X140000Y60000
X130000
X127500Y75000
Y85000
Y95000
X135000Y90000
X135000Y80000
X142500Y85000
Y75000
Y95000
X107880Y112500
X110000Y0
X120000
X130000
X140000
X150000
X160000
X170000
X180000
X190000
X200000
X210000
X220000
X230000
X240000
X250000
X245000Y10000
X250000Y20000
X245000Y30000
X240000Y60000
X250000
X230000
X190000
X195000Y50000
X170000Y40000
X95000Y6540
X80000Y0
X70000
X80000Y20000
X300000
X310000
X320000
X330000
X325000Y30000
X315000
X305000
X300000Y40000
X310000
X320000
X330000
X325000Y50000
X315000
X305000
X300000Y60000
X310000
X320000
X330000
X325000Y70000
X315000
X305000
X295000
X290000Y80000
X300000
X310000
X320000
X330000
X325000Y90000
X315000
X305000
X310000Y100000
X320000
X330000
X325000Y110000
X315000
X305000
X310000Y120000
X320000
X330000
X325000Y130000
X315000
X305000
Y10000
X315000
X325000
X320000Y0
X330000
X310000
X300000
X340000
X335000Y10000
Y30000
Y50000
Y70000
Y90000
Y110000
Y130000
Y190000
Y210000
Y230000
X330000Y220000
X325000Y210000
X315000
X305000
X295000
X285000
X275000
X265000
X255000
X245000
X235000
X225000
X215000
X205000
X195000
X185000
X175000
X165000
X155000
X145000
X135000
X125000
X115000
X105000
X95000
X85000
X75000
X65000
X55000
X45000
X35000
X25000
X15000
X20000Y220000
X30000
Y200000
X20000
X25000Y190000
X35000
X45000
X55000
X65000
X75000
X85000
X95000
X105000
X115000
X125000
X135000
X145000
X155000
X165000
X175000
X185000
X195000
X205000
X215000
X225000
X235000
X245000
X255000
X265000
X275000
X285000
X295000
X305000
X315000
X325000
X320000Y200000
X330000
Y180000
X320000
Y140000
X330000
X310000
X250000Y180000
X240000
Y200000
X250000
Y220000
X240000
X180000
X170000
Y200000
X180000
Y180000
X170000
X165000Y170000
X155000
X145000
X135000
X125000
X115000
X105000
X95000
X85000
X75000
X65000
X55000
X45000
X35000
X25000
X15000
X20000Y180000
X30000
Y160000
X40000
X50000
X60000
X70000
X80000
X90000
X100000
X110000
X120000
X130000
X140000
X150000
X160000
X155000Y150000
X145000
X135000
X125000
X115000
X105000
X95000
X85000
X75000
X70000Y140000
X80000
X90000
X100000
X110000
X120000
X130000
X140000
X150000
X170000Y137500
X100000Y180000
Y200000
Y220000
X15000Y190000
X20000Y160000
X25000Y150000
X15000
X20000Y140000
X30000
T02
X0Y12500
X0Y32500
X0Y52500
Y72500
Y92500
X350000
Y72500
Y52500
Y32500
Y12500
X350000Y112500
X350000Y132500
Y180000
Y200000
Y220000
X320000Y240000
X300000
X280000Y240000
X260000Y240000
X240000
X220000
X200000
X180000
X160000
X140000
X120000
X100000
X80000Y240000
X60000
X40000Y240000
X20000
X0Y217500
Y197500
X0Y177500
X0Y157500
Y137500
M30
