G04*
G04 #@! TF.GenerationSoftware,Altium Limited,Altium Designer,24.5.2 (23)*
G04*
G04 Layer_Color=255*
%FSLAX44Y44*%
%MOMM*%
G71*
G04*
G04 #@! TF.SameCoordinates,B9E64D96-6C6B-41B8-AF92-246256EA7E35*
G04*
G04*
G04 #@! TF.FilePolarity,Positive*
G04*
G01*
G75*
%ADD14R,1.5500X5.6000*%
%ADD15R,1.0700X1.7800*%
%ADD16R,2.3000X2.5000*%
%ADD17R,2.4000X3.1000*%
%ADD18R,1.5250X0.6500*%
%ADD19R,2.1500X2.2000*%
%ADD20R,1.0200X0.9400*%
%ADD21R,1.0000X0.9000*%
%AMCUSTOMSHAPE29*
4,1,8,2.2500,0.5000,2.5000,0.2500,2.5000,-0.2500,2.2500,-0.5000,-2.2500,-0.5000,-2.5000,-0.2500,-2.5000,0.2500,-2.2500,0.5000,2.2500,0.5000,0.0*%
%ADD29CUSTOMSHAPE29*%

%AMCUSTOMSHAPE31*
4,1,4,0.0000,-0.7620,-1.0000,-0.7620,-1.0000,0.7620,0.0000,0.7620,0.0000,-0.7620,0.0*%
%ADD31CUSTOMSHAPE31*%

%AMCUSTOMSHAPE32*
4,1,4,0.7620,0.0000,0.7620,-1.0000,-0.7620,-1.0000,-0.7620,0.0000,0.7620,0.0000,0.0*%
%ADD32CUSTOMSHAPE32*%

%AMCUSTOMSHAPE33*
4,1,4,0.0000,0.7620,1.0000,0.7620,1.0000,-0.7620,0.0000,-0.7620,0.0000,0.7620,0.0*%
%ADD33CUSTOMSHAPE33*%

D14*
X252250Y117500D02*
D03*
X292750D02*
D03*
D15*
X206100Y137500D02*
D03*
X178900D02*
D03*
X288600Y55000D02*
D03*
X261400D02*
D03*
X288600Y32500D02*
D03*
X261400D02*
D03*
X288600Y10000D02*
D03*
X261400D02*
D03*
X41400Y40000D02*
D03*
X68600D02*
D03*
X41400Y17500D02*
D03*
X68600D02*
D03*
D16*
X212500Y110000D02*
D03*
Y67000D02*
D03*
D17*
X135000Y85000D02*
D03*
D18*
X162120Y104050D02*
D03*
Y91350D02*
D03*
Y78650D02*
D03*
Y65950D02*
D03*
X107880D02*
D03*
Y78650D02*
D03*
Y91350D02*
D03*
Y104050D02*
D03*
D19*
X50000Y137000D02*
D03*
Y93000D02*
D03*
D20*
X215000Y14600D02*
D03*
Y30400D02*
D03*
X200000Y30400D02*
D03*
Y14600D02*
D03*
X125000Y30400D02*
D03*
Y14600D02*
D03*
X170000Y30400D02*
D03*
Y14600D02*
D03*
X155000Y14600D02*
D03*
Y30400D02*
D03*
X140000Y30400D02*
D03*
Y14600D02*
D03*
X95000Y30400D02*
D03*
Y14600D02*
D03*
X110000Y14600D02*
D03*
Y30400D02*
D03*
D21*
X185000Y31000D02*
D03*
Y14000D02*
D03*
X230000D02*
D03*
Y31000D02*
D03*
D29*
X282500Y220000D02*
D03*
X210000D02*
D03*
X137500D02*
D03*
X67500D02*
D03*
X210000Y200000D02*
D03*
X67500D02*
D03*
Y180000D02*
D03*
X210000Y180000D02*
D03*
X282500Y200000D02*
D03*
Y180000D02*
D03*
X137500Y200000D02*
D03*
Y180000D02*
D03*
D31*
X350000Y12500D02*
D03*
Y132500D02*
D03*
X350000Y112500D02*
D03*
X350000Y180000D02*
D03*
Y200000D02*
D03*
Y220000D02*
D03*
Y92500D02*
D03*
Y72500D02*
D03*
Y52500D02*
D03*
Y32500D02*
D03*
D32*
X320000Y240000D02*
D03*
X260000D02*
D03*
X280000Y240000D02*
D03*
X220000Y240000D02*
D03*
X200000D02*
D03*
X240000D02*
D03*
X300000D02*
D03*
X180000D02*
D03*
X40000D02*
D03*
X20000D02*
D03*
X60000Y240000D02*
D03*
X100000Y240000D02*
D03*
X80000Y240000D02*
D03*
X120000Y240000D02*
D03*
X140000D02*
D03*
X160000D02*
D03*
D33*
X0Y137500D02*
D03*
Y52500D02*
D03*
Y92500D02*
D03*
Y217500D02*
D03*
X0Y177500D02*
D03*
X0Y197500D02*
D03*
Y157500D02*
D03*
Y72500D02*
D03*
Y12500D02*
D03*
X0Y32500D02*
D03*
M02*
