G04*
G04 #@! TF.GenerationSoftware,Altium Limited,Altium Designer,24.5.2 (23)*
G04*
G04 Layer_Color=255*
%FSLAX44Y44*%
%MOMM*%
G71*
G04*
G04 #@! TF.SameCoordinates,B9E64D96-6C6B-41B8-AF92-246256EA7E35*
G04*
G04*
G04 #@! TF.FilePolarity,Positive*
G04*
G01*
G75*
%AMCUSTOMSHAPE31*
4,1,4,0.0000,-0.7620,-1.0000,-0.7620,-1.0000,0.7620,0.0000,0.7620,0.0000,-0.7620,0.0*%
%ADD31CUSTOMSHAPE31*%

%AMCUSTOMSHAPE32*
4,1,4,0.7620,0.0000,0.7620,-1.0000,-0.7620,-1.0000,-0.7620,0.0000,0.7620,0.0000,0.0*%
%ADD32CUSTOMSHAPE32*%

%AMCUSTOMSHAPE33*
4,1,4,0.0000,0.7620,1.0000,0.7620,1.0000,-0.7620,0.0000,-0.7620,0.0000,0.7620,0.0*%
%ADD33CUSTOMSHAPE33*%

D31*
X350000Y12500D02*
D03*
Y132500D02*
D03*
X350000Y112500D02*
D03*
X350000Y180000D02*
D03*
Y200000D02*
D03*
Y220000D02*
D03*
Y92500D02*
D03*
Y72500D02*
D03*
Y52500D02*
D03*
Y32500D02*
D03*
D32*
X320000Y240000D02*
D03*
X260000D02*
D03*
X280000Y240000D02*
D03*
X220000Y240000D02*
D03*
X200000D02*
D03*
X240000D02*
D03*
X300000D02*
D03*
X180000D02*
D03*
X40000D02*
D03*
X20000D02*
D03*
X60000Y240000D02*
D03*
X100000Y240000D02*
D03*
X80000Y240000D02*
D03*
X120000Y240000D02*
D03*
X140000D02*
D03*
X160000D02*
D03*
D33*
X0Y137500D02*
D03*
Y52500D02*
D03*
Y92500D02*
D03*
Y217500D02*
D03*
X0Y177500D02*
D03*
X0Y197500D02*
D03*
Y157500D02*
D03*
Y72500D02*
D03*
Y12500D02*
D03*
X0Y32500D02*
D03*
M02*
