G04*
G04 #@! TF.GenerationSoftware,Altium Limited,Altium Designer,24.5.2 (23)*
G04*
G04 Layer_Color=255*
%FSLAX44Y44*%
%MOMM*%
G71*
G04*
G04 #@! TF.SameCoordinates,71DE77E4-8B13-49D2-B116-840717ED03C6*
G04*
G04*
G04 #@! TF.FilePolarity,Positive*
G04*
G01*
G75*
%ADD14R,2.4000X3.1000*%
%ADD15R,1.5250X0.6500*%
%ADD16R,2.1500X2.2000*%
%ADD17R,2.3000X2.5000*%
%ADD18R,1.0700X1.7800*%
%ADD19R,1.0200X0.9400*%
%ADD20R,1.0000X0.9000*%
%ADD21R,1.5500X5.6000*%
%ADD22R,0.9000X1.0000*%
%AMCUSTOMSHAPE31*
4,1,8,2.2500,0.5000,2.5000,0.2500,2.5000,-0.2500,2.2500,-0.5000,-2.2500,-0.5000,-2.5000,-0.2500,-2.5000,0.2500,-2.2500,0.5000,2.2500,0.5000,0.0*%
%ADD31CUSTOMSHAPE31*%

%AMCUSTOMSHAPE33*
4,1,4,0.0000,0.7620,1.0000,0.7620,1.0000,-0.7620,0.0000,-0.7620,0.0000,0.7620,0.0*%
%ADD33CUSTOMSHAPE33*%

%AMCUSTOMSHAPE34*
4,1,4,0.0000,-0.7620,-1.0000,-0.7620,-1.0000,0.7620,0.0000,0.7620,0.0000,-0.7620,0.0*%
%ADD34CUSTOMSHAPE34*%

%AMCUSTOMSHAPE35*
4,1,4,0.7620,0.0000,0.7620,-1.0000,-0.7620,-1.0000,-0.7620,0.0000,0.7620,0.0000,0.0*%
%ADD35CUSTOMSHAPE35*%

%AMCUSTOMSHAPE36*
4,1,4,-0.7620,0.0000,-0.7620,1.0000,0.7620,1.0000,0.7620,0.0000,-0.7620,0.0000,0.0*%
%ADD36CUSTOMSHAPE36*%

D14*
X135000Y85000D02*
D03*
D15*
X162120Y104050D02*
D03*
Y91350D02*
D03*
Y78650D02*
D03*
Y65950D02*
D03*
X107880D02*
D03*
Y78650D02*
D03*
Y91350D02*
D03*
Y104050D02*
D03*
D16*
X50000Y132000D02*
D03*
Y88000D02*
D03*
D17*
X210000Y107000D02*
D03*
Y150000D02*
D03*
D18*
X223600Y70000D02*
D03*
X196400D02*
D03*
X41400Y50000D02*
D03*
X68600D02*
D03*
X41400Y27500D02*
D03*
X68600D02*
D03*
D19*
X215000Y14600D02*
D03*
Y30400D02*
D03*
X200000Y30400D02*
D03*
Y14600D02*
D03*
X125000Y30400D02*
D03*
Y14600D02*
D03*
X170000Y30400D02*
D03*
Y14600D02*
D03*
X155000Y14600D02*
D03*
Y30400D02*
D03*
X140000Y30400D02*
D03*
Y14600D02*
D03*
X95000Y30400D02*
D03*
Y14600D02*
D03*
X110000Y14600D02*
D03*
Y30400D02*
D03*
D20*
X185000Y31000D02*
D03*
Y14000D02*
D03*
X230000D02*
D03*
Y31000D02*
D03*
D21*
X290250Y90000D02*
D03*
X249750D02*
D03*
D22*
X269000Y45000D02*
D03*
X286000D02*
D03*
X269000Y30000D02*
D03*
X286000D02*
D03*
X269000Y15000D02*
D03*
X286000D02*
D03*
D31*
X70000Y200000D02*
D03*
X135000Y160000D02*
D03*
X210000Y200000D02*
D03*
X135000D02*
D03*
X70000Y160000D02*
D03*
Y180000D02*
D03*
X135000Y140000D02*
D03*
Y180000D02*
D03*
X270000Y160000D02*
D03*
Y180000D02*
D03*
Y200000D02*
D03*
X210000Y180000D02*
D03*
D33*
X-360Y62374D02*
D03*
Y102374D02*
D03*
X0Y210000D02*
D03*
X0Y170000D02*
D03*
X0Y190000D02*
D03*
Y150000D02*
D03*
X-360Y82374D02*
D03*
Y22374D02*
D03*
Y42374D02*
D03*
D34*
X320000Y170000D02*
D03*
Y190000D02*
D03*
Y210000D02*
D03*
Y117500D02*
D03*
Y97500D02*
D03*
Y77500D02*
D03*
Y57500D02*
D03*
Y37500D02*
D03*
Y17500D02*
D03*
D35*
X260000Y240000D02*
D03*
X280000Y240000D02*
D03*
X220000Y240000D02*
D03*
X200000D02*
D03*
X240000D02*
D03*
X300000D02*
D03*
X180000D02*
D03*
X40000D02*
D03*
X20000D02*
D03*
X60000Y240000D02*
D03*
X100000Y240000D02*
D03*
X80000Y240000D02*
D03*
X120000Y240000D02*
D03*
X140000D02*
D03*
X160000D02*
D03*
D36*
X20000Y0D02*
D03*
X40000Y0D02*
D03*
M02*
