G04*
G04 #@! TF.GenerationSoftware,Altium Limited,Altium Designer,24.5.2 (23)*
G04*
G04 Layer_Color=8388736*
%FSLAX44Y44*%
%MOMM*%
G71*
G04*
G04 #@! TF.SameCoordinates,B9E64D96-6C6B-41B8-AF92-246256EA7E35*
G04*
G04*
G04 #@! TF.FilePolarity,Negative*
G04*
G01*
G75*
%ADD16R,2.3000X2.5000*%
%ADD22R,1.7532X5.8032*%
%ADD23R,1.2732X1.9832*%
%ADD24R,2.6032X3.3032*%
%ADD25R,1.7282X0.8532*%
%ADD26R,2.3532X2.4032*%
%ADD27R,1.2232X1.1432*%
%ADD28R,1.2032X1.1032*%
G36*
X327753Y241010D02*
X327883Y240984D01*
X328010Y240941D01*
X328129Y240882D01*
X328240Y240808D01*
X328340Y240720D01*
X328428Y240620D01*
X328502Y240509D01*
X328561Y240390D01*
X328604Y240264D01*
X328629Y240133D01*
X328638Y240000D01*
Y230000D01*
X328629Y229867D01*
X328604Y229736D01*
X328561Y229610D01*
X328502Y229491D01*
X328428Y229380D01*
X328340Y229280D01*
X328240Y229192D01*
X328129Y229118D01*
X328010Y229059D01*
X327883Y229016D01*
X327753Y228990D01*
X327620Y228982D01*
X312380Y228982D01*
X312247Y228991D01*
X312117Y229016D01*
X311990Y229059D01*
X311871Y229118D01*
X311760Y229192D01*
X311660Y229280D01*
X311572Y229380D01*
X311498Y229491D01*
X311439Y229610D01*
X311397Y229736D01*
X311371Y229867D01*
X311362Y230000D01*
Y240000D01*
X311371Y240133D01*
X311397Y240264D01*
X311439Y240390D01*
X311498Y240509D01*
X311572Y240620D01*
X311660Y240720D01*
X311760Y240808D01*
X311871Y240882D01*
X311990Y240941D01*
X312117Y240984D01*
X312247Y241010D01*
X312380Y241018D01*
X327620D01*
X327753Y241010D01*
D02*
G37*
G36*
X307753D02*
X307883Y240984D01*
X308010Y240941D01*
X308129Y240882D01*
X308240Y240808D01*
X308340Y240720D01*
X308428Y240620D01*
X308502Y240509D01*
X308561Y240390D01*
X308603Y240264D01*
X308629Y240133D01*
X308638Y240000D01*
Y230000D01*
X308629Y229867D01*
X308603Y229736D01*
X308561Y229610D01*
X308502Y229491D01*
X308428Y229380D01*
X308340Y229280D01*
X308240Y229192D01*
X308129Y229118D01*
X308010Y229059D01*
X307883Y229016D01*
X307753Y228990D01*
X307620Y228982D01*
X292380Y228982D01*
X292247Y228991D01*
X292117Y229016D01*
X291990Y229059D01*
X291871Y229118D01*
X291760Y229192D01*
X291660Y229280D01*
X291572Y229380D01*
X291498Y229491D01*
X291439Y229610D01*
X291397Y229736D01*
X291371Y229867D01*
X291362Y230000D01*
Y240000D01*
X291371Y240133D01*
X291397Y240264D01*
X291439Y240390D01*
X291498Y240509D01*
X291572Y240620D01*
X291660Y240720D01*
X291760Y240808D01*
X291871Y240882D01*
X291990Y240941D01*
X292117Y240984D01*
X292247Y241010D01*
X292380Y241018D01*
X307620D01*
X307753Y241010D01*
D02*
G37*
G36*
X267753D02*
X267883Y240984D01*
X268010Y240941D01*
X268129Y240882D01*
X268240Y240808D01*
X268340Y240720D01*
X268428Y240620D01*
X268502Y240509D01*
X268561Y240390D01*
X268603Y240264D01*
X268629Y240133D01*
X268638Y240000D01*
Y230000D01*
X268629Y229867D01*
X268603Y229736D01*
X268561Y229610D01*
X268502Y229491D01*
X268428Y229380D01*
X268340Y229280D01*
X268240Y229192D01*
X268129Y229118D01*
X268010Y229059D01*
X267883Y229016D01*
X267753Y228990D01*
X267620Y228982D01*
X252380Y228982D01*
X252247Y228991D01*
X252117Y229016D01*
X251990Y229059D01*
X251871Y229118D01*
X251760Y229192D01*
X251660Y229280D01*
X251572Y229380D01*
X251498Y229491D01*
X251439Y229610D01*
X251397Y229736D01*
X251371Y229867D01*
X251362Y230000D01*
Y240000D01*
X251371Y240133D01*
X251397Y240264D01*
X251439Y240390D01*
X251498Y240509D01*
X251572Y240620D01*
X251660Y240720D01*
X251760Y240808D01*
X251871Y240882D01*
X251990Y240941D01*
X252117Y240984D01*
X252247Y241010D01*
X252380Y241018D01*
X267620D01*
X267753Y241010D01*
D02*
G37*
G36*
X247753D02*
X247883Y240984D01*
X248010Y240941D01*
X248129Y240882D01*
X248240Y240808D01*
X248340Y240720D01*
X248428Y240620D01*
X248502Y240509D01*
X248561Y240390D01*
X248603Y240264D01*
X248629Y240133D01*
X248638Y240000D01*
Y230000D01*
X248629Y229867D01*
X248603Y229736D01*
X248561Y229610D01*
X248502Y229491D01*
X248428Y229380D01*
X248340Y229280D01*
X248240Y229192D01*
X248129Y229118D01*
X248010Y229059D01*
X247883Y229016D01*
X247753Y228990D01*
X247620Y228982D01*
X232380Y228982D01*
X232247Y228991D01*
X232117Y229016D01*
X231990Y229059D01*
X231871Y229118D01*
X231760Y229192D01*
X231660Y229280D01*
X231572Y229380D01*
X231498Y229491D01*
X231439Y229610D01*
X231397Y229736D01*
X231371Y229867D01*
X231362Y230000D01*
Y240000D01*
X231371Y240133D01*
X231397Y240264D01*
X231439Y240390D01*
X231498Y240509D01*
X231572Y240620D01*
X231660Y240720D01*
X231760Y240808D01*
X231871Y240882D01*
X231990Y240941D01*
X232117Y240984D01*
X232247Y241010D01*
X232380Y241018D01*
X247620D01*
X247753Y241010D01*
D02*
G37*
G36*
X227753D02*
X227883Y240984D01*
X228010Y240941D01*
X228129Y240882D01*
X228240Y240808D01*
X228340Y240720D01*
X228428Y240620D01*
X228502Y240509D01*
X228561Y240390D01*
X228603Y240264D01*
X228629Y240133D01*
X228638Y240000D01*
Y230000D01*
X228629Y229867D01*
X228603Y229736D01*
X228561Y229610D01*
X228502Y229491D01*
X228428Y229380D01*
X228340Y229280D01*
X228240Y229192D01*
X228129Y229118D01*
X228010Y229059D01*
X227883Y229016D01*
X227753Y228990D01*
X227620Y228982D01*
X212380Y228982D01*
X212247Y228991D01*
X212117Y229016D01*
X211990Y229059D01*
X211871Y229118D01*
X211760Y229192D01*
X211660Y229280D01*
X211572Y229380D01*
X211498Y229491D01*
X211439Y229610D01*
X211397Y229736D01*
X211371Y229867D01*
X211362Y230000D01*
Y240000D01*
X211371Y240133D01*
X211397Y240264D01*
X211439Y240390D01*
X211498Y240509D01*
X211572Y240620D01*
X211660Y240720D01*
X211760Y240808D01*
X211871Y240882D01*
X211990Y240941D01*
X212117Y240984D01*
X212247Y241010D01*
X212380Y241018D01*
X227620D01*
X227753Y241010D01*
D02*
G37*
G36*
X207753D02*
X207883Y240984D01*
X208010Y240941D01*
X208129Y240882D01*
X208240Y240808D01*
X208340Y240720D01*
X208428Y240620D01*
X208502Y240509D01*
X208561Y240390D01*
X208603Y240264D01*
X208629Y240133D01*
X208638Y240000D01*
Y230000D01*
X208629Y229867D01*
X208603Y229736D01*
X208561Y229610D01*
X208502Y229491D01*
X208428Y229380D01*
X208340Y229280D01*
X208240Y229192D01*
X208129Y229118D01*
X208010Y229059D01*
X207883Y229016D01*
X207753Y228990D01*
X207620Y228982D01*
X192380Y228982D01*
X192247Y228991D01*
X192117Y229016D01*
X191990Y229059D01*
X191871Y229118D01*
X191760Y229192D01*
X191660Y229280D01*
X191572Y229380D01*
X191498Y229491D01*
X191439Y229610D01*
X191397Y229736D01*
X191371Y229867D01*
X191362Y230000D01*
Y240000D01*
X191371Y240133D01*
X191397Y240264D01*
X191439Y240390D01*
X191498Y240509D01*
X191572Y240620D01*
X191660Y240720D01*
X191760Y240808D01*
X191871Y240882D01*
X191990Y240941D01*
X192117Y240984D01*
X192247Y241010D01*
X192380Y241018D01*
X207620D01*
X207753Y241010D01*
D02*
G37*
G36*
X187753D02*
X187883Y240984D01*
X188010Y240941D01*
X188129Y240882D01*
X188240Y240808D01*
X188340Y240720D01*
X188428Y240620D01*
X188502Y240509D01*
X188561Y240390D01*
X188603Y240264D01*
X188629Y240133D01*
X188638Y240000D01*
Y230000D01*
X188629Y229867D01*
X188603Y229736D01*
X188561Y229610D01*
X188502Y229491D01*
X188428Y229380D01*
X188340Y229280D01*
X188240Y229192D01*
X188129Y229118D01*
X188010Y229059D01*
X187883Y229016D01*
X187753Y228990D01*
X187620Y228982D01*
X172380Y228982D01*
X172247Y228991D01*
X172117Y229016D01*
X171990Y229059D01*
X171871Y229118D01*
X171760Y229192D01*
X171660Y229280D01*
X171572Y229380D01*
X171498Y229491D01*
X171439Y229610D01*
X171397Y229736D01*
X171371Y229867D01*
X171362Y230000D01*
Y240000D01*
X171371Y240133D01*
X171397Y240264D01*
X171439Y240390D01*
X171498Y240509D01*
X171572Y240620D01*
X171660Y240720D01*
X171760Y240808D01*
X171871Y240882D01*
X171990Y240941D01*
X172117Y240984D01*
X172247Y241010D01*
X172380Y241018D01*
X187620D01*
X187753Y241010D01*
D02*
G37*
G36*
X167753D02*
X167883Y240984D01*
X168010Y240941D01*
X168129Y240882D01*
X168240Y240808D01*
X168340Y240720D01*
X168428Y240620D01*
X168502Y240509D01*
X168561Y240390D01*
X168603Y240264D01*
X168629Y240133D01*
X168638Y240000D01*
Y230000D01*
X168629Y229867D01*
X168603Y229736D01*
X168561Y229610D01*
X168502Y229491D01*
X168428Y229380D01*
X168340Y229280D01*
X168240Y229192D01*
X168129Y229118D01*
X168010Y229059D01*
X167883Y229016D01*
X167753Y228990D01*
X167620Y228982D01*
X152380Y228982D01*
X152247Y228991D01*
X152116Y229016D01*
X151990Y229059D01*
X151871Y229118D01*
X151760Y229192D01*
X151660Y229280D01*
X151572Y229380D01*
X151498Y229491D01*
X151439Y229610D01*
X151397Y229736D01*
X151370Y229867D01*
X151362Y230000D01*
Y240000D01*
X151370Y240133D01*
X151397Y240264D01*
X151439Y240390D01*
X151498Y240509D01*
X151572Y240620D01*
X151660Y240720D01*
X151760Y240808D01*
X151871Y240882D01*
X151990Y240941D01*
X152116Y240984D01*
X152247Y241010D01*
X152380Y241018D01*
X167620D01*
X167753Y241010D01*
D02*
G37*
G36*
X147753D02*
X147884Y240984D01*
X148010Y240941D01*
X148129Y240882D01*
X148240Y240808D01*
X148340Y240720D01*
X148428Y240620D01*
X148502Y240509D01*
X148561Y240390D01*
X148603Y240264D01*
X148630Y240133D01*
X148638Y240000D01*
Y230000D01*
X148630Y229867D01*
X148603Y229736D01*
X148561Y229610D01*
X148502Y229491D01*
X148428Y229380D01*
X148340Y229280D01*
X148240Y229192D01*
X148129Y229118D01*
X148010Y229059D01*
X147884Y229016D01*
X147753Y228990D01*
X147620Y228982D01*
X132380Y228982D01*
X132247Y228991D01*
X132116Y229016D01*
X131990Y229059D01*
X131871Y229118D01*
X131760Y229192D01*
X131660Y229280D01*
X131572Y229380D01*
X131498Y229491D01*
X131439Y229610D01*
X131397Y229736D01*
X131370Y229867D01*
X131362Y230000D01*
Y240000D01*
X131370Y240133D01*
X131397Y240264D01*
X131439Y240390D01*
X131498Y240509D01*
X131572Y240620D01*
X131660Y240720D01*
X131760Y240808D01*
X131871Y240882D01*
X131990Y240941D01*
X132116Y240984D01*
X132247Y241010D01*
X132380Y241018D01*
X147620D01*
X147753Y241010D01*
D02*
G37*
G36*
X127753D02*
X127884Y240984D01*
X128010Y240941D01*
X128129Y240882D01*
X128240Y240808D01*
X128340Y240720D01*
X128428Y240620D01*
X128502Y240509D01*
X128561Y240390D01*
X128603Y240264D01*
X128630Y240133D01*
X128638Y240000D01*
Y230000D01*
X128630Y229867D01*
X128603Y229736D01*
X128561Y229610D01*
X128502Y229491D01*
X128428Y229380D01*
X128340Y229280D01*
X128240Y229192D01*
X128129Y229118D01*
X128010Y229059D01*
X127884Y229016D01*
X127753Y228990D01*
X127620Y228982D01*
X112380Y228982D01*
X112247Y228991D01*
X112116Y229016D01*
X111990Y229059D01*
X111871Y229118D01*
X111760Y229192D01*
X111660Y229280D01*
X111572Y229380D01*
X111498Y229491D01*
X111439Y229610D01*
X111397Y229736D01*
X111370Y229867D01*
X111362Y230000D01*
Y240000D01*
X111370Y240133D01*
X111397Y240264D01*
X111439Y240390D01*
X111498Y240509D01*
X111572Y240620D01*
X111660Y240720D01*
X111760Y240808D01*
X111871Y240882D01*
X111990Y240941D01*
X112116Y240984D01*
X112247Y241010D01*
X112380Y241018D01*
X127620D01*
X127753Y241010D01*
D02*
G37*
G36*
X107753D02*
X107884Y240984D01*
X108010Y240941D01*
X108129Y240882D01*
X108240Y240808D01*
X108340Y240720D01*
X108428Y240620D01*
X108502Y240509D01*
X108561Y240390D01*
X108603Y240264D01*
X108630Y240133D01*
X108638Y240000D01*
Y230000D01*
X108630Y229867D01*
X108603Y229736D01*
X108561Y229610D01*
X108502Y229491D01*
X108428Y229380D01*
X108340Y229280D01*
X108240Y229192D01*
X108129Y229118D01*
X108010Y229059D01*
X107884Y229016D01*
X107753Y228990D01*
X107620Y228982D01*
X92380Y228982D01*
X92247Y228991D01*
X92116Y229016D01*
X91990Y229059D01*
X91871Y229118D01*
X91760Y229192D01*
X91660Y229280D01*
X91572Y229380D01*
X91498Y229491D01*
X91439Y229610D01*
X91397Y229736D01*
X91370Y229867D01*
X91362Y230000D01*
Y240000D01*
X91370Y240133D01*
X91397Y240264D01*
X91439Y240390D01*
X91498Y240509D01*
X91572Y240620D01*
X91660Y240720D01*
X91760Y240808D01*
X91871Y240882D01*
X91990Y240941D01*
X92116Y240984D01*
X92247Y241010D01*
X92380Y241018D01*
X107620D01*
X107753Y241010D01*
D02*
G37*
G36*
X47753D02*
X47884Y240984D01*
X48010Y240941D01*
X48129Y240882D01*
X48240Y240808D01*
X48340Y240720D01*
X48428Y240620D01*
X48502Y240509D01*
X48561Y240390D01*
X48604Y240264D01*
X48629Y240133D01*
X48638Y240000D01*
Y230000D01*
X48629Y229867D01*
X48604Y229736D01*
X48561Y229610D01*
X48502Y229491D01*
X48428Y229380D01*
X48340Y229280D01*
X48240Y229192D01*
X48129Y229118D01*
X48010Y229059D01*
X47884Y229016D01*
X47753Y228990D01*
X47620Y228982D01*
X32380Y228982D01*
X32247Y228991D01*
X32116Y229016D01*
X31990Y229059D01*
X31871Y229118D01*
X31760Y229192D01*
X31660Y229280D01*
X31572Y229380D01*
X31498Y229491D01*
X31439Y229610D01*
X31397Y229736D01*
X31370Y229867D01*
X31362Y230000D01*
Y240000D01*
X31370Y240133D01*
X31397Y240264D01*
X31439Y240390D01*
X31498Y240509D01*
X31572Y240620D01*
X31660Y240720D01*
X31760Y240808D01*
X31871Y240882D01*
X31990Y240941D01*
X32116Y240984D01*
X32247Y241010D01*
X32380Y241018D01*
X47620D01*
X47753Y241010D01*
D02*
G37*
G36*
X27753D02*
X27884Y240984D01*
X28010Y240941D01*
X28129Y240882D01*
X28240Y240808D01*
X28340Y240720D01*
X28428Y240620D01*
X28502Y240509D01*
X28561Y240390D01*
X28603Y240264D01*
X28630Y240133D01*
X28638Y240000D01*
Y230000D01*
X28630Y229867D01*
X28603Y229736D01*
X28561Y229610D01*
X28502Y229491D01*
X28428Y229380D01*
X28340Y229280D01*
X28240Y229192D01*
X28129Y229118D01*
X28010Y229059D01*
X27884Y229016D01*
X27753Y228990D01*
X27620Y228982D01*
X12380Y228982D01*
X12247Y228991D01*
X12117Y229016D01*
X11990Y229059D01*
X11871Y229118D01*
X11760Y229192D01*
X11660Y229280D01*
X11572Y229380D01*
X11498Y229491D01*
X11439Y229610D01*
X11396Y229736D01*
X11371Y229867D01*
X11362Y230000D01*
Y240000D01*
X11371Y240133D01*
X11396Y240264D01*
X11439Y240390D01*
X11498Y240509D01*
X11572Y240620D01*
X11660Y240720D01*
X11760Y240808D01*
X11871Y240882D01*
X11990Y240941D01*
X12117Y240984D01*
X12247Y241010D01*
X12380Y241018D01*
X27620D01*
X27753Y241010D01*
D02*
G37*
G36*
X287753Y241009D02*
X287883Y240984D01*
X288010Y240941D01*
X288129Y240882D01*
X288240Y240808D01*
X288340Y240720D01*
X288428Y240620D01*
X288502Y240509D01*
X288561Y240390D01*
X288603Y240264D01*
X288629Y240133D01*
X288638Y240000D01*
Y230000D01*
X288629Y229867D01*
X288603Y229736D01*
X288561Y229610D01*
X288502Y229491D01*
X288428Y229380D01*
X288340Y229280D01*
X288240Y229192D01*
X288129Y229118D01*
X288010Y229059D01*
X287883Y229016D01*
X287753Y228990D01*
X287620Y228982D01*
X272380Y228982D01*
X272247Y228990D01*
X272116Y229016D01*
X271990Y229059D01*
X271871Y229118D01*
X271760Y229192D01*
X271660Y229280D01*
X271572Y229380D01*
X271498Y229491D01*
X271439Y229610D01*
X271397Y229736D01*
X271371Y229867D01*
X271362Y230000D01*
Y240000D01*
X271371Y240133D01*
X271397Y240264D01*
X271439Y240390D01*
X271498Y240509D01*
X271572Y240620D01*
X271660Y240720D01*
X271760Y240808D01*
X271871Y240882D01*
X271990Y240941D01*
X272116Y240984D01*
X272247Y241009D01*
X272380Y241018D01*
X287620D01*
X287753Y241009D01*
D02*
G37*
G36*
X87753D02*
X87884Y240984D01*
X88010Y240941D01*
X88129Y240882D01*
X88240Y240808D01*
X88340Y240720D01*
X88428Y240620D01*
X88502Y240509D01*
X88561Y240390D01*
X88603Y240264D01*
X88630Y240133D01*
X88638Y240000D01*
Y230000D01*
X88630Y229867D01*
X88603Y229736D01*
X88561Y229610D01*
X88502Y229491D01*
X88428Y229380D01*
X88340Y229280D01*
X88240Y229192D01*
X88129Y229118D01*
X88010Y229059D01*
X87884Y229016D01*
X87753Y228990D01*
X87620Y228982D01*
X72380Y228982D01*
X72247Y228990D01*
X72116Y229016D01*
X71990Y229059D01*
X71871Y229118D01*
X71760Y229192D01*
X71660Y229280D01*
X71572Y229380D01*
X71498Y229491D01*
X71439Y229610D01*
X71396Y229736D01*
X71371Y229867D01*
X71362Y230000D01*
Y240000D01*
X71371Y240133D01*
X71396Y240264D01*
X71439Y240390D01*
X71498Y240509D01*
X71572Y240620D01*
X71660Y240720D01*
X71760Y240808D01*
X71871Y240882D01*
X71990Y240941D01*
X72116Y240984D01*
X72247Y241009D01*
X72380Y241018D01*
X87620D01*
X87753Y241009D01*
D02*
G37*
G36*
X67753D02*
X67884Y240984D01*
X68010Y240941D01*
X68129Y240882D01*
X68240Y240808D01*
X68340Y240720D01*
X68428Y240620D01*
X68502Y240509D01*
X68561Y240390D01*
X68604Y240264D01*
X68629Y240133D01*
X68638Y240000D01*
Y230000D01*
X68629Y229867D01*
X68604Y229736D01*
X68561Y229610D01*
X68502Y229491D01*
X68428Y229380D01*
X68340Y229280D01*
X68240Y229192D01*
X68129Y229118D01*
X68010Y229059D01*
X67884Y229016D01*
X67753Y228990D01*
X67620Y228982D01*
X52380Y228982D01*
X52247Y228990D01*
X52116Y229016D01*
X51990Y229059D01*
X51871Y229118D01*
X51760Y229192D01*
X51660Y229280D01*
X51572Y229380D01*
X51498Y229491D01*
X51439Y229610D01*
X51396Y229736D01*
X51371Y229867D01*
X51362Y230000D01*
Y240000D01*
X51371Y240133D01*
X51396Y240264D01*
X51439Y240390D01*
X51498Y240509D01*
X51572Y240620D01*
X51660Y240720D01*
X51760Y240808D01*
X51871Y240882D01*
X51990Y240941D01*
X52116Y240984D01*
X52247Y241009D01*
X52380Y241018D01*
X67620D01*
X67753Y241009D01*
D02*
G37*
G36*
X305133Y226010D02*
X305264Y225984D01*
X305390Y225941D01*
X305509Y225882D01*
X305620Y225808D01*
X305720Y225720D01*
X308220Y223220D01*
X308308Y223120D01*
X308382Y223009D01*
X308441Y222890D01*
X308484Y222764D01*
X308510Y222633D01*
X308518Y222500D01*
Y217500D01*
X308510Y217367D01*
X308484Y217236D01*
X308441Y217110D01*
X308382Y216991D01*
X308308Y216880D01*
X308220Y216780D01*
X305720Y214280D01*
X305620Y214192D01*
X305509Y214118D01*
X305390Y214059D01*
X305264Y214016D01*
X305133Y213990D01*
X305000Y213982D01*
X260000D01*
X259867Y213990D01*
X259736Y214016D01*
X259610Y214059D01*
X259491Y214118D01*
X259380Y214192D01*
X259280Y214280D01*
X256780Y216780D01*
X256692Y216880D01*
X256618Y216991D01*
X256559Y217110D01*
X256516Y217236D01*
X256490Y217367D01*
X256482Y217500D01*
Y222500D01*
X256490Y222633D01*
X256516Y222764D01*
X256559Y222890D01*
X256618Y223009D01*
X256692Y223120D01*
X256780Y223220D01*
X259280Y225720D01*
X259380Y225808D01*
X259491Y225882D01*
X259610Y225941D01*
X259736Y225984D01*
X259867Y226010D01*
X260000Y226018D01*
X305000D01*
X305133Y226010D01*
D02*
G37*
G36*
X232633D02*
X232764Y225984D01*
X232890Y225941D01*
X233009Y225882D01*
X233120Y225808D01*
X233220Y225720D01*
X235720Y223220D01*
X235808Y223120D01*
X235882Y223009D01*
X235941Y222890D01*
X235984Y222764D01*
X236010Y222633D01*
X236018Y222500D01*
Y217500D01*
X236010Y217367D01*
X235984Y217236D01*
X235941Y217110D01*
X235882Y216991D01*
X235808Y216880D01*
X235720Y216780D01*
X233220Y214280D01*
X233120Y214192D01*
X233009Y214118D01*
X232890Y214059D01*
X232764Y214016D01*
X232633Y213990D01*
X232500Y213982D01*
X187500D01*
X187367Y213990D01*
X187236Y214016D01*
X187110Y214059D01*
X186991Y214118D01*
X186880Y214192D01*
X186780Y214280D01*
X184280Y216780D01*
X184192Y216880D01*
X184118Y216991D01*
X184059Y217110D01*
X184016Y217236D01*
X183990Y217367D01*
X183982Y217500D01*
Y222500D01*
X183990Y222633D01*
X184016Y222764D01*
X184059Y222890D01*
X184118Y223009D01*
X184192Y223120D01*
X184280Y223220D01*
X186780Y225720D01*
X186880Y225808D01*
X186991Y225882D01*
X187110Y225941D01*
X187236Y225984D01*
X187367Y226010D01*
X187500Y226018D01*
X232500D01*
X232633Y226010D01*
D02*
G37*
G36*
X160133D02*
X160264Y225984D01*
X160390Y225941D01*
X160509Y225882D01*
X160620Y225808D01*
X160720Y225720D01*
X163220Y223220D01*
X163308Y223120D01*
X163382Y223009D01*
X163441Y222890D01*
X163484Y222764D01*
X163510Y222633D01*
X163518Y222500D01*
Y217500D01*
X163510Y217367D01*
X163484Y217236D01*
X163441Y217110D01*
X163382Y216991D01*
X163308Y216880D01*
X163220Y216780D01*
X160720Y214280D01*
X160620Y214192D01*
X160509Y214118D01*
X160390Y214059D01*
X160264Y214016D01*
X160133Y213990D01*
X160000Y213982D01*
X115000D01*
X114867Y213990D01*
X114736Y214016D01*
X114610Y214059D01*
X114491Y214118D01*
X114380Y214192D01*
X114280Y214280D01*
X111780Y216780D01*
X111692Y216880D01*
X111618Y216991D01*
X111559Y217110D01*
X111517Y217236D01*
X111490Y217367D01*
X111482Y217500D01*
Y222500D01*
X111490Y222633D01*
X111517Y222764D01*
X111559Y222890D01*
X111618Y223009D01*
X111692Y223120D01*
X111780Y223220D01*
X114280Y225720D01*
X114380Y225808D01*
X114491Y225882D01*
X114610Y225941D01*
X114736Y225984D01*
X114867Y226010D01*
X115000Y226018D01*
X160000D01*
X160133Y226010D01*
D02*
G37*
G36*
X90133D02*
X90264Y225984D01*
X90390Y225941D01*
X90509Y225882D01*
X90620Y225808D01*
X90720Y225720D01*
X93220Y223220D01*
X93308Y223120D01*
X93382Y223009D01*
X93441Y222890D01*
X93483Y222764D01*
X93510Y222633D01*
X93518Y222500D01*
Y217500D01*
X93510Y217367D01*
X93483Y217236D01*
X93441Y217110D01*
X93382Y216991D01*
X93308Y216880D01*
X93220Y216780D01*
X90720Y214280D01*
X90620Y214192D01*
X90509Y214118D01*
X90390Y214059D01*
X90264Y214016D01*
X90133Y213990D01*
X90000Y213982D01*
X45000D01*
X44867Y213990D01*
X44736Y214016D01*
X44610Y214059D01*
X44491Y214118D01*
X44380Y214192D01*
X44280Y214280D01*
X41780Y216780D01*
X41692Y216880D01*
X41618Y216991D01*
X41559Y217110D01*
X41516Y217236D01*
X41491Y217367D01*
X41482Y217500D01*
Y222500D01*
X41491Y222633D01*
X41516Y222764D01*
X41559Y222890D01*
X41618Y223009D01*
X41692Y223120D01*
X41780Y223220D01*
X44280Y225720D01*
X44380Y225808D01*
X44491Y225882D01*
X44610Y225941D01*
X44736Y225984D01*
X44867Y226010D01*
X45000Y226018D01*
X90000D01*
X90133Y226010D01*
D02*
G37*
G36*
X350133Y228629D02*
X350263Y228603D01*
X350390Y228561D01*
X350509Y228502D01*
X350620Y228428D01*
X350720Y228340D01*
X350808Y228240D01*
X350882Y228129D01*
X350941Y228010D01*
X350984Y227883D01*
X351009Y227753D01*
X351018Y227620D01*
Y212380D01*
X351009Y212247D01*
X350984Y212117D01*
X350941Y211990D01*
X350882Y211871D01*
X350808Y211760D01*
X350720Y211660D01*
X350620Y211572D01*
X350509Y211498D01*
X350390Y211439D01*
X350263Y211397D01*
X350133Y211371D01*
X350000Y211362D01*
X340000D01*
X339867Y211371D01*
X339737Y211397D01*
X339610Y211439D01*
X339491Y211498D01*
X339380Y211572D01*
X339280Y211660D01*
X339192Y211760D01*
X339118Y211871D01*
X339059Y211990D01*
X339016Y212117D01*
X338991Y212247D01*
X338982Y212380D01*
X338982Y227620D01*
X338991Y227753D01*
X339016Y227883D01*
X339059Y228010D01*
X339118Y228129D01*
X339192Y228240D01*
X339280Y228340D01*
X339380Y228428D01*
X339491Y228502D01*
X339610Y228561D01*
X339737Y228603D01*
X339867Y228629D01*
X340000Y228638D01*
X350000D01*
X350133Y228629D01*
D02*
G37*
G36*
X10133Y226129D02*
X10264Y226103D01*
X10390Y226061D01*
X10509Y226002D01*
X10620Y225928D01*
X10720Y225840D01*
X10808Y225740D01*
X10882Y225629D01*
X10941Y225510D01*
X10984Y225383D01*
X11010Y225253D01*
X11018Y225120D01*
X11018Y209880D01*
X11010Y209747D01*
X10984Y209617D01*
X10941Y209490D01*
X10882Y209371D01*
X10808Y209260D01*
X10720Y209160D01*
X10620Y209072D01*
X10509Y208998D01*
X10390Y208939D01*
X10264Y208897D01*
X10133Y208871D01*
X10000Y208862D01*
X0D01*
X-133Y208871D01*
X-264Y208897D01*
X-390Y208939D01*
X-509Y208998D01*
X-620Y209072D01*
X-720Y209160D01*
X-808Y209260D01*
X-882Y209371D01*
X-941Y209490D01*
X-984Y209617D01*
X-1010Y209747D01*
X-1018Y209880D01*
Y225120D01*
X-1010Y225253D01*
X-984Y225383D01*
X-941Y225510D01*
X-882Y225629D01*
X-808Y225740D01*
X-720Y225840D01*
X-620Y225928D01*
X-509Y226002D01*
X-390Y226061D01*
X-264Y226103D01*
X-133Y226129D01*
X0Y226138D01*
X10000D01*
X10133Y226129D01*
D02*
G37*
G36*
X305133Y206010D02*
X305264Y205984D01*
X305390Y205941D01*
X305509Y205882D01*
X305620Y205808D01*
X305720Y205720D01*
X308220Y203220D01*
X308308Y203120D01*
X308382Y203009D01*
X308441Y202890D01*
X308484Y202764D01*
X308510Y202633D01*
X308518Y202500D01*
Y197500D01*
X308510Y197367D01*
X308484Y197236D01*
X308441Y197110D01*
X308382Y196991D01*
X308308Y196880D01*
X308220Y196780D01*
X305720Y194280D01*
X305620Y194192D01*
X305509Y194118D01*
X305390Y194059D01*
X305264Y194016D01*
X305133Y193990D01*
X305000Y193982D01*
X260000D01*
X259867Y193990D01*
X259736Y194016D01*
X259610Y194059D01*
X259491Y194118D01*
X259380Y194192D01*
X259280Y194280D01*
X256780Y196780D01*
X256692Y196880D01*
X256618Y196991D01*
X256559Y197110D01*
X256516Y197236D01*
X256490Y197367D01*
X256482Y197500D01*
Y202500D01*
X256490Y202633D01*
X256516Y202764D01*
X256559Y202890D01*
X256618Y203009D01*
X256692Y203120D01*
X256780Y203220D01*
X259280Y205720D01*
X259380Y205808D01*
X259491Y205882D01*
X259610Y205941D01*
X259736Y205984D01*
X259867Y206010D01*
X260000Y206018D01*
X305000D01*
X305133Y206010D01*
D02*
G37*
G36*
X232633D02*
X232764Y205984D01*
X232890Y205941D01*
X233009Y205882D01*
X233120Y205808D01*
X233220Y205720D01*
X235720Y203220D01*
X235808Y203120D01*
X235882Y203009D01*
X235941Y202890D01*
X235984Y202764D01*
X236010Y202633D01*
X236018Y202500D01*
Y197500D01*
X236010Y197367D01*
X235984Y197236D01*
X235941Y197110D01*
X235882Y196991D01*
X235808Y196880D01*
X235720Y196780D01*
X233220Y194280D01*
X233120Y194192D01*
X233009Y194118D01*
X232890Y194059D01*
X232764Y194016D01*
X232633Y193990D01*
X232500Y193982D01*
X187500D01*
X187367Y193990D01*
X187236Y194016D01*
X187110Y194059D01*
X186991Y194118D01*
X186880Y194192D01*
X186780Y194280D01*
X184280Y196780D01*
X184192Y196880D01*
X184118Y196991D01*
X184059Y197110D01*
X184016Y197236D01*
X183990Y197367D01*
X183982Y197500D01*
Y202500D01*
X183990Y202633D01*
X184016Y202764D01*
X184059Y202890D01*
X184118Y203009D01*
X184192Y203120D01*
X184280Y203220D01*
X186780Y205720D01*
X186880Y205808D01*
X186991Y205882D01*
X187110Y205941D01*
X187236Y205984D01*
X187367Y206010D01*
X187500Y206018D01*
X232500D01*
X232633Y206010D01*
D02*
G37*
G36*
X160133D02*
X160264Y205984D01*
X160390Y205941D01*
X160509Y205882D01*
X160620Y205808D01*
X160720Y205720D01*
X163220Y203220D01*
X163308Y203120D01*
X163382Y203009D01*
X163441Y202890D01*
X163484Y202764D01*
X163510Y202633D01*
X163518Y202500D01*
Y197500D01*
X163510Y197367D01*
X163484Y197236D01*
X163441Y197110D01*
X163382Y196991D01*
X163308Y196880D01*
X163220Y196780D01*
X160720Y194280D01*
X160620Y194192D01*
X160509Y194118D01*
X160390Y194059D01*
X160264Y194016D01*
X160133Y193990D01*
X160000Y193982D01*
X115000D01*
X114867Y193990D01*
X114736Y194016D01*
X114610Y194059D01*
X114491Y194118D01*
X114380Y194192D01*
X114280Y194280D01*
X111780Y196780D01*
X111692Y196880D01*
X111618Y196991D01*
X111559Y197110D01*
X111517Y197236D01*
X111490Y197367D01*
X111482Y197500D01*
Y202500D01*
X111490Y202633D01*
X111517Y202764D01*
X111559Y202890D01*
X111618Y203009D01*
X111692Y203120D01*
X111780Y203220D01*
X114280Y205720D01*
X114380Y205808D01*
X114491Y205882D01*
X114610Y205941D01*
X114736Y205984D01*
X114867Y206010D01*
X115000Y206018D01*
X160000D01*
X160133Y206010D01*
D02*
G37*
G36*
X90133D02*
X90264Y205984D01*
X90390Y205941D01*
X90509Y205882D01*
X90620Y205808D01*
X90720Y205720D01*
X93220Y203220D01*
X93308Y203120D01*
X93382Y203009D01*
X93441Y202890D01*
X93483Y202764D01*
X93510Y202633D01*
X93518Y202500D01*
Y197500D01*
X93510Y197367D01*
X93483Y197236D01*
X93441Y197110D01*
X93382Y196991D01*
X93308Y196880D01*
X93220Y196780D01*
X90720Y194280D01*
X90620Y194192D01*
X90509Y194118D01*
X90390Y194059D01*
X90264Y194016D01*
X90133Y193990D01*
X90000Y193982D01*
X45000D01*
X44867Y193990D01*
X44736Y194016D01*
X44610Y194059D01*
X44491Y194118D01*
X44380Y194192D01*
X44280Y194280D01*
X41780Y196780D01*
X41692Y196880D01*
X41618Y196991D01*
X41559Y197110D01*
X41516Y197236D01*
X41491Y197367D01*
X41482Y197500D01*
Y202500D01*
X41491Y202633D01*
X41516Y202764D01*
X41559Y202890D01*
X41618Y203009D01*
X41692Y203120D01*
X41780Y203220D01*
X44280Y205720D01*
X44380Y205808D01*
X44491Y205882D01*
X44610Y205941D01*
X44736Y205984D01*
X44867Y206010D01*
X45000Y206018D01*
X90000D01*
X90133Y206010D01*
D02*
G37*
G36*
X350133Y208629D02*
X350263Y208603D01*
X350390Y208561D01*
X350509Y208502D01*
X350620Y208428D01*
X350720Y208340D01*
X350808Y208240D01*
X350882Y208129D01*
X350941Y208010D01*
X350984Y207883D01*
X351009Y207753D01*
X351018Y207620D01*
Y192380D01*
X351009Y192247D01*
X350984Y192117D01*
X350941Y191990D01*
X350882Y191871D01*
X350808Y191760D01*
X350720Y191660D01*
X350620Y191572D01*
X350509Y191498D01*
X350390Y191439D01*
X350263Y191397D01*
X350133Y191371D01*
X350000Y191362D01*
X340000D01*
X339867Y191371D01*
X339737Y191397D01*
X339610Y191439D01*
X339491Y191498D01*
X339380Y191572D01*
X339280Y191660D01*
X339192Y191760D01*
X339118Y191871D01*
X339059Y191990D01*
X339016Y192117D01*
X338991Y192247D01*
X338982Y192380D01*
X338982Y207620D01*
X338991Y207753D01*
X339016Y207883D01*
X339059Y208010D01*
X339118Y208129D01*
X339192Y208240D01*
X339280Y208340D01*
X339380Y208428D01*
X339491Y208502D01*
X339610Y208561D01*
X339737Y208603D01*
X339867Y208629D01*
X340000Y208638D01*
X350000D01*
X350133Y208629D01*
D02*
G37*
G36*
X10133Y206129D02*
X10264Y206103D01*
X10390Y206061D01*
X10509Y206002D01*
X10620Y205928D01*
X10720Y205840D01*
X10808Y205740D01*
X10882Y205629D01*
X10941Y205510D01*
X10984Y205383D01*
X11010Y205253D01*
X11018Y205120D01*
X11018Y189880D01*
X11010Y189747D01*
X10984Y189617D01*
X10941Y189490D01*
X10882Y189371D01*
X10808Y189260D01*
X10720Y189160D01*
X10620Y189072D01*
X10509Y188998D01*
X10390Y188939D01*
X10264Y188897D01*
X10133Y188871D01*
X10000Y188862D01*
X0D01*
X-133Y188871D01*
X-264Y188897D01*
X-390Y188939D01*
X-509Y188998D01*
X-620Y189072D01*
X-720Y189160D01*
X-808Y189260D01*
X-882Y189371D01*
X-941Y189490D01*
X-984Y189617D01*
X-1010Y189747D01*
X-1018Y189880D01*
Y205120D01*
X-1010Y205253D01*
X-984Y205383D01*
X-941Y205510D01*
X-882Y205629D01*
X-808Y205740D01*
X-720Y205840D01*
X-620Y205928D01*
X-509Y206002D01*
X-390Y206061D01*
X-264Y206103D01*
X-133Y206129D01*
X0Y206138D01*
X10000D01*
X10133Y206129D01*
D02*
G37*
G36*
X232633Y186010D02*
X232764Y185984D01*
X232890Y185941D01*
X233009Y185882D01*
X233120Y185808D01*
X233220Y185720D01*
X235720Y183220D01*
X235808Y183120D01*
X235882Y183009D01*
X235941Y182890D01*
X235984Y182764D01*
X236010Y182633D01*
X236019Y182500D01*
Y177500D01*
X236010Y177367D01*
X235984Y177237D01*
X235941Y177111D01*
X235882Y176991D01*
X235808Y176880D01*
X235720Y176780D01*
X233220Y174280D01*
X233120Y174193D01*
X233009Y174118D01*
X232890Y174060D01*
X232764Y174017D01*
X232633Y173991D01*
X232500Y173982D01*
X187500D01*
X187367Y173991D01*
X187237Y174017D01*
X187111Y174060D01*
X186991Y174118D01*
X186881Y174193D01*
X186780Y174280D01*
X184280Y176780D01*
X184193Y176880D01*
X184119Y176991D01*
X184060Y177111D01*
X184017Y177237D01*
X183991Y177367D01*
X183982Y177500D01*
Y182500D01*
X183991Y182633D01*
X184017Y182764D01*
X184060Y182890D01*
X184119Y183009D01*
X184193Y183120D01*
X184280Y183220D01*
X186780Y185720D01*
X186881Y185808D01*
X186991Y185882D01*
X187111Y185941D01*
X187237Y185984D01*
X187367Y186010D01*
X187500Y186018D01*
X232500D01*
X232633Y186010D01*
D02*
G37*
G36*
X305133Y186010D02*
X305264Y185984D01*
X305390Y185941D01*
X305509Y185882D01*
X305620Y185808D01*
X305720Y185720D01*
X308220Y183220D01*
X308308Y183120D01*
X308382Y183009D01*
X308441Y182890D01*
X308484Y182764D01*
X308510Y182633D01*
X308518Y182500D01*
Y177500D01*
X308510Y177367D01*
X308484Y177236D01*
X308441Y177110D01*
X308382Y176991D01*
X308308Y176880D01*
X308220Y176780D01*
X305720Y174280D01*
X305620Y174192D01*
X305509Y174118D01*
X305390Y174059D01*
X305264Y174016D01*
X305133Y173990D01*
X305000Y173982D01*
X260000D01*
X259867Y173990D01*
X259736Y174016D01*
X259610Y174059D01*
X259491Y174118D01*
X259380Y174192D01*
X259280Y174280D01*
X256780Y176780D01*
X256692Y176880D01*
X256618Y176991D01*
X256559Y177110D01*
X256516Y177236D01*
X256490Y177367D01*
X256482Y177500D01*
Y182500D01*
X256490Y182633D01*
X256516Y182764D01*
X256559Y182890D01*
X256618Y183009D01*
X256692Y183120D01*
X256780Y183220D01*
X259280Y185720D01*
X259380Y185808D01*
X259491Y185882D01*
X259610Y185941D01*
X259736Y185984D01*
X259867Y186010D01*
X260000Y186018D01*
X305000D01*
X305133Y186010D01*
D02*
G37*
G36*
X160133D02*
X160264Y185984D01*
X160390Y185941D01*
X160509Y185882D01*
X160620Y185808D01*
X160720Y185720D01*
X163220Y183220D01*
X163308Y183120D01*
X163382Y183009D01*
X163441Y182890D01*
X163484Y182764D01*
X163510Y182633D01*
X163518Y182500D01*
Y177500D01*
X163510Y177367D01*
X163484Y177236D01*
X163441Y177110D01*
X163382Y176991D01*
X163308Y176880D01*
X163220Y176780D01*
X160720Y174280D01*
X160620Y174192D01*
X160509Y174118D01*
X160390Y174059D01*
X160264Y174016D01*
X160133Y173990D01*
X160000Y173982D01*
X115000D01*
X114867Y173990D01*
X114736Y174016D01*
X114610Y174059D01*
X114491Y174118D01*
X114380Y174192D01*
X114280Y174280D01*
X111780Y176780D01*
X111692Y176880D01*
X111618Y176991D01*
X111559Y177110D01*
X111517Y177236D01*
X111490Y177367D01*
X111482Y177500D01*
Y182500D01*
X111490Y182633D01*
X111517Y182764D01*
X111559Y182890D01*
X111618Y183009D01*
X111692Y183120D01*
X111780Y183220D01*
X114280Y185720D01*
X114380Y185808D01*
X114491Y185882D01*
X114610Y185941D01*
X114736Y185984D01*
X114867Y186010D01*
X115000Y186018D01*
X160000D01*
X160133Y186010D01*
D02*
G37*
G36*
X90133D02*
X90264Y185984D01*
X90390Y185941D01*
X90509Y185882D01*
X90620Y185808D01*
X90720Y185720D01*
X93220Y183220D01*
X93308Y183120D01*
X93382Y183009D01*
X93441Y182890D01*
X93483Y182764D01*
X93510Y182633D01*
X93518Y182500D01*
Y177500D01*
X93510Y177367D01*
X93483Y177236D01*
X93441Y177110D01*
X93382Y176991D01*
X93308Y176880D01*
X93220Y176780D01*
X90720Y174280D01*
X90620Y174192D01*
X90509Y174118D01*
X90390Y174059D01*
X90264Y174016D01*
X90133Y173990D01*
X90000Y173982D01*
X45000D01*
X44867Y173990D01*
X44736Y174016D01*
X44610Y174059D01*
X44491Y174118D01*
X44380Y174192D01*
X44280Y174280D01*
X41780Y176780D01*
X41692Y176880D01*
X41618Y176991D01*
X41559Y177110D01*
X41516Y177236D01*
X41491Y177367D01*
X41482Y177500D01*
Y182500D01*
X41491Y182633D01*
X41516Y182764D01*
X41559Y182890D01*
X41618Y183009D01*
X41692Y183120D01*
X41780Y183220D01*
X44280Y185720D01*
X44380Y185808D01*
X44491Y185882D01*
X44610Y185941D01*
X44736Y185984D01*
X44867Y186010D01*
X45000Y186018D01*
X90000D01*
X90133Y186010D01*
D02*
G37*
G36*
X350133Y188629D02*
X350263Y188603D01*
X350390Y188561D01*
X350509Y188502D01*
X350620Y188428D01*
X350720Y188340D01*
X350808Y188240D01*
X350882Y188129D01*
X350941Y188010D01*
X350984Y187883D01*
X351009Y187753D01*
X351018Y187620D01*
Y172380D01*
X351009Y172247D01*
X350984Y172117D01*
X350941Y171990D01*
X350882Y171871D01*
X350808Y171760D01*
X350720Y171660D01*
X350620Y171572D01*
X350509Y171498D01*
X350390Y171439D01*
X350263Y171397D01*
X350133Y171371D01*
X350000Y171362D01*
X340000D01*
X339867Y171371D01*
X339737Y171397D01*
X339610Y171439D01*
X339491Y171498D01*
X339380Y171572D01*
X339280Y171660D01*
X339192Y171760D01*
X339118Y171871D01*
X339059Y171990D01*
X339016Y172117D01*
X338991Y172247D01*
X338982Y172380D01*
X338982Y187620D01*
X338991Y187753D01*
X339016Y187883D01*
X339059Y188010D01*
X339118Y188129D01*
X339192Y188240D01*
X339280Y188340D01*
X339380Y188428D01*
X339491Y188502D01*
X339610Y188561D01*
X339737Y188603D01*
X339867Y188629D01*
X340000Y188638D01*
X350000D01*
X350133Y188629D01*
D02*
G37*
G36*
X10133Y186129D02*
X10264Y186103D01*
X10390Y186061D01*
X10509Y186002D01*
X10620Y185928D01*
X10720Y185840D01*
X10808Y185740D01*
X10882Y185629D01*
X10941Y185510D01*
X10984Y185383D01*
X11010Y185253D01*
X11018Y185120D01*
X11018Y169880D01*
X11010Y169747D01*
X10984Y169617D01*
X10941Y169490D01*
X10882Y169371D01*
X10808Y169260D01*
X10720Y169160D01*
X10620Y169072D01*
X10509Y168998D01*
X10390Y168939D01*
X10264Y168897D01*
X10133Y168871D01*
X10000Y168862D01*
X0D01*
X-133Y168871D01*
X-264Y168897D01*
X-390Y168939D01*
X-509Y168998D01*
X-620Y169072D01*
X-720Y169160D01*
X-808Y169260D01*
X-882Y169371D01*
X-941Y169490D01*
X-984Y169617D01*
X-1009Y169747D01*
X-1018Y169880D01*
Y185120D01*
X-1009Y185253D01*
X-984Y185383D01*
X-941Y185510D01*
X-882Y185629D01*
X-808Y185740D01*
X-720Y185840D01*
X-620Y185928D01*
X-509Y186002D01*
X-390Y186061D01*
X-264Y186103D01*
X-133Y186129D01*
X0Y186138D01*
X10000D01*
X10133Y186129D01*
D02*
G37*
G36*
X10133Y166129D02*
X10264Y166103D01*
X10390Y166061D01*
X10509Y166002D01*
X10620Y165928D01*
X10720Y165840D01*
X10808Y165740D01*
X10882Y165629D01*
X10941Y165510D01*
X10984Y165383D01*
X11010Y165253D01*
X11018Y165120D01*
X11018Y149880D01*
X11010Y149747D01*
X10984Y149616D01*
X10941Y149490D01*
X10882Y149371D01*
X10808Y149260D01*
X10720Y149160D01*
X10620Y149072D01*
X10509Y148998D01*
X10390Y148939D01*
X10264Y148897D01*
X10133Y148870D01*
X10000Y148862D01*
X0D01*
X-133Y148870D01*
X-264Y148897D01*
X-390Y148939D01*
X-509Y148998D01*
X-620Y149072D01*
X-720Y149160D01*
X-808Y149260D01*
X-882Y149371D01*
X-941Y149490D01*
X-984Y149616D01*
X-1010Y149747D01*
X-1018Y149880D01*
Y165120D01*
X-1010Y165253D01*
X-984Y165383D01*
X-941Y165510D01*
X-882Y165629D01*
X-808Y165740D01*
X-720Y165840D01*
X-620Y165928D01*
X-509Y166002D01*
X-390Y166061D01*
X-264Y166103D01*
X-133Y166129D01*
X0Y166138D01*
X10000D01*
X10133Y166129D01*
D02*
G37*
G36*
Y146130D02*
X10264Y146103D01*
X10390Y146061D01*
X10509Y146002D01*
X10620Y145928D01*
X10720Y145840D01*
X10808Y145740D01*
X10882Y145629D01*
X10941Y145510D01*
X10984Y145384D01*
X11010Y145253D01*
X11018Y145120D01*
X11018Y129880D01*
X11010Y129747D01*
X10984Y129616D01*
X10941Y129490D01*
X10882Y129371D01*
X10808Y129260D01*
X10720Y129160D01*
X10620Y129072D01*
X10509Y128998D01*
X10390Y128939D01*
X10264Y128897D01*
X10133Y128870D01*
X10000Y128862D01*
X0D01*
X-133Y128870D01*
X-264Y128897D01*
X-390Y128939D01*
X-509Y128998D01*
X-620Y129072D01*
X-720Y129160D01*
X-808Y129260D01*
X-882Y129371D01*
X-941Y129490D01*
X-984Y129616D01*
X-1010Y129747D01*
X-1018Y129880D01*
Y145120D01*
X-1010Y145253D01*
X-984Y145384D01*
X-941Y145510D01*
X-882Y145629D01*
X-808Y145740D01*
X-720Y145840D01*
X-620Y145928D01*
X-509Y146002D01*
X-390Y146061D01*
X-264Y146103D01*
X-133Y146130D01*
X0Y146138D01*
X10000D01*
X10133Y146130D01*
D02*
G37*
G36*
X350133Y141130D02*
X350263Y141103D01*
X350390Y141061D01*
X350509Y141002D01*
X350620Y140928D01*
X350720Y140840D01*
X350808Y140740D01*
X350882Y140629D01*
X350941Y140510D01*
X350984Y140384D01*
X351009Y140253D01*
X351018Y140120D01*
Y124880D01*
X351009Y124747D01*
X350984Y124616D01*
X350941Y124490D01*
X350882Y124371D01*
X350808Y124260D01*
X350720Y124160D01*
X350620Y124072D01*
X350509Y123998D01*
X350390Y123939D01*
X350263Y123897D01*
X350133Y123870D01*
X350000Y123862D01*
X340000D01*
X339867Y123870D01*
X339737Y123897D01*
X339610Y123939D01*
X339491Y123998D01*
X339380Y124072D01*
X339280Y124160D01*
X339192Y124260D01*
X339118Y124371D01*
X339059Y124490D01*
X339016Y124616D01*
X338991Y124747D01*
X338982Y124880D01*
X338982Y140120D01*
X338991Y140253D01*
X339016Y140384D01*
X339059Y140510D01*
X339118Y140629D01*
X339192Y140740D01*
X339280Y140840D01*
X339380Y140928D01*
X339491Y141002D01*
X339610Y141061D01*
X339737Y141103D01*
X339867Y141130D01*
X340000Y141138D01*
X350000D01*
X350133Y141130D01*
D02*
G37*
G36*
X350133Y121130D02*
X350263Y121103D01*
X350390Y121061D01*
X350509Y121002D01*
X350620Y120928D01*
X350720Y120840D01*
X350808Y120740D01*
X350882Y120629D01*
X350941Y120510D01*
X350984Y120384D01*
X351009Y120253D01*
X351018Y120120D01*
Y104880D01*
X351009Y104747D01*
X350984Y104616D01*
X350941Y104490D01*
X350882Y104371D01*
X350808Y104260D01*
X350720Y104160D01*
X350620Y104072D01*
X350509Y103998D01*
X350390Y103939D01*
X350263Y103897D01*
X350133Y103871D01*
X350000Y103862D01*
X340000D01*
X339867Y103871D01*
X339737Y103897D01*
X339610Y103939D01*
X339491Y103998D01*
X339380Y104072D01*
X339280Y104160D01*
X339192Y104260D01*
X339118Y104371D01*
X339059Y104490D01*
X339016Y104616D01*
X338991Y104747D01*
X338982Y104880D01*
X338982Y120120D01*
X338991Y120253D01*
X339016Y120384D01*
X339059Y120510D01*
X339118Y120629D01*
X339192Y120740D01*
X339280Y120840D01*
X339380Y120928D01*
X339491Y121002D01*
X339610Y121061D01*
X339737Y121103D01*
X339867Y121130D01*
X340000Y121138D01*
X350000D01*
X350133Y121130D01*
D02*
G37*
G36*
X350133Y101130D02*
X350263Y101103D01*
X350390Y101061D01*
X350509Y101002D01*
X350620Y100928D01*
X350720Y100840D01*
X350808Y100740D01*
X350882Y100629D01*
X350941Y100510D01*
X350984Y100384D01*
X351009Y100253D01*
X351018Y100120D01*
Y84880D01*
X351009Y84747D01*
X350984Y84616D01*
X350941Y84490D01*
X350882Y84371D01*
X350808Y84260D01*
X350720Y84160D01*
X350620Y84072D01*
X350509Y83998D01*
X350390Y83939D01*
X350263Y83897D01*
X350133Y83870D01*
X350000Y83862D01*
X340000D01*
X339867Y83870D01*
X339737Y83897D01*
X339610Y83939D01*
X339491Y83998D01*
X339380Y84072D01*
X339280Y84160D01*
X339192Y84260D01*
X339118Y84371D01*
X339059Y84490D01*
X339016Y84616D01*
X338991Y84747D01*
X338982Y84880D01*
X338982Y100120D01*
X338991Y100253D01*
X339016Y100384D01*
X339059Y100510D01*
X339118Y100629D01*
X339192Y100740D01*
X339280Y100840D01*
X339380Y100928D01*
X339491Y101002D01*
X339610Y101061D01*
X339737Y101103D01*
X339867Y101130D01*
X340000Y101138D01*
X350000D01*
X350133Y101130D01*
D02*
G37*
G36*
X10133D02*
X10264Y101103D01*
X10390Y101061D01*
X10509Y101002D01*
X10620Y100928D01*
X10720Y100840D01*
X10808Y100740D01*
X10882Y100629D01*
X10941Y100510D01*
X10984Y100384D01*
X11010Y100253D01*
X11018Y100120D01*
X11018Y84880D01*
X11010Y84747D01*
X10984Y84616D01*
X10941Y84490D01*
X10882Y84371D01*
X10808Y84260D01*
X10720Y84160D01*
X10620Y84072D01*
X10509Y83998D01*
X10390Y83939D01*
X10264Y83897D01*
X10133Y83870D01*
X10000Y83862D01*
X0D01*
X-133Y83870D01*
X-264Y83897D01*
X-390Y83939D01*
X-509Y83998D01*
X-620Y84072D01*
X-720Y84160D01*
X-808Y84260D01*
X-882Y84371D01*
X-941Y84490D01*
X-984Y84616D01*
X-1010Y84747D01*
X-1018Y84880D01*
Y100120D01*
X-1010Y100253D01*
X-984Y100384D01*
X-941Y100510D01*
X-882Y100629D01*
X-808Y100740D01*
X-720Y100840D01*
X-620Y100928D01*
X-509Y101002D01*
X-390Y101061D01*
X-264Y101103D01*
X-133Y101130D01*
X0Y101138D01*
X10000D01*
X10133Y101130D01*
D02*
G37*
G36*
X350133Y81130D02*
X350263Y81103D01*
X350390Y81061D01*
X350509Y81002D01*
X350620Y80928D01*
X350720Y80840D01*
X350808Y80740D01*
X350882Y80629D01*
X350941Y80510D01*
X350984Y80384D01*
X351009Y80253D01*
X351018Y80120D01*
Y64880D01*
X351009Y64747D01*
X350984Y64616D01*
X350941Y64490D01*
X350882Y64371D01*
X350808Y64260D01*
X350720Y64160D01*
X350620Y64072D01*
X350509Y63998D01*
X350390Y63939D01*
X350263Y63896D01*
X350133Y63871D01*
X350000Y63862D01*
X340000D01*
X339867Y63871D01*
X339737Y63896D01*
X339610Y63939D01*
X339491Y63998D01*
X339380Y64072D01*
X339280Y64160D01*
X339192Y64260D01*
X339118Y64371D01*
X339059Y64490D01*
X339016Y64616D01*
X338991Y64747D01*
X338982Y64880D01*
X338982Y80120D01*
X338991Y80253D01*
X339016Y80384D01*
X339059Y80510D01*
X339118Y80629D01*
X339192Y80740D01*
X339280Y80840D01*
X339380Y80928D01*
X339491Y81002D01*
X339610Y81061D01*
X339737Y81103D01*
X339867Y81130D01*
X340000Y81138D01*
X350000D01*
X350133Y81130D01*
D02*
G37*
G36*
X10133D02*
X10264Y81103D01*
X10390Y81061D01*
X10509Y81002D01*
X10620Y80928D01*
X10720Y80840D01*
X10808Y80740D01*
X10882Y80629D01*
X10941Y80510D01*
X10984Y80384D01*
X11010Y80253D01*
X11018Y80120D01*
X11018Y64880D01*
X11010Y64747D01*
X10984Y64616D01*
X10941Y64490D01*
X10882Y64371D01*
X10808Y64260D01*
X10720Y64160D01*
X10620Y64072D01*
X10509Y63998D01*
X10390Y63939D01*
X10264Y63896D01*
X10133Y63871D01*
X10000Y63862D01*
X0D01*
X-133Y63871D01*
X-264Y63896D01*
X-390Y63939D01*
X-509Y63998D01*
X-620Y64072D01*
X-720Y64160D01*
X-808Y64260D01*
X-882Y64371D01*
X-941Y64490D01*
X-984Y64616D01*
X-1010Y64747D01*
X-1018Y64880D01*
Y80120D01*
X-1010Y80253D01*
X-984Y80384D01*
X-941Y80510D01*
X-882Y80629D01*
X-808Y80740D01*
X-720Y80840D01*
X-620Y80928D01*
X-509Y81002D01*
X-390Y81061D01*
X-264Y81103D01*
X-133Y81130D01*
X0Y81138D01*
X10000D01*
X10133Y81130D01*
D02*
G37*
G36*
X350133Y61129D02*
X350263Y61104D01*
X350390Y61061D01*
X350509Y61002D01*
X350620Y60928D01*
X350720Y60840D01*
X350808Y60740D01*
X350882Y60629D01*
X350941Y60510D01*
X350984Y60384D01*
X351009Y60253D01*
X351018Y60120D01*
Y44880D01*
X351009Y44747D01*
X350984Y44616D01*
X350941Y44490D01*
X350882Y44371D01*
X350808Y44260D01*
X350720Y44160D01*
X350620Y44072D01*
X350509Y43998D01*
X350390Y43939D01*
X350263Y43896D01*
X350133Y43871D01*
X350000Y43862D01*
X340000D01*
X339867Y43871D01*
X339737Y43896D01*
X339610Y43939D01*
X339491Y43998D01*
X339380Y44072D01*
X339280Y44160D01*
X339192Y44260D01*
X339118Y44371D01*
X339059Y44490D01*
X339016Y44616D01*
X338991Y44747D01*
X338982Y44880D01*
X338982Y60120D01*
X338991Y60253D01*
X339016Y60384D01*
X339059Y60510D01*
X339118Y60629D01*
X339192Y60740D01*
X339280Y60840D01*
X339380Y60928D01*
X339491Y61002D01*
X339610Y61061D01*
X339737Y61104D01*
X339867Y61129D01*
X340000Y61138D01*
X350000D01*
X350133Y61129D01*
D02*
G37*
G36*
X10133D02*
X10264Y61104D01*
X10390Y61061D01*
X10509Y61002D01*
X10620Y60928D01*
X10720Y60840D01*
X10808Y60740D01*
X10882Y60629D01*
X10941Y60510D01*
X10984Y60384D01*
X11010Y60253D01*
X11018Y60120D01*
X11018Y44880D01*
X11010Y44747D01*
X10984Y44616D01*
X10941Y44490D01*
X10882Y44371D01*
X10808Y44260D01*
X10720Y44160D01*
X10620Y44072D01*
X10509Y43998D01*
X10390Y43939D01*
X10264Y43896D01*
X10133Y43871D01*
X10000Y43862D01*
X0D01*
X-133Y43871D01*
X-264Y43896D01*
X-390Y43939D01*
X-509Y43998D01*
X-620Y44072D01*
X-720Y44160D01*
X-808Y44260D01*
X-882Y44371D01*
X-941Y44490D01*
X-984Y44616D01*
X-1010Y44747D01*
X-1018Y44880D01*
Y60120D01*
X-1010Y60253D01*
X-984Y60384D01*
X-941Y60510D01*
X-882Y60629D01*
X-808Y60740D01*
X-720Y60840D01*
X-620Y60928D01*
X-509Y61002D01*
X-390Y61061D01*
X-264Y61104D01*
X-133Y61129D01*
X0Y61138D01*
X10000D01*
X10133Y61129D01*
D02*
G37*
G36*
X350133Y41129D02*
X350263Y41104D01*
X350390Y41061D01*
X350509Y41002D01*
X350620Y40928D01*
X350720Y40840D01*
X350808Y40740D01*
X350882Y40629D01*
X350941Y40510D01*
X350984Y40384D01*
X351009Y40253D01*
X351018Y40120D01*
Y24880D01*
X351009Y24747D01*
X350984Y24616D01*
X350941Y24490D01*
X350882Y24371D01*
X350808Y24260D01*
X350720Y24160D01*
X350620Y24072D01*
X350509Y23998D01*
X350390Y23939D01*
X350263Y23897D01*
X350133Y23870D01*
X350000Y23862D01*
X340000D01*
X339867Y23870D01*
X339737Y23897D01*
X339610Y23939D01*
X339491Y23998D01*
X339380Y24072D01*
X339280Y24160D01*
X339192Y24260D01*
X339118Y24371D01*
X339059Y24490D01*
X339016Y24616D01*
X338991Y24747D01*
X338982Y24880D01*
X338982Y40120D01*
X338991Y40253D01*
X339016Y40384D01*
X339059Y40510D01*
X339118Y40629D01*
X339192Y40740D01*
X339280Y40840D01*
X339380Y40928D01*
X339491Y41002D01*
X339610Y41061D01*
X339737Y41104D01*
X339867Y41129D01*
X340000Y41138D01*
X350000D01*
X350133Y41129D01*
D02*
G37*
G36*
X10133Y41129D02*
X10264Y41104D01*
X10390Y41061D01*
X10509Y41002D01*
X10620Y40928D01*
X10720Y40840D01*
X10808Y40740D01*
X10882Y40629D01*
X10941Y40510D01*
X10984Y40384D01*
X11010Y40253D01*
X11018Y40120D01*
X11018Y24880D01*
X11010Y24747D01*
X10984Y24616D01*
X10941Y24490D01*
X10882Y24371D01*
X10808Y24260D01*
X10720Y24160D01*
X10620Y24072D01*
X10509Y23998D01*
X10390Y23939D01*
X10264Y23897D01*
X10133Y23870D01*
X10000Y23862D01*
X0D01*
X-133Y23870D01*
X-264Y23897D01*
X-390Y23939D01*
X-509Y23998D01*
X-620Y24072D01*
X-720Y24160D01*
X-808Y24260D01*
X-882Y24371D01*
X-941Y24490D01*
X-984Y24616D01*
X-1009Y24747D01*
X-1018Y24880D01*
Y40120D01*
X-1009Y40253D01*
X-984Y40384D01*
X-941Y40510D01*
X-882Y40629D01*
X-808Y40740D01*
X-720Y40840D01*
X-620Y40928D01*
X-509Y41002D01*
X-390Y41061D01*
X-264Y41104D01*
X-133Y41129D01*
X0Y41138D01*
X10000D01*
X10133Y41129D01*
D02*
G37*
G36*
X350133Y21130D02*
X350263Y21103D01*
X350390Y21061D01*
X350509Y21002D01*
X350620Y20928D01*
X350720Y20840D01*
X350808Y20740D01*
X350882Y20629D01*
X350941Y20510D01*
X350984Y20384D01*
X351009Y20253D01*
X351018Y20120D01*
Y4880D01*
X351009Y4747D01*
X350984Y4617D01*
X350941Y4490D01*
X350882Y4371D01*
X350808Y4260D01*
X350720Y4160D01*
X350620Y4072D01*
X350509Y3998D01*
X350390Y3939D01*
X350263Y3896D01*
X350133Y3871D01*
X350000Y3862D01*
X340000D01*
X339867Y3871D01*
X339737Y3896D01*
X339610Y3939D01*
X339491Y3998D01*
X339380Y4072D01*
X339280Y4160D01*
X339192Y4260D01*
X339118Y4371D01*
X339059Y4490D01*
X339016Y4617D01*
X338991Y4747D01*
X338982Y4880D01*
X338982Y20120D01*
X338991Y20253D01*
X339016Y20384D01*
X339059Y20510D01*
X339118Y20629D01*
X339192Y20740D01*
X339280Y20840D01*
X339380Y20928D01*
X339491Y21002D01*
X339610Y21061D01*
X339737Y21103D01*
X339867Y21130D01*
X340000Y21138D01*
X350000D01*
X350133Y21130D01*
D02*
G37*
G36*
X10133D02*
X10264Y21103D01*
X10390Y21061D01*
X10509Y21002D01*
X10620Y20928D01*
X10720Y20840D01*
X10808Y20740D01*
X10882Y20629D01*
X10941Y20510D01*
X10984Y20384D01*
X11010Y20253D01*
X11018Y20120D01*
X11018Y4880D01*
X11010Y4747D01*
X10984Y4617D01*
X10941Y4490D01*
X10882Y4371D01*
X10808Y4260D01*
X10720Y4160D01*
X10620Y4072D01*
X10509Y3998D01*
X10390Y3939D01*
X10264Y3896D01*
X10133Y3871D01*
X10000Y3862D01*
X0D01*
X-133Y3871D01*
X-264Y3896D01*
X-390Y3939D01*
X-509Y3998D01*
X-620Y4072D01*
X-720Y4160D01*
X-808Y4260D01*
X-882Y4371D01*
X-941Y4490D01*
X-984Y4617D01*
X-1010Y4747D01*
X-1018Y4880D01*
Y20120D01*
X-1010Y20253D01*
X-984Y20384D01*
X-941Y20510D01*
X-882Y20629D01*
X-808Y20740D01*
X-720Y20840D01*
X-620Y20928D01*
X-509Y21002D01*
X-390Y21061D01*
X-264Y21103D01*
X-133Y21130D01*
X0Y21138D01*
X10000D01*
X10133Y21130D01*
D02*
G37*
D16*
X212500Y110000D02*
D03*
Y67000D02*
D03*
D22*
X252250Y117500D02*
D03*
X292750D02*
D03*
D23*
X206100Y137500D02*
D03*
X178900D02*
D03*
X288600Y55000D02*
D03*
X261400D02*
D03*
X288600Y32500D02*
D03*
X261400D02*
D03*
X288600Y10000D02*
D03*
X261400D02*
D03*
X41400Y40000D02*
D03*
X68600D02*
D03*
X41400Y17500D02*
D03*
X68600D02*
D03*
D24*
X135000Y85000D02*
D03*
D25*
X162120Y104050D02*
D03*
Y91350D02*
D03*
Y78650D02*
D03*
Y65950D02*
D03*
X107880D02*
D03*
Y78650D02*
D03*
Y91350D02*
D03*
Y104050D02*
D03*
D26*
X50000Y137000D02*
D03*
Y93000D02*
D03*
D27*
X215000Y14600D02*
D03*
Y30400D02*
D03*
X200000Y30400D02*
D03*
Y14600D02*
D03*
X125000Y30400D02*
D03*
Y14600D02*
D03*
X170000Y30400D02*
D03*
Y14600D02*
D03*
X155000Y14600D02*
D03*
Y30400D02*
D03*
X140000Y30400D02*
D03*
Y14600D02*
D03*
X95000Y30400D02*
D03*
Y14600D02*
D03*
X110000Y14600D02*
D03*
Y30400D02*
D03*
D28*
X185000Y31000D02*
D03*
Y14000D02*
D03*
X230000D02*
D03*
Y31000D02*
D03*
M02*
