G04*
G04 #@! TF.GenerationSoftware,Altium Limited,Altium Designer,24.5.2 (23)*
G04*
G04 Layer_Color=8421504*
%FSLAX44Y44*%
%MOMM*%
G71*
G04*
G04 #@! TF.SameCoordinates,B9E64D96-6C6B-41B8-AF92-246256EA7E35*
G04*
G04*
G04 #@! TF.FilePolarity,Positive*
G04*
G01*
G75*
%ADD14R,1.5500X5.6000*%
%ADD15R,1.0700X1.7800*%
%ADD16R,2.3000X2.5000*%
%ADD17R,2.4000X3.1000*%
%ADD18R,1.5250X0.6500*%
%ADD19R,2.1500X2.2000*%
%ADD20R,1.0200X0.9400*%
%ADD21R,1.0000X0.9000*%
G36*
X92500Y182500D02*
Y177500D01*
X90000Y175000D01*
X45000D01*
X42500Y177500D01*
Y182500D01*
X45000Y185000D01*
X90000D01*
X92500Y182500D01*
D02*
G37*
G36*
Y202500D02*
Y197500D01*
X90000Y195000D01*
X45000D01*
X42500Y197500D01*
Y202500D01*
X45000Y205000D01*
X90000D01*
X92500Y202500D01*
D02*
G37*
G36*
Y222500D02*
Y217500D01*
X90000Y215000D01*
X45000D01*
X42500Y217500D01*
Y222500D01*
X45000Y225000D01*
X90000D01*
X92500Y222500D01*
D02*
G37*
G36*
X162500Y182500D02*
Y177500D01*
X160000Y175000D01*
X115000D01*
X112500Y177500D01*
Y182500D01*
X115000Y185000D01*
X160000D01*
X162500Y182500D01*
D02*
G37*
G36*
Y202500D02*
Y197500D01*
X160000Y195000D01*
X115000D01*
X112500Y197500D01*
Y202500D01*
X115000Y205000D01*
X160000D01*
X162500Y202500D01*
D02*
G37*
G36*
Y222500D02*
Y217500D01*
X160000Y215000D01*
X115000D01*
X112500Y217500D01*
Y222500D01*
X115000Y225000D01*
X160000D01*
X162500Y222500D01*
D02*
G37*
G36*
X235000Y202500D02*
Y197500D01*
X232500Y195000D01*
X187500D01*
X185000Y197500D01*
Y202500D01*
X187500Y205000D01*
X232500D01*
X235000Y202500D01*
D02*
G37*
G36*
Y222500D02*
Y217500D01*
X232500Y215000D01*
X187500D01*
X185000Y217500D01*
Y222500D01*
X187500Y225000D01*
X232500D01*
X235000Y222500D01*
D02*
G37*
G36*
X235000Y182500D02*
Y177500D01*
X232500Y175000D01*
X187500D01*
X185000Y177500D01*
Y182500D01*
X187500Y185000D01*
X232500D01*
X235000Y182500D01*
D02*
G37*
G36*
X307500Y182500D02*
Y177500D01*
X305000Y175000D01*
X260000D01*
X257500Y177500D01*
Y182500D01*
X260000Y185000D01*
X305000D01*
X307500Y182500D01*
D02*
G37*
G36*
Y202500D02*
Y197500D01*
X305000Y195000D01*
X260000D01*
X257500Y197500D01*
Y202500D01*
X260000Y205000D01*
X305000D01*
X307500Y202500D01*
D02*
G37*
G36*
Y222500D02*
Y217500D01*
X305000Y215000D01*
X260000D01*
X257500Y217500D01*
Y222500D01*
X260000Y225000D01*
X305000D01*
X307500Y222500D01*
D02*
G37*
D14*
X252250Y117500D02*
D03*
X292750D02*
D03*
D15*
X206100Y137500D02*
D03*
X178900D02*
D03*
X288600Y55000D02*
D03*
X261400D02*
D03*
X288600Y32500D02*
D03*
X261400D02*
D03*
X288600Y10000D02*
D03*
X261400D02*
D03*
X41400Y40000D02*
D03*
X68600D02*
D03*
X41400Y17500D02*
D03*
X68600D02*
D03*
D16*
X212500Y110000D02*
D03*
Y67000D02*
D03*
D17*
X135000Y85000D02*
D03*
D18*
X162120Y104050D02*
D03*
Y91350D02*
D03*
Y78650D02*
D03*
Y65950D02*
D03*
X107880D02*
D03*
Y78650D02*
D03*
Y91350D02*
D03*
Y104050D02*
D03*
D19*
X50000Y137000D02*
D03*
Y93000D02*
D03*
D20*
X215000Y14600D02*
D03*
Y30400D02*
D03*
X200000Y30400D02*
D03*
Y14600D02*
D03*
X125000Y30400D02*
D03*
Y14600D02*
D03*
X170000Y30400D02*
D03*
Y14600D02*
D03*
X155000Y14600D02*
D03*
Y30400D02*
D03*
X140000Y30400D02*
D03*
Y14600D02*
D03*
X95000Y30400D02*
D03*
Y14600D02*
D03*
X110000Y14600D02*
D03*
Y30400D02*
D03*
D21*
X185000Y31000D02*
D03*
Y14000D02*
D03*
X230000D02*
D03*
Y31000D02*
D03*
M02*
