G04*
G04 #@! TF.GenerationSoftware,Altium Limited,Altium Designer,24.5.2 (23)*
G04*
G04 Layer_Color=8388736*
%FSLAX44Y44*%
%MOMM*%
G71*
G04*
G04 #@! TF.SameCoordinates,71DE77E4-8B13-49D2-B116-840717ED03C6*
G04*
G04*
G04 #@! TF.FilePolarity,Negative*
G04*
G01*
G75*
%ADD17R,2.3000X2.5000*%
%ADD23R,2.6032X3.3032*%
%ADD24R,1.7282X0.8532*%
%ADD25R,2.3532X2.4032*%
%ADD26R,1.2732X1.9832*%
%ADD27R,1.2232X1.1432*%
%ADD28R,1.2032X1.1032*%
%ADD29R,1.7532X5.8032*%
%ADD30R,1.1032X1.2032*%
G36*
X307753Y241010D02*
X307883Y240984D01*
X308010Y240941D01*
X308129Y240882D01*
X308240Y240808D01*
X308340Y240720D01*
X308428Y240620D01*
X308502Y240509D01*
X308561Y240390D01*
X308603Y240264D01*
X308629Y240133D01*
X308638Y240000D01*
Y230000D01*
X308629Y229867D01*
X308603Y229736D01*
X308561Y229610D01*
X308502Y229491D01*
X308428Y229380D01*
X308340Y229280D01*
X308240Y229192D01*
X308129Y229118D01*
X308010Y229059D01*
X307883Y229016D01*
X307753Y228990D01*
X307620Y228982D01*
X292380Y228982D01*
X292247Y228991D01*
X292117Y229016D01*
X291990Y229059D01*
X291871Y229118D01*
X291760Y229192D01*
X291660Y229280D01*
X291572Y229380D01*
X291498Y229491D01*
X291439Y229610D01*
X291397Y229736D01*
X291371Y229867D01*
X291362Y230000D01*
Y240000D01*
X291371Y240133D01*
X291397Y240264D01*
X291439Y240390D01*
X291498Y240509D01*
X291572Y240620D01*
X291660Y240720D01*
X291760Y240808D01*
X291871Y240882D01*
X291990Y240941D01*
X292117Y240984D01*
X292247Y241010D01*
X292380Y241018D01*
X307620D01*
X307753Y241010D01*
D02*
G37*
G36*
X267753D02*
X267883Y240984D01*
X268010Y240941D01*
X268129Y240882D01*
X268240Y240808D01*
X268340Y240720D01*
X268428Y240620D01*
X268502Y240509D01*
X268561Y240390D01*
X268603Y240264D01*
X268629Y240133D01*
X268638Y240000D01*
Y230000D01*
X268629Y229867D01*
X268603Y229736D01*
X268561Y229610D01*
X268502Y229491D01*
X268428Y229380D01*
X268340Y229280D01*
X268240Y229192D01*
X268129Y229118D01*
X268010Y229059D01*
X267883Y229016D01*
X267753Y228990D01*
X267620Y228982D01*
X252380Y228982D01*
X252247Y228991D01*
X252117Y229016D01*
X251990Y229059D01*
X251871Y229118D01*
X251760Y229192D01*
X251660Y229280D01*
X251572Y229380D01*
X251498Y229491D01*
X251439Y229610D01*
X251397Y229736D01*
X251371Y229867D01*
X251362Y230000D01*
Y240000D01*
X251371Y240133D01*
X251397Y240264D01*
X251439Y240390D01*
X251498Y240509D01*
X251572Y240620D01*
X251660Y240720D01*
X251760Y240808D01*
X251871Y240882D01*
X251990Y240941D01*
X252117Y240984D01*
X252247Y241010D01*
X252380Y241018D01*
X267620D01*
X267753Y241010D01*
D02*
G37*
G36*
X247753D02*
X247883Y240984D01*
X248010Y240941D01*
X248129Y240882D01*
X248240Y240808D01*
X248340Y240720D01*
X248428Y240620D01*
X248502Y240509D01*
X248561Y240390D01*
X248603Y240264D01*
X248629Y240133D01*
X248638Y240000D01*
Y230000D01*
X248629Y229867D01*
X248603Y229736D01*
X248561Y229610D01*
X248502Y229491D01*
X248428Y229380D01*
X248340Y229280D01*
X248240Y229192D01*
X248129Y229118D01*
X248010Y229059D01*
X247883Y229016D01*
X247753Y228990D01*
X247620Y228982D01*
X232380Y228982D01*
X232247Y228991D01*
X232117Y229016D01*
X231990Y229059D01*
X231871Y229118D01*
X231760Y229192D01*
X231660Y229280D01*
X231572Y229380D01*
X231498Y229491D01*
X231439Y229610D01*
X231397Y229736D01*
X231371Y229867D01*
X231362Y230000D01*
Y240000D01*
X231371Y240133D01*
X231397Y240264D01*
X231439Y240390D01*
X231498Y240509D01*
X231572Y240620D01*
X231660Y240720D01*
X231760Y240808D01*
X231871Y240882D01*
X231990Y240941D01*
X232117Y240984D01*
X232247Y241010D01*
X232380Y241018D01*
X247620D01*
X247753Y241010D01*
D02*
G37*
G36*
X227753D02*
X227883Y240984D01*
X228010Y240941D01*
X228129Y240882D01*
X228240Y240808D01*
X228340Y240720D01*
X228428Y240620D01*
X228502Y240509D01*
X228561Y240390D01*
X228603Y240264D01*
X228629Y240133D01*
X228638Y240000D01*
Y230000D01*
X228629Y229867D01*
X228603Y229736D01*
X228561Y229610D01*
X228502Y229491D01*
X228428Y229380D01*
X228340Y229280D01*
X228240Y229192D01*
X228129Y229118D01*
X228010Y229059D01*
X227883Y229016D01*
X227753Y228990D01*
X227620Y228982D01*
X212380Y228982D01*
X212247Y228991D01*
X212117Y229016D01*
X211990Y229059D01*
X211871Y229118D01*
X211760Y229192D01*
X211660Y229280D01*
X211572Y229380D01*
X211498Y229491D01*
X211439Y229610D01*
X211397Y229736D01*
X211371Y229867D01*
X211362Y230000D01*
Y240000D01*
X211371Y240133D01*
X211397Y240264D01*
X211439Y240390D01*
X211498Y240509D01*
X211572Y240620D01*
X211660Y240720D01*
X211760Y240808D01*
X211871Y240882D01*
X211990Y240941D01*
X212117Y240984D01*
X212247Y241010D01*
X212380Y241018D01*
X227620D01*
X227753Y241010D01*
D02*
G37*
G36*
X207753D02*
X207883Y240984D01*
X208010Y240941D01*
X208129Y240882D01*
X208240Y240808D01*
X208340Y240720D01*
X208428Y240620D01*
X208502Y240509D01*
X208561Y240390D01*
X208603Y240264D01*
X208629Y240133D01*
X208638Y240000D01*
Y230000D01*
X208629Y229867D01*
X208603Y229736D01*
X208561Y229610D01*
X208502Y229491D01*
X208428Y229380D01*
X208340Y229280D01*
X208240Y229192D01*
X208129Y229118D01*
X208010Y229059D01*
X207883Y229016D01*
X207753Y228990D01*
X207620Y228982D01*
X192380Y228982D01*
X192247Y228991D01*
X192117Y229016D01*
X191990Y229059D01*
X191871Y229118D01*
X191760Y229192D01*
X191660Y229280D01*
X191572Y229380D01*
X191498Y229491D01*
X191439Y229610D01*
X191397Y229736D01*
X191371Y229867D01*
X191362Y230000D01*
Y240000D01*
X191371Y240133D01*
X191397Y240264D01*
X191439Y240390D01*
X191498Y240509D01*
X191572Y240620D01*
X191660Y240720D01*
X191760Y240808D01*
X191871Y240882D01*
X191990Y240941D01*
X192117Y240984D01*
X192247Y241010D01*
X192380Y241018D01*
X207620D01*
X207753Y241010D01*
D02*
G37*
G36*
X187753D02*
X187883Y240984D01*
X188010Y240941D01*
X188129Y240882D01*
X188240Y240808D01*
X188340Y240720D01*
X188428Y240620D01*
X188502Y240509D01*
X188561Y240390D01*
X188603Y240264D01*
X188629Y240133D01*
X188638Y240000D01*
Y230000D01*
X188629Y229867D01*
X188603Y229736D01*
X188561Y229610D01*
X188502Y229491D01*
X188428Y229380D01*
X188340Y229280D01*
X188240Y229192D01*
X188129Y229118D01*
X188010Y229059D01*
X187883Y229016D01*
X187753Y228990D01*
X187620Y228982D01*
X172380Y228982D01*
X172247Y228991D01*
X172117Y229016D01*
X171990Y229059D01*
X171871Y229118D01*
X171760Y229192D01*
X171660Y229280D01*
X171572Y229380D01*
X171498Y229491D01*
X171439Y229610D01*
X171397Y229736D01*
X171371Y229867D01*
X171362Y230000D01*
Y240000D01*
X171371Y240133D01*
X171397Y240264D01*
X171439Y240390D01*
X171498Y240509D01*
X171572Y240620D01*
X171660Y240720D01*
X171760Y240808D01*
X171871Y240882D01*
X171990Y240941D01*
X172117Y240984D01*
X172247Y241010D01*
X172380Y241018D01*
X187620D01*
X187753Y241010D01*
D02*
G37*
G36*
X167753D02*
X167883Y240984D01*
X168010Y240941D01*
X168129Y240882D01*
X168240Y240808D01*
X168340Y240720D01*
X168428Y240620D01*
X168502Y240509D01*
X168561Y240390D01*
X168603Y240264D01*
X168629Y240133D01*
X168638Y240000D01*
Y230000D01*
X168629Y229867D01*
X168603Y229736D01*
X168561Y229610D01*
X168502Y229491D01*
X168428Y229380D01*
X168340Y229280D01*
X168240Y229192D01*
X168129Y229118D01*
X168010Y229059D01*
X167883Y229016D01*
X167753Y228990D01*
X167620Y228982D01*
X152380Y228982D01*
X152247Y228991D01*
X152116Y229016D01*
X151990Y229059D01*
X151871Y229118D01*
X151760Y229192D01*
X151660Y229280D01*
X151572Y229380D01*
X151498Y229491D01*
X151439Y229610D01*
X151397Y229736D01*
X151370Y229867D01*
X151362Y230000D01*
Y240000D01*
X151370Y240133D01*
X151397Y240264D01*
X151439Y240390D01*
X151498Y240509D01*
X151572Y240620D01*
X151660Y240720D01*
X151760Y240808D01*
X151871Y240882D01*
X151990Y240941D01*
X152116Y240984D01*
X152247Y241010D01*
X152380Y241018D01*
X167620D01*
X167753Y241010D01*
D02*
G37*
G36*
X147753D02*
X147884Y240984D01*
X148010Y240941D01*
X148129Y240882D01*
X148240Y240808D01*
X148340Y240720D01*
X148428Y240620D01*
X148502Y240509D01*
X148561Y240390D01*
X148603Y240264D01*
X148630Y240133D01*
X148638Y240000D01*
Y230000D01*
X148630Y229867D01*
X148603Y229736D01*
X148561Y229610D01*
X148502Y229491D01*
X148428Y229380D01*
X148340Y229280D01*
X148240Y229192D01*
X148129Y229118D01*
X148010Y229059D01*
X147884Y229016D01*
X147753Y228990D01*
X147620Y228982D01*
X132380Y228982D01*
X132247Y228991D01*
X132116Y229016D01*
X131990Y229059D01*
X131871Y229118D01*
X131760Y229192D01*
X131660Y229280D01*
X131572Y229380D01*
X131498Y229491D01*
X131439Y229610D01*
X131397Y229736D01*
X131370Y229867D01*
X131362Y230000D01*
Y240000D01*
X131370Y240133D01*
X131397Y240264D01*
X131439Y240390D01*
X131498Y240509D01*
X131572Y240620D01*
X131660Y240720D01*
X131760Y240808D01*
X131871Y240882D01*
X131990Y240941D01*
X132116Y240984D01*
X132247Y241010D01*
X132380Y241018D01*
X147620D01*
X147753Y241010D01*
D02*
G37*
G36*
X127753D02*
X127884Y240984D01*
X128010Y240941D01*
X128129Y240882D01*
X128240Y240808D01*
X128340Y240720D01*
X128428Y240620D01*
X128502Y240509D01*
X128561Y240390D01*
X128603Y240264D01*
X128630Y240133D01*
X128638Y240000D01*
Y230000D01*
X128630Y229867D01*
X128603Y229736D01*
X128561Y229610D01*
X128502Y229491D01*
X128428Y229380D01*
X128340Y229280D01*
X128240Y229192D01*
X128129Y229118D01*
X128010Y229059D01*
X127884Y229016D01*
X127753Y228990D01*
X127620Y228982D01*
X112380Y228982D01*
X112247Y228991D01*
X112116Y229016D01*
X111990Y229059D01*
X111871Y229118D01*
X111760Y229192D01*
X111660Y229280D01*
X111572Y229380D01*
X111498Y229491D01*
X111439Y229610D01*
X111397Y229736D01*
X111370Y229867D01*
X111362Y230000D01*
Y240000D01*
X111370Y240133D01*
X111397Y240264D01*
X111439Y240390D01*
X111498Y240509D01*
X111572Y240620D01*
X111660Y240720D01*
X111760Y240808D01*
X111871Y240882D01*
X111990Y240941D01*
X112116Y240984D01*
X112247Y241010D01*
X112380Y241018D01*
X127620D01*
X127753Y241010D01*
D02*
G37*
G36*
X107753D02*
X107884Y240984D01*
X108010Y240941D01*
X108129Y240882D01*
X108240Y240808D01*
X108340Y240720D01*
X108428Y240620D01*
X108502Y240509D01*
X108561Y240390D01*
X108603Y240264D01*
X108630Y240133D01*
X108638Y240000D01*
Y230000D01*
X108630Y229867D01*
X108603Y229736D01*
X108561Y229610D01*
X108502Y229491D01*
X108428Y229380D01*
X108340Y229280D01*
X108240Y229192D01*
X108129Y229118D01*
X108010Y229059D01*
X107884Y229016D01*
X107753Y228990D01*
X107620Y228982D01*
X92380Y228982D01*
X92247Y228991D01*
X92116Y229016D01*
X91990Y229059D01*
X91871Y229118D01*
X91760Y229192D01*
X91660Y229280D01*
X91572Y229380D01*
X91498Y229491D01*
X91439Y229610D01*
X91397Y229736D01*
X91370Y229867D01*
X91362Y230000D01*
Y240000D01*
X91370Y240133D01*
X91397Y240264D01*
X91439Y240390D01*
X91498Y240509D01*
X91572Y240620D01*
X91660Y240720D01*
X91760Y240808D01*
X91871Y240882D01*
X91990Y240941D01*
X92116Y240984D01*
X92247Y241010D01*
X92380Y241018D01*
X107620D01*
X107753Y241010D01*
D02*
G37*
G36*
X47753D02*
X47884Y240984D01*
X48010Y240941D01*
X48129Y240882D01*
X48240Y240808D01*
X48340Y240720D01*
X48428Y240620D01*
X48502Y240509D01*
X48561Y240390D01*
X48604Y240264D01*
X48629Y240133D01*
X48638Y240000D01*
Y230000D01*
X48629Y229867D01*
X48604Y229736D01*
X48561Y229610D01*
X48502Y229491D01*
X48428Y229380D01*
X48340Y229280D01*
X48240Y229192D01*
X48129Y229118D01*
X48010Y229059D01*
X47884Y229016D01*
X47753Y228990D01*
X47620Y228982D01*
X32380Y228982D01*
X32247Y228991D01*
X32116Y229016D01*
X31990Y229059D01*
X31871Y229118D01*
X31760Y229192D01*
X31660Y229280D01*
X31572Y229380D01*
X31498Y229491D01*
X31439Y229610D01*
X31397Y229736D01*
X31370Y229867D01*
X31362Y230000D01*
Y240000D01*
X31370Y240133D01*
X31397Y240264D01*
X31439Y240390D01*
X31498Y240509D01*
X31572Y240620D01*
X31660Y240720D01*
X31760Y240808D01*
X31871Y240882D01*
X31990Y240941D01*
X32116Y240984D01*
X32247Y241010D01*
X32380Y241018D01*
X47620D01*
X47753Y241010D01*
D02*
G37*
G36*
X27753D02*
X27884Y240984D01*
X28010Y240941D01*
X28129Y240882D01*
X28240Y240808D01*
X28340Y240720D01*
X28428Y240620D01*
X28502Y240509D01*
X28561Y240390D01*
X28603Y240264D01*
X28630Y240133D01*
X28638Y240000D01*
Y230000D01*
X28630Y229867D01*
X28603Y229736D01*
X28561Y229610D01*
X28502Y229491D01*
X28428Y229380D01*
X28340Y229280D01*
X28240Y229192D01*
X28129Y229118D01*
X28010Y229059D01*
X27884Y229016D01*
X27753Y228990D01*
X27620Y228982D01*
X12380Y228982D01*
X12247Y228991D01*
X12117Y229016D01*
X11990Y229059D01*
X11871Y229118D01*
X11760Y229192D01*
X11660Y229280D01*
X11572Y229380D01*
X11498Y229491D01*
X11439Y229610D01*
X11396Y229736D01*
X11371Y229867D01*
X11362Y230000D01*
Y240000D01*
X11371Y240133D01*
X11396Y240264D01*
X11439Y240390D01*
X11498Y240509D01*
X11572Y240620D01*
X11660Y240720D01*
X11760Y240808D01*
X11871Y240882D01*
X11990Y240941D01*
X12117Y240984D01*
X12247Y241010D01*
X12380Y241018D01*
X27620D01*
X27753Y241010D01*
D02*
G37*
G36*
X287753Y241009D02*
X287883Y240984D01*
X288010Y240941D01*
X288129Y240882D01*
X288240Y240808D01*
X288340Y240720D01*
X288428Y240620D01*
X288502Y240509D01*
X288561Y240390D01*
X288603Y240264D01*
X288629Y240133D01*
X288638Y240000D01*
Y230000D01*
X288629Y229867D01*
X288603Y229736D01*
X288561Y229610D01*
X288502Y229491D01*
X288428Y229380D01*
X288340Y229280D01*
X288240Y229192D01*
X288129Y229118D01*
X288010Y229059D01*
X287883Y229016D01*
X287753Y228990D01*
X287620Y228982D01*
X272380Y228982D01*
X272247Y228990D01*
X272116Y229016D01*
X271990Y229059D01*
X271871Y229118D01*
X271760Y229192D01*
X271660Y229280D01*
X271572Y229380D01*
X271498Y229491D01*
X271439Y229610D01*
X271397Y229736D01*
X271371Y229867D01*
X271362Y230000D01*
Y240000D01*
X271371Y240133D01*
X271397Y240264D01*
X271439Y240390D01*
X271498Y240509D01*
X271572Y240620D01*
X271660Y240720D01*
X271760Y240808D01*
X271871Y240882D01*
X271990Y240941D01*
X272116Y240984D01*
X272247Y241009D01*
X272380Y241018D01*
X287620D01*
X287753Y241009D01*
D02*
G37*
G36*
X87753D02*
X87884Y240984D01*
X88010Y240941D01*
X88129Y240882D01*
X88240Y240808D01*
X88340Y240720D01*
X88428Y240620D01*
X88502Y240509D01*
X88561Y240390D01*
X88603Y240264D01*
X88630Y240133D01*
X88638Y240000D01*
Y230000D01*
X88630Y229867D01*
X88603Y229736D01*
X88561Y229610D01*
X88502Y229491D01*
X88428Y229380D01*
X88340Y229280D01*
X88240Y229192D01*
X88129Y229118D01*
X88010Y229059D01*
X87884Y229016D01*
X87753Y228990D01*
X87620Y228982D01*
X72380Y228982D01*
X72247Y228990D01*
X72116Y229016D01*
X71990Y229059D01*
X71871Y229118D01*
X71760Y229192D01*
X71660Y229280D01*
X71572Y229380D01*
X71498Y229491D01*
X71439Y229610D01*
X71396Y229736D01*
X71371Y229867D01*
X71362Y230000D01*
Y240000D01*
X71371Y240133D01*
X71396Y240264D01*
X71439Y240390D01*
X71498Y240509D01*
X71572Y240620D01*
X71660Y240720D01*
X71760Y240808D01*
X71871Y240882D01*
X71990Y240941D01*
X72116Y240984D01*
X72247Y241009D01*
X72380Y241018D01*
X87620D01*
X87753Y241009D01*
D02*
G37*
G36*
X67753D02*
X67884Y240984D01*
X68010Y240941D01*
X68129Y240882D01*
X68240Y240808D01*
X68340Y240720D01*
X68428Y240620D01*
X68502Y240509D01*
X68561Y240390D01*
X68604Y240264D01*
X68629Y240133D01*
X68638Y240000D01*
Y230000D01*
X68629Y229867D01*
X68604Y229736D01*
X68561Y229610D01*
X68502Y229491D01*
X68428Y229380D01*
X68340Y229280D01*
X68240Y229192D01*
X68129Y229118D01*
X68010Y229059D01*
X67884Y229016D01*
X67753Y228990D01*
X67620Y228982D01*
X52380Y228982D01*
X52247Y228990D01*
X52116Y229016D01*
X51990Y229059D01*
X51871Y229118D01*
X51760Y229192D01*
X51660Y229280D01*
X51572Y229380D01*
X51498Y229491D01*
X51439Y229610D01*
X51396Y229736D01*
X51371Y229867D01*
X51362Y230000D01*
Y240000D01*
X51371Y240133D01*
X51396Y240264D01*
X51439Y240390D01*
X51498Y240509D01*
X51572Y240620D01*
X51660Y240720D01*
X51760Y240808D01*
X51871Y240882D01*
X51990Y240941D01*
X52116Y240984D01*
X52247Y241009D01*
X52380Y241018D01*
X67620D01*
X67753Y241009D01*
D02*
G37*
G36*
X320133Y218629D02*
X320263Y218603D01*
X320390Y218561D01*
X320509Y218502D01*
X320620Y218428D01*
X320720Y218340D01*
X320808Y218240D01*
X320882Y218129D01*
X320941Y218010D01*
X320984Y217883D01*
X321009Y217753D01*
X321018Y217620D01*
Y202380D01*
X321009Y202247D01*
X320984Y202117D01*
X320941Y201990D01*
X320882Y201871D01*
X320808Y201760D01*
X320720Y201660D01*
X320620Y201572D01*
X320509Y201498D01*
X320390Y201439D01*
X320263Y201397D01*
X320133Y201371D01*
X320000Y201362D01*
X310000D01*
X309867Y201371D01*
X309736Y201397D01*
X309610Y201439D01*
X309491Y201498D01*
X309380Y201572D01*
X309280Y201660D01*
X309192Y201760D01*
X309118Y201871D01*
X309059Y201990D01*
X309016Y202117D01*
X308990Y202247D01*
X308982Y202380D01*
X308982Y217620D01*
X308990Y217753D01*
X309016Y217883D01*
X309059Y218010D01*
X309118Y218129D01*
X309192Y218240D01*
X309280Y218340D01*
X309380Y218428D01*
X309491Y218502D01*
X309610Y218561D01*
X309736Y218603D01*
X309867Y218629D01*
X310000Y218638D01*
X320000D01*
X320133Y218629D01*
D02*
G37*
G36*
X10133D02*
X10264Y218603D01*
X10390Y218561D01*
X10509Y218502D01*
X10620Y218428D01*
X10720Y218340D01*
X10808Y218240D01*
X10882Y218129D01*
X10941Y218010D01*
X10984Y217883D01*
X11010Y217753D01*
X11018Y217620D01*
X11018Y202380D01*
X11010Y202247D01*
X10984Y202117D01*
X10941Y201990D01*
X10882Y201871D01*
X10808Y201760D01*
X10720Y201660D01*
X10620Y201572D01*
X10509Y201498D01*
X10390Y201439D01*
X10264Y201397D01*
X10133Y201371D01*
X10000Y201362D01*
X0D01*
X-133Y201371D01*
X-264Y201397D01*
X-390Y201439D01*
X-509Y201498D01*
X-620Y201572D01*
X-720Y201660D01*
X-808Y201760D01*
X-882Y201871D01*
X-941Y201990D01*
X-984Y202117D01*
X-1010Y202247D01*
X-1018Y202380D01*
Y217620D01*
X-1010Y217753D01*
X-984Y217883D01*
X-941Y218010D01*
X-882Y218129D01*
X-808Y218240D01*
X-720Y218340D01*
X-620Y218428D01*
X-509Y218502D01*
X-390Y218561D01*
X-264Y218603D01*
X-133Y218629D01*
X0Y218638D01*
X10000D01*
X10133Y218629D01*
D02*
G37*
G36*
X292633Y206010D02*
X292764Y205984D01*
X292890Y205941D01*
X293009Y205882D01*
X293120Y205808D01*
X293220Y205720D01*
X295720Y203220D01*
X295808Y203120D01*
X295882Y203009D01*
X295941Y202890D01*
X295984Y202764D01*
X296010Y202633D01*
X296018Y202500D01*
Y197500D01*
X296010Y197367D01*
X295984Y197236D01*
X295941Y197110D01*
X295882Y196991D01*
X295808Y196880D01*
X295720Y196780D01*
X293220Y194280D01*
X293120Y194192D01*
X293009Y194118D01*
X292890Y194059D01*
X292764Y194016D01*
X292633Y193990D01*
X292500Y193982D01*
X247500D01*
X247367Y193990D01*
X247236Y194016D01*
X247110Y194059D01*
X246991Y194118D01*
X246880Y194192D01*
X246780Y194280D01*
X244280Y196780D01*
X244192Y196880D01*
X244118Y196991D01*
X244059Y197110D01*
X244016Y197236D01*
X243990Y197367D01*
X243982Y197500D01*
Y202500D01*
X243990Y202633D01*
X244016Y202764D01*
X244059Y202890D01*
X244118Y203009D01*
X244192Y203120D01*
X244280Y203220D01*
X246780Y205720D01*
X246880Y205808D01*
X246991Y205882D01*
X247110Y205941D01*
X247236Y205984D01*
X247367Y206010D01*
X247500Y206018D01*
X292500D01*
X292633Y206010D01*
D02*
G37*
G36*
X232633D02*
X232764Y205984D01*
X232890Y205941D01*
X233009Y205882D01*
X233120Y205808D01*
X233220Y205720D01*
X235720Y203220D01*
X235808Y203120D01*
X235882Y203009D01*
X235941Y202890D01*
X235984Y202764D01*
X236010Y202633D01*
X236018Y202500D01*
Y197500D01*
X236010Y197367D01*
X235984Y197236D01*
X235941Y197110D01*
X235882Y196991D01*
X235808Y196880D01*
X235720Y196780D01*
X233220Y194280D01*
X233120Y194192D01*
X233009Y194118D01*
X232890Y194059D01*
X232764Y194016D01*
X232633Y193990D01*
X232500Y193982D01*
X187500D01*
X187367Y193990D01*
X187236Y194016D01*
X187110Y194059D01*
X186991Y194118D01*
X186880Y194192D01*
X186780Y194280D01*
X184280Y196780D01*
X184192Y196880D01*
X184118Y196991D01*
X184059Y197110D01*
X184016Y197236D01*
X183990Y197367D01*
X183982Y197500D01*
Y202500D01*
X183990Y202633D01*
X184016Y202764D01*
X184059Y202890D01*
X184118Y203009D01*
X184192Y203120D01*
X184280Y203220D01*
X186780Y205720D01*
X186880Y205808D01*
X186991Y205882D01*
X187110Y205941D01*
X187236Y205984D01*
X187367Y206010D01*
X187500Y206018D01*
X232500D01*
X232633Y206010D01*
D02*
G37*
G36*
X157633D02*
X157764Y205984D01*
X157890Y205941D01*
X158009Y205882D01*
X158120Y205808D01*
X158220Y205720D01*
X160720Y203220D01*
X160808Y203120D01*
X160882Y203009D01*
X160941Y202890D01*
X160984Y202764D01*
X161010Y202633D01*
X161018Y202500D01*
Y197500D01*
X161010Y197367D01*
X160984Y197236D01*
X160941Y197110D01*
X160882Y196991D01*
X160808Y196880D01*
X160720Y196780D01*
X158220Y194280D01*
X158120Y194192D01*
X158009Y194118D01*
X157890Y194059D01*
X157764Y194016D01*
X157633Y193990D01*
X157500Y193982D01*
X112500D01*
X112367Y193990D01*
X112236Y194016D01*
X112110Y194059D01*
X111991Y194118D01*
X111880Y194192D01*
X111780Y194280D01*
X109280Y196780D01*
X109192Y196880D01*
X109118Y196991D01*
X109059Y197110D01*
X109017Y197236D01*
X108990Y197367D01*
X108982Y197500D01*
Y202500D01*
X108990Y202633D01*
X109017Y202764D01*
X109059Y202890D01*
X109118Y203009D01*
X109192Y203120D01*
X109280Y203220D01*
X111780Y205720D01*
X111880Y205808D01*
X111991Y205882D01*
X112110Y205941D01*
X112236Y205984D01*
X112367Y206010D01*
X112500Y206018D01*
X157500D01*
X157633Y206010D01*
D02*
G37*
G36*
X92633D02*
X92764Y205984D01*
X92890Y205941D01*
X93009Y205882D01*
X93120Y205808D01*
X93220Y205720D01*
X95720Y203220D01*
X95808Y203120D01*
X95882Y203009D01*
X95941Y202890D01*
X95983Y202764D01*
X96010Y202633D01*
X96018Y202500D01*
Y197500D01*
X96010Y197367D01*
X95983Y197236D01*
X95941Y197110D01*
X95882Y196991D01*
X95808Y196880D01*
X95720Y196780D01*
X93220Y194280D01*
X93120Y194192D01*
X93009Y194118D01*
X92890Y194059D01*
X92764Y194016D01*
X92633Y193990D01*
X92500Y193982D01*
X47500D01*
X47367Y193990D01*
X47236Y194016D01*
X47110Y194059D01*
X46991Y194118D01*
X46880Y194192D01*
X46780Y194280D01*
X44280Y196780D01*
X44192Y196880D01*
X44118Y196991D01*
X44059Y197110D01*
X44016Y197236D01*
X43991Y197367D01*
X43982Y197500D01*
Y202500D01*
X43991Y202633D01*
X44016Y202764D01*
X44059Y202890D01*
X44118Y203009D01*
X44192Y203120D01*
X44280Y203220D01*
X46780Y205720D01*
X46880Y205808D01*
X46991Y205882D01*
X47110Y205941D01*
X47236Y205984D01*
X47367Y206010D01*
X47500Y206018D01*
X92500D01*
X92633Y206010D01*
D02*
G37*
G36*
X320133Y198629D02*
X320263Y198603D01*
X320390Y198561D01*
X320509Y198502D01*
X320620Y198428D01*
X320720Y198340D01*
X320808Y198240D01*
X320882Y198129D01*
X320941Y198010D01*
X320984Y197883D01*
X321009Y197753D01*
X321018Y197620D01*
Y182380D01*
X321009Y182247D01*
X320984Y182117D01*
X320941Y181990D01*
X320882Y181871D01*
X320808Y181760D01*
X320720Y181660D01*
X320620Y181572D01*
X320509Y181498D01*
X320390Y181439D01*
X320263Y181397D01*
X320133Y181371D01*
X320000Y181362D01*
X310000D01*
X309867Y181371D01*
X309736Y181397D01*
X309610Y181439D01*
X309491Y181498D01*
X309380Y181572D01*
X309280Y181660D01*
X309192Y181760D01*
X309118Y181871D01*
X309059Y181990D01*
X309016Y182117D01*
X308990Y182247D01*
X308982Y182380D01*
X308982Y197620D01*
X308990Y197753D01*
X309016Y197883D01*
X309059Y198010D01*
X309118Y198129D01*
X309192Y198240D01*
X309280Y198340D01*
X309380Y198428D01*
X309491Y198502D01*
X309610Y198561D01*
X309736Y198603D01*
X309867Y198629D01*
X310000Y198638D01*
X320000D01*
X320133Y198629D01*
D02*
G37*
G36*
X10133D02*
X10264Y198603D01*
X10390Y198561D01*
X10509Y198502D01*
X10620Y198428D01*
X10720Y198340D01*
X10808Y198240D01*
X10882Y198129D01*
X10941Y198010D01*
X10984Y197883D01*
X11010Y197753D01*
X11018Y197620D01*
X11018Y182380D01*
X11010Y182247D01*
X10984Y182117D01*
X10941Y181990D01*
X10882Y181871D01*
X10808Y181760D01*
X10720Y181660D01*
X10620Y181572D01*
X10509Y181498D01*
X10390Y181439D01*
X10264Y181397D01*
X10133Y181371D01*
X10000Y181362D01*
X0D01*
X-133Y181371D01*
X-264Y181397D01*
X-390Y181439D01*
X-509Y181498D01*
X-620Y181572D01*
X-720Y181660D01*
X-808Y181760D01*
X-882Y181871D01*
X-941Y181990D01*
X-984Y182117D01*
X-1010Y182247D01*
X-1018Y182380D01*
Y197620D01*
X-1010Y197753D01*
X-984Y197883D01*
X-941Y198010D01*
X-882Y198129D01*
X-808Y198240D01*
X-720Y198340D01*
X-620Y198428D01*
X-509Y198502D01*
X-390Y198561D01*
X-264Y198603D01*
X-133Y198629D01*
X0Y198638D01*
X10000D01*
X10133Y198629D01*
D02*
G37*
G36*
X292633Y186010D02*
X292764Y185984D01*
X292890Y185941D01*
X293009Y185882D01*
X293120Y185808D01*
X293220Y185720D01*
X295720Y183220D01*
X295808Y183120D01*
X295882Y183009D01*
X295941Y182890D01*
X295984Y182764D01*
X296010Y182633D01*
X296018Y182500D01*
Y177500D01*
X296010Y177367D01*
X295984Y177236D01*
X295941Y177110D01*
X295882Y176991D01*
X295808Y176880D01*
X295720Y176780D01*
X293220Y174280D01*
X293120Y174192D01*
X293009Y174118D01*
X292890Y174059D01*
X292764Y174016D01*
X292633Y173990D01*
X292500Y173982D01*
X247500D01*
X247367Y173990D01*
X247236Y174016D01*
X247110Y174059D01*
X246991Y174118D01*
X246880Y174192D01*
X246780Y174280D01*
X244280Y176780D01*
X244192Y176880D01*
X244118Y176991D01*
X244059Y177110D01*
X244016Y177236D01*
X243990Y177367D01*
X243982Y177500D01*
Y182500D01*
X243990Y182633D01*
X244016Y182764D01*
X244059Y182890D01*
X244118Y183009D01*
X244192Y183120D01*
X244280Y183220D01*
X246780Y185720D01*
X246880Y185808D01*
X246991Y185882D01*
X247110Y185941D01*
X247236Y185984D01*
X247367Y186010D01*
X247500Y186018D01*
X292500D01*
X292633Y186010D01*
D02*
G37*
G36*
X232633D02*
X232764Y185984D01*
X232890Y185941D01*
X233009Y185882D01*
X233120Y185808D01*
X233220Y185720D01*
X235720Y183220D01*
X235808Y183120D01*
X235882Y183009D01*
X235941Y182890D01*
X235984Y182764D01*
X236010Y182633D01*
X236018Y182500D01*
Y177500D01*
X236010Y177367D01*
X235984Y177236D01*
X235941Y177110D01*
X235882Y176991D01*
X235808Y176880D01*
X235720Y176780D01*
X233220Y174280D01*
X233120Y174192D01*
X233009Y174118D01*
X232890Y174059D01*
X232764Y174016D01*
X232633Y173990D01*
X232500Y173982D01*
X187500D01*
X187367Y173990D01*
X187236Y174016D01*
X187110Y174059D01*
X186991Y174118D01*
X186880Y174192D01*
X186780Y174280D01*
X184280Y176780D01*
X184192Y176880D01*
X184118Y176991D01*
X184059Y177110D01*
X184016Y177236D01*
X183990Y177367D01*
X183982Y177500D01*
Y182500D01*
X183990Y182633D01*
X184016Y182764D01*
X184059Y182890D01*
X184118Y183009D01*
X184192Y183120D01*
X184280Y183220D01*
X186780Y185720D01*
X186880Y185808D01*
X186991Y185882D01*
X187110Y185941D01*
X187236Y185984D01*
X187367Y186010D01*
X187500Y186018D01*
X232500D01*
X232633Y186010D01*
D02*
G37*
G36*
X157633D02*
X157764Y185984D01*
X157890Y185941D01*
X158009Y185882D01*
X158120Y185808D01*
X158220Y185720D01*
X160720Y183220D01*
X160808Y183120D01*
X160882Y183009D01*
X160941Y182890D01*
X160984Y182764D01*
X161010Y182633D01*
X161018Y182500D01*
Y177500D01*
X161010Y177367D01*
X160984Y177236D01*
X160941Y177110D01*
X160882Y176991D01*
X160808Y176880D01*
X160720Y176780D01*
X158220Y174280D01*
X158120Y174192D01*
X158009Y174118D01*
X157890Y174059D01*
X157764Y174016D01*
X157633Y173990D01*
X157500Y173982D01*
X112500D01*
X112367Y173990D01*
X112236Y174016D01*
X112110Y174059D01*
X111991Y174118D01*
X111880Y174192D01*
X111780Y174280D01*
X109280Y176780D01*
X109192Y176880D01*
X109118Y176991D01*
X109059Y177110D01*
X109017Y177236D01*
X108990Y177367D01*
X108982Y177500D01*
Y182500D01*
X108990Y182633D01*
X109017Y182764D01*
X109059Y182890D01*
X109118Y183009D01*
X109192Y183120D01*
X109280Y183220D01*
X111780Y185720D01*
X111880Y185808D01*
X111991Y185882D01*
X112110Y185941D01*
X112236Y185984D01*
X112367Y186010D01*
X112500Y186018D01*
X157500D01*
X157633Y186010D01*
D02*
G37*
G36*
X92633D02*
X92764Y185984D01*
X92890Y185941D01*
X93009Y185882D01*
X93120Y185808D01*
X93220Y185720D01*
X95720Y183220D01*
X95808Y183120D01*
X95882Y183009D01*
X95941Y182890D01*
X95983Y182764D01*
X96010Y182633D01*
X96018Y182500D01*
Y177500D01*
X96010Y177367D01*
X95983Y177236D01*
X95941Y177110D01*
X95882Y176991D01*
X95808Y176880D01*
X95720Y176780D01*
X93220Y174280D01*
X93120Y174192D01*
X93009Y174118D01*
X92890Y174059D01*
X92764Y174016D01*
X92633Y173990D01*
X92500Y173982D01*
X47500D01*
X47367Y173990D01*
X47236Y174016D01*
X47110Y174059D01*
X46991Y174118D01*
X46880Y174192D01*
X46780Y174280D01*
X44280Y176780D01*
X44192Y176880D01*
X44118Y176991D01*
X44059Y177110D01*
X44016Y177236D01*
X43991Y177367D01*
X43982Y177500D01*
Y182500D01*
X43991Y182633D01*
X44016Y182764D01*
X44059Y182890D01*
X44118Y183009D01*
X44192Y183120D01*
X44280Y183220D01*
X46780Y185720D01*
X46880Y185808D01*
X46991Y185882D01*
X47110Y185941D01*
X47236Y185984D01*
X47367Y186010D01*
X47500Y186018D01*
X92500D01*
X92633Y186010D01*
D02*
G37*
G36*
X320133Y178629D02*
X320263Y178603D01*
X320390Y178561D01*
X320509Y178502D01*
X320620Y178428D01*
X320720Y178340D01*
X320808Y178240D01*
X320882Y178129D01*
X320941Y178010D01*
X320984Y177883D01*
X321009Y177753D01*
X321018Y177620D01*
Y162380D01*
X321009Y162247D01*
X320984Y162117D01*
X320941Y161990D01*
X320882Y161871D01*
X320808Y161760D01*
X320720Y161660D01*
X320620Y161572D01*
X320509Y161498D01*
X320390Y161439D01*
X320263Y161397D01*
X320133Y161371D01*
X320000Y161362D01*
X310000D01*
X309867Y161371D01*
X309736Y161397D01*
X309610Y161439D01*
X309491Y161498D01*
X309380Y161572D01*
X309280Y161660D01*
X309192Y161760D01*
X309118Y161871D01*
X309059Y161990D01*
X309016Y162117D01*
X308990Y162247D01*
X308982Y162380D01*
X308982Y177620D01*
X308990Y177753D01*
X309016Y177883D01*
X309059Y178010D01*
X309118Y178129D01*
X309192Y178240D01*
X309280Y178340D01*
X309380Y178428D01*
X309491Y178502D01*
X309610Y178561D01*
X309736Y178603D01*
X309867Y178629D01*
X310000Y178638D01*
X320000D01*
X320133Y178629D01*
D02*
G37*
G36*
X10133Y178629D02*
X10264Y178603D01*
X10390Y178561D01*
X10509Y178502D01*
X10620Y178428D01*
X10720Y178340D01*
X10808Y178240D01*
X10882Y178129D01*
X10941Y178010D01*
X10984Y177883D01*
X11010Y177753D01*
X11018Y177620D01*
X11018Y162380D01*
X11010Y162247D01*
X10984Y162116D01*
X10941Y161990D01*
X10882Y161871D01*
X10808Y161760D01*
X10720Y161660D01*
X10620Y161572D01*
X10509Y161498D01*
X10390Y161439D01*
X10264Y161397D01*
X10133Y161371D01*
X10000Y161362D01*
X0D01*
X-133Y161371D01*
X-264Y161397D01*
X-390Y161439D01*
X-509Y161498D01*
X-620Y161572D01*
X-720Y161660D01*
X-808Y161760D01*
X-882Y161871D01*
X-941Y161990D01*
X-984Y162116D01*
X-1009Y162247D01*
X-1018Y162380D01*
Y177620D01*
X-1009Y177753D01*
X-984Y177883D01*
X-941Y178010D01*
X-882Y178129D01*
X-808Y178240D01*
X-720Y178340D01*
X-620Y178428D01*
X-509Y178502D01*
X-390Y178561D01*
X-264Y178603D01*
X-133Y178629D01*
X0Y178638D01*
X10000D01*
X10133Y178629D01*
D02*
G37*
G36*
X292633Y166010D02*
X292764Y165984D01*
X292890Y165941D01*
X293009Y165882D01*
X293120Y165808D01*
X293220Y165720D01*
X295720Y163220D01*
X295808Y163120D01*
X295882Y163009D01*
X295941Y162890D01*
X295984Y162764D01*
X296010Y162633D01*
X296018Y162500D01*
Y157500D01*
X296010Y157367D01*
X295984Y157236D01*
X295941Y157110D01*
X295882Y156991D01*
X295808Y156880D01*
X295720Y156780D01*
X293220Y154280D01*
X293120Y154192D01*
X293009Y154118D01*
X292890Y154059D01*
X292764Y154017D01*
X292633Y153990D01*
X292500Y153982D01*
X247500D01*
X247367Y153990D01*
X247236Y154017D01*
X247110Y154059D01*
X246991Y154118D01*
X246880Y154192D01*
X246780Y154280D01*
X244280Y156780D01*
X244192Y156880D01*
X244118Y156991D01*
X244059Y157110D01*
X244016Y157236D01*
X243990Y157367D01*
X243982Y157500D01*
Y162500D01*
X243990Y162633D01*
X244016Y162764D01*
X244059Y162890D01*
X244118Y163009D01*
X244192Y163120D01*
X244280Y163220D01*
X246780Y165720D01*
X246880Y165808D01*
X246991Y165882D01*
X247110Y165941D01*
X247236Y165984D01*
X247367Y166010D01*
X247500Y166018D01*
X292500D01*
X292633Y166010D01*
D02*
G37*
G36*
X157633D02*
X157764Y165984D01*
X157890Y165941D01*
X158009Y165882D01*
X158120Y165808D01*
X158220Y165720D01*
X160720Y163220D01*
X160808Y163120D01*
X160882Y163009D01*
X160941Y162890D01*
X160984Y162764D01*
X161010Y162633D01*
X161018Y162500D01*
Y157500D01*
X161010Y157367D01*
X160984Y157236D01*
X160941Y157110D01*
X160882Y156991D01*
X160808Y156880D01*
X160720Y156780D01*
X158220Y154280D01*
X158120Y154192D01*
X158009Y154118D01*
X157890Y154059D01*
X157764Y154017D01*
X157633Y153990D01*
X157500Y153982D01*
X112500D01*
X112367Y153990D01*
X112236Y154017D01*
X112110Y154059D01*
X111991Y154118D01*
X111880Y154192D01*
X111780Y154280D01*
X109280Y156780D01*
X109192Y156880D01*
X109118Y156991D01*
X109059Y157110D01*
X109017Y157236D01*
X108990Y157367D01*
X108982Y157500D01*
Y162500D01*
X108990Y162633D01*
X109017Y162764D01*
X109059Y162890D01*
X109118Y163009D01*
X109192Y163120D01*
X109280Y163220D01*
X111780Y165720D01*
X111880Y165808D01*
X111991Y165882D01*
X112110Y165941D01*
X112236Y165984D01*
X112367Y166010D01*
X112500Y166018D01*
X157500D01*
X157633Y166010D01*
D02*
G37*
G36*
X92633D02*
X92764Y165984D01*
X92890Y165941D01*
X93009Y165882D01*
X93120Y165808D01*
X93220Y165720D01*
X95720Y163220D01*
X95808Y163120D01*
X95882Y163009D01*
X95941Y162890D01*
X95983Y162764D01*
X96010Y162633D01*
X96018Y162500D01*
Y157500D01*
X96010Y157367D01*
X95983Y157236D01*
X95941Y157110D01*
X95882Y156991D01*
X95808Y156880D01*
X95720Y156780D01*
X93220Y154280D01*
X93120Y154192D01*
X93009Y154118D01*
X92890Y154059D01*
X92764Y154017D01*
X92633Y153990D01*
X92500Y153982D01*
X47500D01*
X47367Y153990D01*
X47236Y154017D01*
X47110Y154059D01*
X46991Y154118D01*
X46880Y154192D01*
X46780Y154280D01*
X44280Y156780D01*
X44192Y156880D01*
X44118Y156991D01*
X44059Y157110D01*
X44016Y157236D01*
X43991Y157367D01*
X43982Y157500D01*
Y162500D01*
X43991Y162633D01*
X44016Y162764D01*
X44059Y162890D01*
X44118Y163009D01*
X44192Y163120D01*
X44280Y163220D01*
X46780Y165720D01*
X46880Y165808D01*
X46991Y165882D01*
X47110Y165941D01*
X47236Y165984D01*
X47367Y166010D01*
X47500Y166018D01*
X92500D01*
X92633Y166010D01*
D02*
G37*
G36*
X10133Y158630D02*
X10264Y158603D01*
X10390Y158561D01*
X10509Y158502D01*
X10620Y158428D01*
X10720Y158340D01*
X10808Y158240D01*
X10882Y158129D01*
X10941Y158010D01*
X10984Y157884D01*
X11010Y157753D01*
X11018Y157620D01*
X11018Y142380D01*
X11010Y142247D01*
X10984Y142116D01*
X10941Y141990D01*
X10882Y141871D01*
X10808Y141760D01*
X10720Y141660D01*
X10620Y141572D01*
X10509Y141498D01*
X10390Y141439D01*
X10264Y141397D01*
X10133Y141370D01*
X10000Y141362D01*
X0D01*
X-133Y141370D01*
X-264Y141397D01*
X-390Y141439D01*
X-509Y141498D01*
X-620Y141572D01*
X-720Y141660D01*
X-808Y141760D01*
X-882Y141871D01*
X-941Y141990D01*
X-984Y142116D01*
X-1010Y142247D01*
X-1018Y142380D01*
Y157620D01*
X-1010Y157753D01*
X-984Y157884D01*
X-941Y158010D01*
X-882Y158129D01*
X-808Y158240D01*
X-720Y158340D01*
X-620Y158428D01*
X-509Y158502D01*
X-390Y158561D01*
X-264Y158603D01*
X-133Y158630D01*
X0Y158638D01*
X10000D01*
X10133Y158630D01*
D02*
G37*
G36*
X157633Y146010D02*
X157764Y145983D01*
X157890Y145941D01*
X158009Y145882D01*
X158120Y145808D01*
X158220Y145720D01*
X160720Y143220D01*
X160808Y143120D01*
X160882Y143009D01*
X160941Y142890D01*
X160984Y142764D01*
X161010Y142633D01*
X161018Y142500D01*
Y137500D01*
X161010Y137367D01*
X160984Y137236D01*
X160941Y137110D01*
X160882Y136991D01*
X160808Y136880D01*
X160720Y136780D01*
X158220Y134280D01*
X158120Y134192D01*
X158009Y134118D01*
X157890Y134059D01*
X157764Y134017D01*
X157633Y133990D01*
X157500Y133982D01*
X112500D01*
X112367Y133990D01*
X112236Y134017D01*
X112110Y134059D01*
X111991Y134118D01*
X111880Y134192D01*
X111780Y134280D01*
X109280Y136780D01*
X109192Y136880D01*
X109118Y136991D01*
X109059Y137110D01*
X109017Y137236D01*
X108990Y137367D01*
X108982Y137500D01*
Y142500D01*
X108990Y142633D01*
X109017Y142764D01*
X109059Y142890D01*
X109118Y143009D01*
X109192Y143120D01*
X109280Y143220D01*
X111780Y145720D01*
X111880Y145808D01*
X111991Y145882D01*
X112110Y145941D01*
X112236Y145983D01*
X112367Y146010D01*
X112500Y146018D01*
X157500D01*
X157633Y146010D01*
D02*
G37*
G36*
X320133Y126130D02*
X320263Y126103D01*
X320390Y126061D01*
X320509Y126002D01*
X320620Y125928D01*
X320720Y125840D01*
X320808Y125740D01*
X320882Y125629D01*
X320941Y125510D01*
X320984Y125384D01*
X321009Y125253D01*
X321018Y125120D01*
Y109880D01*
X321009Y109747D01*
X320984Y109616D01*
X320941Y109490D01*
X320882Y109371D01*
X320808Y109260D01*
X320720Y109160D01*
X320620Y109072D01*
X320509Y108998D01*
X320390Y108939D01*
X320263Y108897D01*
X320133Y108870D01*
X320000Y108862D01*
X310000D01*
X309867Y108870D01*
X309736Y108897D01*
X309610Y108939D01*
X309491Y108998D01*
X309380Y109072D01*
X309280Y109160D01*
X309192Y109260D01*
X309118Y109371D01*
X309059Y109490D01*
X309016Y109616D01*
X308990Y109747D01*
X308982Y109880D01*
X308982Y125120D01*
X308990Y125253D01*
X309016Y125384D01*
X309059Y125510D01*
X309118Y125629D01*
X309192Y125740D01*
X309280Y125840D01*
X309380Y125928D01*
X309491Y126002D01*
X309610Y126061D01*
X309736Y126103D01*
X309867Y126130D01*
X310000Y126138D01*
X320000D01*
X320133Y126130D01*
D02*
G37*
G36*
X9773Y111004D02*
X9904Y110977D01*
X10030Y110935D01*
X10150Y110876D01*
X10260Y110802D01*
X10360Y110714D01*
X10448Y110614D01*
X10522Y110503D01*
X10581Y110384D01*
X10624Y110258D01*
X10650Y110127D01*
X10659Y109994D01*
X10659Y94754D01*
X10650Y94621D01*
X10624Y94490D01*
X10581Y94364D01*
X10522Y94245D01*
X10448Y94134D01*
X10360Y94034D01*
X10260Y93946D01*
X10149Y93872D01*
X10030Y93813D01*
X9904Y93771D01*
X9773Y93745D01*
X9640Y93736D01*
X-360D01*
X-492Y93745D01*
X-623Y93771D01*
X-749Y93813D01*
X-869Y93872D01*
X-979Y93946D01*
X-1080Y94034D01*
X-1167Y94134D01*
X-1241Y94245D01*
X-1300Y94364D01*
X-1343Y94490D01*
X-1369Y94621D01*
X-1378Y94754D01*
Y109994D01*
X-1369Y110127D01*
X-1343Y110258D01*
X-1300Y110384D01*
X-1241Y110503D01*
X-1167Y110614D01*
X-1080Y110714D01*
X-979Y110802D01*
X-869Y110876D01*
X-749Y110935D01*
X-623Y110977D01*
X-492Y111004D01*
X-360Y111012D01*
X9640D01*
X9773Y111004D01*
D02*
G37*
G36*
X320133Y106130D02*
X320263Y106103D01*
X320390Y106061D01*
X320509Y106002D01*
X320620Y105928D01*
X320720Y105840D01*
X320808Y105740D01*
X320882Y105629D01*
X320941Y105510D01*
X320984Y105384D01*
X321009Y105253D01*
X321018Y105120D01*
Y89880D01*
X321009Y89747D01*
X320984Y89616D01*
X320941Y89490D01*
X320882Y89371D01*
X320808Y89260D01*
X320720Y89160D01*
X320620Y89072D01*
X320509Y88998D01*
X320390Y88939D01*
X320263Y88897D01*
X320133Y88870D01*
X320000Y88862D01*
X310000D01*
X309867Y88870D01*
X309736Y88897D01*
X309610Y88939D01*
X309491Y88998D01*
X309380Y89072D01*
X309280Y89160D01*
X309192Y89260D01*
X309118Y89371D01*
X309059Y89490D01*
X309016Y89616D01*
X308990Y89747D01*
X308982Y89880D01*
X308982Y105120D01*
X308990Y105253D01*
X309016Y105384D01*
X309059Y105510D01*
X309118Y105629D01*
X309192Y105740D01*
X309280Y105840D01*
X309380Y105928D01*
X309491Y106002D01*
X309610Y106061D01*
X309736Y106103D01*
X309867Y106130D01*
X310000Y106138D01*
X320000D01*
X320133Y106130D01*
D02*
G37*
G36*
X9773Y91004D02*
X9904Y90977D01*
X10030Y90935D01*
X10150Y90876D01*
X10260Y90802D01*
X10360Y90714D01*
X10448Y90614D01*
X10522Y90503D01*
X10581Y90384D01*
X10624Y90258D01*
X10650Y90127D01*
X10659Y89994D01*
X10659Y74754D01*
X10650Y74621D01*
X10624Y74490D01*
X10581Y74364D01*
X10522Y74245D01*
X10448Y74134D01*
X10360Y74034D01*
X10260Y73946D01*
X10149Y73872D01*
X10030Y73813D01*
X9904Y73770D01*
X9773Y73745D01*
X9640Y73736D01*
X-360D01*
X-492Y73745D01*
X-623Y73770D01*
X-749Y73813D01*
X-869Y73872D01*
X-979Y73946D01*
X-1080Y74034D01*
X-1167Y74134D01*
X-1241Y74245D01*
X-1300Y74364D01*
X-1343Y74490D01*
X-1369Y74621D01*
X-1378Y74754D01*
Y89994D01*
X-1369Y90127D01*
X-1343Y90258D01*
X-1300Y90384D01*
X-1241Y90503D01*
X-1167Y90614D01*
X-1080Y90714D01*
X-979Y90802D01*
X-869Y90876D01*
X-749Y90935D01*
X-623Y90977D01*
X-492Y91004D01*
X-360Y91012D01*
X9640D01*
X9773Y91004D01*
D02*
G37*
G36*
X320133Y86130D02*
X320263Y86103D01*
X320390Y86061D01*
X320509Y86002D01*
X320620Y85928D01*
X320720Y85840D01*
X320808Y85740D01*
X320882Y85629D01*
X320941Y85510D01*
X320984Y85384D01*
X321009Y85253D01*
X321018Y85120D01*
Y69880D01*
X321009Y69747D01*
X320984Y69616D01*
X320941Y69490D01*
X320882Y69371D01*
X320808Y69260D01*
X320720Y69160D01*
X320620Y69072D01*
X320509Y68998D01*
X320390Y68939D01*
X320263Y68896D01*
X320133Y68871D01*
X320000Y68862D01*
X310000D01*
X309867Y68871D01*
X309736Y68896D01*
X309610Y68939D01*
X309491Y68998D01*
X309380Y69072D01*
X309280Y69160D01*
X309192Y69260D01*
X309118Y69371D01*
X309059Y69490D01*
X309016Y69616D01*
X308990Y69747D01*
X308982Y69880D01*
X308982Y85120D01*
X308990Y85253D01*
X309016Y85384D01*
X309059Y85510D01*
X309118Y85629D01*
X309192Y85740D01*
X309280Y85840D01*
X309380Y85928D01*
X309491Y86002D01*
X309610Y86061D01*
X309736Y86103D01*
X309867Y86130D01*
X310000Y86138D01*
X320000D01*
X320133Y86130D01*
D02*
G37*
G36*
X9773Y71003D02*
X9904Y70978D01*
X10030Y70935D01*
X10150Y70876D01*
X10260Y70802D01*
X10360Y70714D01*
X10448Y70614D01*
X10522Y70503D01*
X10581Y70384D01*
X10624Y70258D01*
X10650Y70127D01*
X10659Y69994D01*
X10659Y54754D01*
X10650Y54621D01*
X10624Y54490D01*
X10581Y54364D01*
X10522Y54245D01*
X10448Y54134D01*
X10360Y54034D01*
X10260Y53946D01*
X10149Y53872D01*
X10030Y53813D01*
X9904Y53771D01*
X9773Y53745D01*
X9640Y53736D01*
X-360D01*
X-492Y53745D01*
X-623Y53771D01*
X-749Y53813D01*
X-869Y53872D01*
X-979Y53946D01*
X-1080Y54034D01*
X-1167Y54134D01*
X-1241Y54245D01*
X-1300Y54364D01*
X-1343Y54490D01*
X-1369Y54621D01*
X-1378Y54754D01*
Y69994D01*
X-1369Y70127D01*
X-1343Y70258D01*
X-1300Y70384D01*
X-1241Y70503D01*
X-1167Y70614D01*
X-1080Y70714D01*
X-979Y70802D01*
X-869Y70876D01*
X-749Y70935D01*
X-623Y70978D01*
X-492Y71003D01*
X-360Y71012D01*
X9640D01*
X9773Y71003D01*
D02*
G37*
G36*
X320133Y66129D02*
X320263Y66104D01*
X320390Y66061D01*
X320509Y66002D01*
X320620Y65928D01*
X320720Y65840D01*
X320808Y65740D01*
X320882Y65629D01*
X320941Y65510D01*
X320984Y65384D01*
X321009Y65253D01*
X321018Y65120D01*
Y49880D01*
X321009Y49747D01*
X320984Y49616D01*
X320941Y49490D01*
X320882Y49371D01*
X320808Y49260D01*
X320720Y49160D01*
X320620Y49072D01*
X320509Y48998D01*
X320390Y48939D01*
X320263Y48896D01*
X320133Y48871D01*
X320000Y48862D01*
X310000D01*
X309867Y48871D01*
X309736Y48896D01*
X309610Y48939D01*
X309491Y48998D01*
X309380Y49072D01*
X309280Y49160D01*
X309192Y49260D01*
X309118Y49371D01*
X309059Y49490D01*
X309016Y49616D01*
X308990Y49747D01*
X308982Y49880D01*
X308982Y65120D01*
X308990Y65253D01*
X309016Y65384D01*
X309059Y65510D01*
X309118Y65629D01*
X309192Y65740D01*
X309280Y65840D01*
X309380Y65928D01*
X309491Y66002D01*
X309610Y66061D01*
X309736Y66104D01*
X309867Y66129D01*
X310000Y66138D01*
X320000D01*
X320133Y66129D01*
D02*
G37*
G36*
X9773Y51003D02*
X9904Y50978D01*
X10030Y50935D01*
X10150Y50876D01*
X10260Y50802D01*
X10360Y50714D01*
X10448Y50614D01*
X10522Y50503D01*
X10581Y50384D01*
X10624Y50258D01*
X10650Y50127D01*
X10659Y49994D01*
X10659Y34754D01*
X10650Y34621D01*
X10624Y34490D01*
X10581Y34364D01*
X10522Y34245D01*
X10448Y34134D01*
X10360Y34034D01*
X10260Y33946D01*
X10149Y33872D01*
X10030Y33813D01*
X9904Y33770D01*
X9773Y33745D01*
X9640Y33736D01*
X-360D01*
X-492Y33745D01*
X-623Y33770D01*
X-749Y33813D01*
X-869Y33872D01*
X-979Y33946D01*
X-1080Y34034D01*
X-1167Y34134D01*
X-1241Y34245D01*
X-1300Y34364D01*
X-1343Y34490D01*
X-1369Y34621D01*
X-1378Y34754D01*
Y49994D01*
X-1369Y50127D01*
X-1343Y50258D01*
X-1300Y50384D01*
X-1241Y50503D01*
X-1167Y50614D01*
X-1080Y50714D01*
X-979Y50802D01*
X-869Y50876D01*
X-749Y50935D01*
X-623Y50978D01*
X-492Y51003D01*
X-360Y51012D01*
X9640D01*
X9773Y51003D01*
D02*
G37*
G36*
X320133Y46129D02*
X320263Y46104D01*
X320390Y46061D01*
X320509Y46002D01*
X320620Y45928D01*
X320720Y45840D01*
X320808Y45740D01*
X320882Y45629D01*
X320941Y45510D01*
X320984Y45384D01*
X321009Y45253D01*
X321018Y45120D01*
Y29880D01*
X321009Y29747D01*
X320984Y29616D01*
X320941Y29490D01*
X320882Y29371D01*
X320808Y29260D01*
X320720Y29160D01*
X320620Y29072D01*
X320509Y28998D01*
X320390Y28939D01*
X320263Y28897D01*
X320133Y28870D01*
X320000Y28862D01*
X310000D01*
X309867Y28870D01*
X309736Y28897D01*
X309610Y28939D01*
X309491Y28998D01*
X309380Y29072D01*
X309280Y29160D01*
X309192Y29260D01*
X309118Y29371D01*
X309059Y29490D01*
X309016Y29616D01*
X308990Y29747D01*
X308982Y29880D01*
X308982Y45120D01*
X308990Y45253D01*
X309016Y45384D01*
X309059Y45510D01*
X309118Y45629D01*
X309192Y45740D01*
X309280Y45840D01*
X309380Y45928D01*
X309491Y46002D01*
X309610Y46061D01*
X309736Y46104D01*
X309867Y46129D01*
X310000Y46138D01*
X320000D01*
X320133Y46129D01*
D02*
G37*
G36*
X9773Y31003D02*
X9904Y30977D01*
X10030Y30935D01*
X10150Y30876D01*
X10260Y30802D01*
X10360Y30714D01*
X10448Y30614D01*
X10522Y30503D01*
X10581Y30384D01*
X10624Y30257D01*
X10650Y30127D01*
X10659Y29994D01*
X10659Y14754D01*
X10650Y14621D01*
X10624Y14490D01*
X10581Y14364D01*
X10522Y14245D01*
X10448Y14134D01*
X10360Y14034D01*
X10260Y13946D01*
X10149Y13872D01*
X10030Y13813D01*
X9904Y13771D01*
X9773Y13744D01*
X9640Y13736D01*
X-360D01*
X-492Y13744D01*
X-623Y13771D01*
X-749Y13813D01*
X-869Y13872D01*
X-979Y13946D01*
X-1080Y14034D01*
X-1167Y14134D01*
X-1241Y14245D01*
X-1300Y14364D01*
X-1343Y14490D01*
X-1369Y14621D01*
X-1378Y14754D01*
Y29994D01*
X-1369Y30127D01*
X-1343Y30257D01*
X-1300Y30384D01*
X-1241Y30503D01*
X-1167Y30614D01*
X-1080Y30714D01*
X-979Y30802D01*
X-869Y30876D01*
X-749Y30935D01*
X-623Y30977D01*
X-492Y31003D01*
X-360Y31012D01*
X9640D01*
X9773Y31003D01*
D02*
G37*
G36*
X320133Y26130D02*
X320263Y26103D01*
X320390Y26061D01*
X320509Y26002D01*
X320620Y25928D01*
X320720Y25840D01*
X320808Y25740D01*
X320882Y25629D01*
X320941Y25510D01*
X320984Y25384D01*
X321009Y25253D01*
X321018Y25120D01*
Y9880D01*
X321009Y9747D01*
X320984Y9617D01*
X320941Y9490D01*
X320882Y9371D01*
X320808Y9260D01*
X320720Y9160D01*
X320620Y9072D01*
X320509Y8998D01*
X320390Y8939D01*
X320263Y8896D01*
X320133Y8870D01*
X320000Y8862D01*
X310000D01*
X309867Y8870D01*
X309736Y8896D01*
X309610Y8939D01*
X309491Y8998D01*
X309380Y9072D01*
X309280Y9160D01*
X309192Y9260D01*
X309118Y9371D01*
X309059Y9490D01*
X309016Y9617D01*
X308990Y9747D01*
X308982Y9880D01*
X308982Y25120D01*
X308990Y25253D01*
X309016Y25384D01*
X309059Y25510D01*
X309118Y25629D01*
X309192Y25740D01*
X309280Y25840D01*
X309380Y25928D01*
X309491Y26002D01*
X309610Y26061D01*
X309736Y26103D01*
X309867Y26130D01*
X310000Y26138D01*
X320000D01*
X320133Y26130D01*
D02*
G37*
G36*
X47620Y11018D02*
X47753Y11010D01*
X47884Y10984D01*
X48010Y10941D01*
X48129Y10882D01*
X48240Y10808D01*
X48340Y10720D01*
X48428Y10620D01*
X48502Y10509D01*
X48561Y10390D01*
X48604Y10264D01*
X48629Y10133D01*
X48638Y10000D01*
Y0D01*
X48629Y-133D01*
X48604Y-264D01*
X48561Y-390D01*
X48502Y-509D01*
X48428Y-620D01*
X48340Y-720D01*
X48240Y-808D01*
X48129Y-882D01*
X48010Y-941D01*
X47884Y-984D01*
X47753Y-1009D01*
X47620Y-1018D01*
X32380D01*
X32247Y-1009D01*
X32116Y-984D01*
X31990Y-941D01*
X31871Y-882D01*
X31760Y-808D01*
X31660Y-720D01*
X31572Y-620D01*
X31498Y-509D01*
X31439Y-390D01*
X31397Y-264D01*
X31370Y-133D01*
X31362Y0D01*
Y10000D01*
X31370Y10133D01*
X31397Y10264D01*
X31439Y10390D01*
X31498Y10509D01*
X31572Y10620D01*
X31660Y10720D01*
X31760Y10808D01*
X31871Y10882D01*
X31990Y10941D01*
X32116Y10984D01*
X32247Y11010D01*
X32380Y11018D01*
X47620Y11018D01*
D02*
G37*
G36*
X27620Y11018D02*
X27753Y11010D01*
X27884Y10984D01*
X28010Y10941D01*
X28129Y10882D01*
X28240Y10808D01*
X28340Y10720D01*
X28428Y10620D01*
X28502Y10509D01*
X28561Y10390D01*
X28603Y10264D01*
X28630Y10133D01*
X28638Y10000D01*
Y0D01*
X28630Y-133D01*
X28603Y-264D01*
X28561Y-390D01*
X28502Y-509D01*
X28428Y-620D01*
X28340Y-720D01*
X28240Y-808D01*
X28129Y-882D01*
X28010Y-941D01*
X27884Y-984D01*
X27753Y-1010D01*
X27620Y-1018D01*
X12380D01*
X12247Y-1010D01*
X12117Y-984D01*
X11990Y-941D01*
X11871Y-882D01*
X11760Y-808D01*
X11660Y-720D01*
X11572Y-620D01*
X11498Y-509D01*
X11439Y-390D01*
X11396Y-264D01*
X11371Y-133D01*
X11362Y0D01*
Y10000D01*
X11371Y10133D01*
X11396Y10264D01*
X11439Y10390D01*
X11498Y10509D01*
X11572Y10620D01*
X11660Y10720D01*
X11760Y10808D01*
X11871Y10882D01*
X11990Y10941D01*
X12117Y10984D01*
X12247Y11010D01*
X12380Y11018D01*
X27620Y11018D01*
D02*
G37*
D17*
X210000Y107000D02*
D03*
Y150000D02*
D03*
D23*
X135000Y85000D02*
D03*
D24*
X162120Y104050D02*
D03*
Y91350D02*
D03*
Y78650D02*
D03*
Y65950D02*
D03*
X107880D02*
D03*
Y78650D02*
D03*
Y91350D02*
D03*
Y104050D02*
D03*
D25*
X50000Y132000D02*
D03*
Y88000D02*
D03*
D26*
X223600Y70000D02*
D03*
X196400D02*
D03*
X41400Y50000D02*
D03*
X68600D02*
D03*
X41400Y27500D02*
D03*
X68600D02*
D03*
D27*
X215000Y14600D02*
D03*
Y30400D02*
D03*
X200000Y30400D02*
D03*
Y14600D02*
D03*
X125000Y30400D02*
D03*
Y14600D02*
D03*
X170000Y30400D02*
D03*
Y14600D02*
D03*
X155000Y14600D02*
D03*
Y30400D02*
D03*
X140000Y30400D02*
D03*
Y14600D02*
D03*
X95000Y30400D02*
D03*
Y14600D02*
D03*
X110000Y14600D02*
D03*
Y30400D02*
D03*
D28*
X185000Y31000D02*
D03*
Y14000D02*
D03*
X230000D02*
D03*
Y31000D02*
D03*
D29*
X290250Y90000D02*
D03*
X249750D02*
D03*
D30*
X269000Y45000D02*
D03*
X286000D02*
D03*
X269000Y30000D02*
D03*
X286000D02*
D03*
X269000Y15000D02*
D03*
X286000D02*
D03*
M02*
