M48
;Layer_Color=9474304
;FILE_FORMAT=4:4
METRIC,TZ
;TYPE=PLATED
T01F00S00C0.3000
T02F00S00C0.9000
%
T01
X20000Y20000
Y30000
X30000
Y20000
X40000
Y30000
Y40000
Y50000
Y60000
Y70000
Y80000
Y90000
X50000
X60000
Y80000
Y70000
Y60000
Y50000
Y40000
Y30000
Y20000
X50000
Y30000
Y40000
Y50000
Y60000
Y70000
Y80000
X30000
X20000
Y70000
X29339Y70210
X30000Y60000
X20000
Y50000
X30000
Y40000
X20000
Y90000
X30000
X70000
Y80000
Y70000
Y60000
Y50000
Y40000
Y30000
Y20000
X207500
Y30000
Y40000
Y50000
X222500Y65000
X225000Y91350
X237880Y112500
X257500Y95000
Y85000
Y75000
X265000Y80000
X265000Y90000
X272500Y95000
Y85000
Y75000
X317500Y70000
X300000Y40000
X315000Y6540
X360000
X425000
X435000
Y17500
X425000
Y27500
Y37500
Y47500
Y57500
X435000
Y67500
Y77500
Y87500
Y97500
Y107500
Y117500
Y130000
X425000
X415000
X435000Y47500
Y37500
Y27500
X270000Y6540
X255000
X225000
X207500Y10000
X227500Y40000
X240000
T02
X20000Y0
X40000
X60000
X0Y22500
Y42500
Y62500
Y82500
Y130000
X80000Y0
X100000
X450000Y17500
X450000Y37500
X450000Y57500
Y77500
Y97500
Y117500
Y170000
Y190000
Y210000
X430000Y240000
X410000Y240000
X390000Y240000
X370000
X350000
X330000
X310000
X290000
X270000
X250000
X230000
X210000Y240000
X190000
X170000Y240000
X150000
X130000
X110000
X90000
X70000Y240000
X50000Y240000
X30000
X10000
X0Y210000
Y190000
Y170000
Y150000
M30
