G04*
G04 #@! TF.GenerationSoftware,Altium Limited,Altium Designer,24.5.2 (23)*
G04*
G04 Layer_Physical_Order=2*
G04 Layer_Color=16711680*
%FSLAX44Y44*%
%MOMM*%
G71*
G04*
G04 #@! TF.SameCoordinates,B9E64D96-6C6B-41B8-AF92-246256EA7E35*
G04*
G04*
G04 #@! TF.FilePolarity,Positive*
G04*
G01*
G75*
%ADD30C,0.5000*%
%AMCUSTOMSHAPE31*
4,1,4,0.0000,-0.7620,-1.0000,-0.7620,-1.0000,0.7620,0.0000,0.7620,0.0000,-0.7620,0.0*%
%ADD31CUSTOMSHAPE31*%

%AMCUSTOMSHAPE32*
4,1,4,0.7620,0.0000,0.7620,-1.0000,-0.7620,-1.0000,-0.7620,0.0000,0.7620,0.0000,0.0*%
%ADD32CUSTOMSHAPE32*%

%AMCUSTOMSHAPE33*
4,1,4,0.0000,0.7620,1.0000,0.7620,1.0000,-0.7620,0.0000,-0.7620,0.0000,0.7620,0.0*%
%ADD33CUSTOMSHAPE33*%

%ADD34C,0.6000*%
G36*
X345000Y230210D02*
Y169790D01*
Y160086D01*
Y160000D01*
X300000D01*
Y160086D01*
X282500D01*
X279890Y159743D01*
X277457Y158735D01*
X275368Y157132D01*
X273765Y155043D01*
X272757Y152611D01*
X272414Y150000D01*
Y51525D01*
X227500D01*
X225003Y51029D01*
X222886Y49614D01*
X222886Y49614D01*
X219797Y46525D01*
X170000D01*
X167503Y46029D01*
X165386Y44614D01*
X163971Y42497D01*
X163475Y40000D01*
X163971Y37503D01*
X165386Y35386D01*
X167503Y33971D01*
X170000Y33475D01*
X222500D01*
X222500Y33475D01*
X224997Y33971D01*
X227114Y35386D01*
X230203Y38475D01*
X272414D01*
Y-5000D01*
X60086D01*
Y110000D01*
X59743Y112611D01*
X58735Y115043D01*
X57132Y117132D01*
X55043Y118735D01*
X52611Y119743D01*
X50000Y120086D01*
X5000D01*
X4996Y120090D01*
Y127290D01*
X5000D01*
Y220000D01*
Y235000D01*
Y235004D01*
X20000D01*
Y235000D01*
X330210D01*
Y235004D01*
X345000D01*
Y230210D01*
D02*
G37*
G36*
Y-5000D02*
X282500D01*
Y150000D01*
X345000D01*
Y-5000D01*
D02*
G37*
G36*
X50000D02*
X5000D01*
Y110000D01*
X50000D01*
Y-5000D01*
D02*
G37*
%LPC*%
G36*
X170000Y144025D02*
X167503Y143529D01*
X165386Y142114D01*
X142297Y119025D01*
X107880D01*
X105383Y118529D01*
X103266Y117114D01*
X101851Y114997D01*
X101355Y112500D01*
X101851Y110003D01*
X103266Y107886D01*
X105383Y106471D01*
X107880Y105975D01*
X145000D01*
X145000Y105975D01*
X147497Y106471D01*
X149614Y107886D01*
X174614Y132886D01*
X176029Y135003D01*
X176525Y137500D01*
X176029Y139997D01*
X174614Y142114D01*
X172497Y143529D01*
X170000Y144025D01*
D02*
G37*
G36*
X95000Y91525D02*
X95000Y91525D01*
X85000D01*
X82503Y91029D01*
X80386Y89614D01*
X78971Y87497D01*
X78475Y85000D01*
X78971Y82503D01*
X80386Y80386D01*
X82503Y78971D01*
X85000Y78475D01*
X92297D01*
X94770Y76001D01*
X94693Y73355D01*
X92500Y71525D01*
X90003Y71029D01*
X87886Y69614D01*
X86471Y67497D01*
X85975Y65000D01*
Y52703D01*
X82886Y49614D01*
X81471Y47497D01*
X80975Y45000D01*
X80975Y45000D01*
Y30000D01*
X80975Y30000D01*
X81471Y27503D01*
X82886Y25386D01*
X88475Y19797D01*
Y6540D01*
X88971Y4043D01*
X90386Y1926D01*
X92503Y511D01*
X95000Y15D01*
X97497Y511D01*
X99614Y1926D01*
X101029Y4043D01*
X101525Y6540D01*
Y22500D01*
X101029Y24997D01*
X99614Y27114D01*
X99614Y27114D01*
X95432Y31296D01*
X96683Y33637D01*
X97500Y33475D01*
X99997Y33971D01*
X102114Y35386D01*
X106146Y39418D01*
X107561Y41535D01*
X108057Y44032D01*
X108057Y44032D01*
Y59032D01*
Y78468D01*
X107561Y80965D01*
X106146Y83082D01*
X106146Y83082D01*
X99614Y89614D01*
X97497Y91029D01*
X95000Y91525D01*
D02*
G37*
%LPD*%
D30*
X87500Y30000D02*
Y45000D01*
X92500Y50000D01*
Y65000D01*
X87500Y30000D02*
X95000Y22500D01*
X101532Y44032D02*
Y59032D01*
X97500Y40000D02*
X101532Y44032D01*
X145000Y112500D02*
X170000Y137500D01*
X107880Y112500D02*
X145000D01*
X222500Y40000D02*
X227500Y45000D01*
X295273D01*
X170000Y40000D02*
X222500D01*
X95000Y85000D02*
X101532Y78468D01*
Y59032D02*
Y78468D01*
X85000Y85000D02*
X95000D01*
X95000Y6540D02*
Y22500D01*
D31*
X350000Y12500D02*
D03*
Y132500D02*
D03*
X350000Y112500D02*
D03*
X350000Y180000D02*
D03*
Y200000D02*
D03*
Y220000D02*
D03*
Y92500D02*
D03*
Y72500D02*
D03*
Y52500D02*
D03*
Y32500D02*
D03*
D32*
X320000Y240000D02*
D03*
X260000D02*
D03*
X280000Y240000D02*
D03*
X220000Y240000D02*
D03*
X200000D02*
D03*
X240000D02*
D03*
X300000D02*
D03*
X180000D02*
D03*
X40000D02*
D03*
X20000D02*
D03*
X60000Y240000D02*
D03*
X100000Y240000D02*
D03*
X80000Y240000D02*
D03*
X120000Y240000D02*
D03*
X140000D02*
D03*
X160000D02*
D03*
D33*
X0Y137500D02*
D03*
Y52500D02*
D03*
Y92500D02*
D03*
Y217500D02*
D03*
X0Y177500D02*
D03*
X0Y197500D02*
D03*
Y157500D02*
D03*
Y72500D02*
D03*
Y12500D02*
D03*
X0Y32500D02*
D03*
D34*
X335000Y230000D02*
D03*
X330000Y220000D02*
D03*
X335000Y210000D02*
D03*
X330000Y200000D02*
D03*
X335000Y190000D02*
D03*
X330000Y180000D02*
D03*
X325000Y210000D02*
D03*
X320000Y200000D02*
D03*
X325000Y190000D02*
D03*
X320000Y180000D02*
D03*
X315000Y210000D02*
D03*
Y190000D02*
D03*
X305000Y210000D02*
D03*
Y190000D02*
D03*
X295000Y210000D02*
D03*
Y190000D02*
D03*
X285000Y210000D02*
D03*
Y190000D02*
D03*
X275000Y210000D02*
D03*
Y190000D02*
D03*
X265000Y210000D02*
D03*
Y190000D02*
D03*
X250000Y220000D02*
D03*
X255000Y210000D02*
D03*
X250000Y200000D02*
D03*
X255000Y190000D02*
D03*
X250000Y180000D02*
D03*
X240000Y220000D02*
D03*
X245000Y210000D02*
D03*
X240000Y200000D02*
D03*
X245000Y190000D02*
D03*
X240000Y180000D02*
D03*
X235000Y210000D02*
D03*
Y190000D02*
D03*
X225000Y210000D02*
D03*
Y190000D02*
D03*
X215000Y210000D02*
D03*
Y190000D02*
D03*
X205000Y210000D02*
D03*
Y190000D02*
D03*
X195000Y210000D02*
D03*
Y190000D02*
D03*
X180000Y220000D02*
D03*
X185000Y210000D02*
D03*
X180000Y200000D02*
D03*
X185000Y190000D02*
D03*
X180000Y180000D02*
D03*
X170000Y220000D02*
D03*
X175000Y210000D02*
D03*
X170000Y200000D02*
D03*
X175000Y190000D02*
D03*
X170000Y180000D02*
D03*
X165000Y210000D02*
D03*
Y190000D02*
D03*
Y170000D02*
D03*
X160000Y160000D02*
D03*
X155000Y210000D02*
D03*
Y190000D02*
D03*
Y170000D02*
D03*
X150000Y160000D02*
D03*
X155000Y150000D02*
D03*
X150000Y140000D02*
D03*
X145000Y210000D02*
D03*
Y190000D02*
D03*
Y170000D02*
D03*
X140000Y160000D02*
D03*
X145000Y150000D02*
D03*
X140000Y140000D02*
D03*
X135000Y210000D02*
D03*
Y190000D02*
D03*
Y170000D02*
D03*
X130000Y160000D02*
D03*
X135000Y150000D02*
D03*
X130000Y140000D02*
D03*
X125000Y210000D02*
D03*
Y190000D02*
D03*
Y170000D02*
D03*
X120000Y160000D02*
D03*
X125000Y150000D02*
D03*
X120000Y140000D02*
D03*
X115000Y210000D02*
D03*
Y190000D02*
D03*
Y170000D02*
D03*
X110000Y160000D02*
D03*
X115000Y150000D02*
D03*
X110000Y140000D02*
D03*
X100000Y220000D02*
D03*
X105000Y210000D02*
D03*
X100000Y200000D02*
D03*
X105000Y190000D02*
D03*
X100000Y180000D02*
D03*
X105000Y170000D02*
D03*
X100000Y160000D02*
D03*
X105000Y150000D02*
D03*
X100000Y140000D02*
D03*
X95000Y210000D02*
D03*
Y190000D02*
D03*
Y170000D02*
D03*
X90000Y160000D02*
D03*
X95000Y150000D02*
D03*
X90000Y140000D02*
D03*
X85000Y210000D02*
D03*
Y190000D02*
D03*
Y170000D02*
D03*
X80000Y160000D02*
D03*
X85000Y150000D02*
D03*
X80000Y140000D02*
D03*
X75000Y210000D02*
D03*
Y190000D02*
D03*
Y170000D02*
D03*
X70000Y160000D02*
D03*
X75000Y150000D02*
D03*
X70000Y140000D02*
D03*
X65000Y210000D02*
D03*
Y190000D02*
D03*
Y170000D02*
D03*
X60000Y160000D02*
D03*
X55000Y210000D02*
D03*
Y190000D02*
D03*
Y170000D02*
D03*
X50000Y160000D02*
D03*
X45000Y210000D02*
D03*
Y190000D02*
D03*
Y170000D02*
D03*
X40000Y160000D02*
D03*
X30000Y220000D02*
D03*
X35000Y210000D02*
D03*
X30000Y200000D02*
D03*
X35000Y190000D02*
D03*
X30000Y180000D02*
D03*
X35000Y170000D02*
D03*
X30000Y160000D02*
D03*
Y140000D02*
D03*
X20000Y220000D02*
D03*
X25000Y210000D02*
D03*
X20000Y200000D02*
D03*
X25000Y190000D02*
D03*
X20000Y180000D02*
D03*
X25000Y170000D02*
D03*
X20000Y160000D02*
D03*
X25000Y150000D02*
D03*
X20000Y140000D02*
D03*
X15000Y210000D02*
D03*
Y190000D02*
D03*
Y170000D02*
D03*
Y150000D02*
D03*
X40000Y60000D02*
D03*
Y0D02*
D03*
X30000Y100000D02*
D03*
Y80000D02*
D03*
X35000Y70000D02*
D03*
X30000Y60000D02*
D03*
Y40000D02*
D03*
Y20000D02*
D03*
Y0D02*
D03*
X20000Y100000D02*
D03*
X25000Y90000D02*
D03*
X20000Y80000D02*
D03*
X25000Y70000D02*
D03*
X20000Y60000D02*
D03*
X25000Y50000D02*
D03*
X20000Y40000D02*
D03*
X25000Y30000D02*
D03*
X20000Y20000D02*
D03*
X25000Y10000D02*
D03*
X20000Y0D02*
D03*
X15000Y90000D02*
D03*
Y70000D02*
D03*
Y50000D02*
D03*
Y30000D02*
D03*
Y10000D02*
D03*
X340000Y0D02*
D03*
X330000Y140000D02*
D03*
X335000Y130000D02*
D03*
X330000Y120000D02*
D03*
X335000Y110000D02*
D03*
X330000Y100000D02*
D03*
X335000Y90000D02*
D03*
X330000Y80000D02*
D03*
X335000Y70000D02*
D03*
X330000Y60000D02*
D03*
X335000Y50000D02*
D03*
X330000Y40000D02*
D03*
X335000Y30000D02*
D03*
X330000Y20000D02*
D03*
X335000Y10000D02*
D03*
X330000Y0D02*
D03*
X320000Y140000D02*
D03*
X325000Y130000D02*
D03*
X320000Y120000D02*
D03*
X325000Y110000D02*
D03*
X320000Y100000D02*
D03*
X325000Y90000D02*
D03*
X320000Y80000D02*
D03*
X325000Y70000D02*
D03*
X320000Y60000D02*
D03*
X325000Y50000D02*
D03*
X320000Y40000D02*
D03*
X325000Y30000D02*
D03*
X320000Y20000D02*
D03*
X325000Y10000D02*
D03*
X320000Y0D02*
D03*
X310000Y140000D02*
D03*
X315000Y130000D02*
D03*
X310000Y120000D02*
D03*
X315000Y110000D02*
D03*
X310000Y100000D02*
D03*
X315000Y90000D02*
D03*
X310000Y80000D02*
D03*
X315000Y70000D02*
D03*
X310000Y60000D02*
D03*
X315000Y50000D02*
D03*
X310000Y40000D02*
D03*
X315000Y30000D02*
D03*
X310000Y20000D02*
D03*
X315000Y10000D02*
D03*
X310000Y0D02*
D03*
X305000Y130000D02*
D03*
Y110000D02*
D03*
Y90000D02*
D03*
X300000Y80000D02*
D03*
X305000Y70000D02*
D03*
X300000Y60000D02*
D03*
X305000Y50000D02*
D03*
X300000Y40000D02*
D03*
X305000Y30000D02*
D03*
X300000Y20000D02*
D03*
X305000Y10000D02*
D03*
X300000Y0D02*
D03*
X290000Y80000D02*
D03*
X295000Y70000D02*
D03*
X250000Y60000D02*
D03*
Y20000D02*
D03*
Y0D02*
D03*
X240000Y60000D02*
D03*
X245000Y30000D02*
D03*
Y10000D02*
D03*
X240000Y0D02*
D03*
X230000Y60000D02*
D03*
Y0D02*
D03*
X220000D02*
D03*
X210000D02*
D03*
X200000D02*
D03*
X190000Y60000D02*
D03*
X195000Y50000D02*
D03*
X190000Y0D02*
D03*
X180000D02*
D03*
X170000D02*
D03*
X160000D02*
D03*
X150000D02*
D03*
X140000Y60000D02*
D03*
X145000Y50000D02*
D03*
X140000Y0D02*
D03*
X130000Y60000D02*
D03*
X135000Y50000D02*
D03*
X130000Y0D02*
D03*
X120000D02*
D03*
X110000D02*
D03*
X80000Y20000D02*
D03*
Y0D02*
D03*
X70000D02*
D03*
X170000Y137500D02*
D03*
X85000Y85000D02*
D03*
X170000Y40000D02*
D03*
X142500Y95000D02*
D03*
X135000Y90000D02*
D03*
X92500Y65000D02*
D03*
X107880Y112500D02*
D03*
X95000Y6540D02*
D03*
X97500Y40000D02*
D03*
X110000D02*
D03*
X135000Y80000D02*
D03*
X127500Y85000D02*
D03*
X142500D02*
D03*
Y75000D02*
D03*
X127500Y95000D02*
D03*
Y75000D02*
D03*
M02*
