G04*
G04 #@! TF.GenerationSoftware,Altium Limited,Altium Designer,24.5.2 (23)*
G04*
G04 Layer_Color=65535*
%FSLAX44Y44*%
%MOMM*%
G71*
G04*
G04 #@! TF.SameCoordinates,71DE77E4-8B13-49D2-B116-840717ED03C6*
G04*
G04*
G04 #@! TF.FilePolarity,Positive*
G04*
G01*
G75*
%ADD10C,0.2000*%
%ADD11C,0.1000*%
%ADD12C,0.1524*%
%ADD13C,0.2032*%
D10*
X35000Y210000D02*
X34590Y212466D01*
X33440Y214685D01*
X31660Y216441D01*
X29426Y217562D01*
X26954Y217939D01*
X24487Y217534D01*
X22266Y216388D01*
X20507Y214611D01*
X19381Y212379D01*
X19000Y209908D01*
X19400Y207440D01*
X20543Y205217D01*
X22315Y203454D01*
X24546Y202325D01*
X27016Y201939D01*
X29484Y202334D01*
X31710Y203472D01*
X33476Y205241D01*
X34610Y207470D01*
X35000Y209939D01*
X97500Y55000D02*
X172500D01*
X97500Y115000D02*
X172500D01*
X105000Y120000D02*
X110000D01*
X107500Y117500D02*
X110000Y120000D01*
X107500Y117500D02*
X107500D01*
X105000Y120000D02*
X107500Y117500D01*
X70000Y82580D02*
Y137580D01*
X30000Y82580D02*
Y137580D01*
X67500Y82580D02*
X70000D01*
X67500Y137580D02*
X70000D01*
X30000Y82580D02*
X32500D01*
X30000Y137580D02*
X32500D01*
X40000Y105000D02*
X60000D01*
X202500Y132000D02*
X210000Y124500D01*
X217500Y132000D01*
X202500D02*
X217500D01*
X210000Y63000D02*
Y77000D01*
X55000Y43000D02*
Y57000D01*
Y20500D02*
Y34500D01*
X237500Y55000D02*
X302500D01*
Y125000D01*
X237500D02*
X302500D01*
X237500Y55000D02*
Y125000D01*
D11*
X23080Y210082D02*
X28080Y215082D01*
X23080Y210082D02*
X28080Y205082D01*
Y215082D01*
D12*
X187500Y157000D02*
X192500D01*
X232500Y94500D02*
Y157000D01*
X227500D02*
X232500D01*
X187500Y94500D02*
Y157000D01*
Y94500D02*
X192500D01*
X227500D02*
X232500D01*
D13*
X143809Y38652D02*
X136191D01*
Y42461D01*
X137461Y43730D01*
X140000D01*
X141270Y42461D01*
Y38652D01*
Y41191D02*
X143809Y43730D01*
X137461Y46270D02*
X136191Y47539D01*
Y50078D01*
X137461Y51348D01*
X138730D01*
X140000Y50078D01*
X141270Y51348D01*
X142539D01*
X143809Y50078D01*
Y47539D01*
X142539Y46270D01*
X141270D01*
X140000Y47539D01*
X138730Y46270D01*
X137461D01*
X140000Y47539D02*
Y50078D01*
X218809Y38652D02*
X211191D01*
Y42461D01*
X212461Y43730D01*
X215000D01*
X216269Y42461D01*
Y38652D01*
Y41191D02*
X218809Y43730D01*
X211191Y46270D02*
Y51348D01*
X212461D01*
X217539Y46270D01*
X218809D01*
X158809Y38652D02*
X151191D01*
Y42461D01*
X152461Y43730D01*
X155000D01*
X156270Y42461D01*
Y38652D01*
Y41191D02*
X158809Y43730D01*
X151191Y51348D02*
X152461Y48809D01*
X155000Y46270D01*
X157539D01*
X158809Y47539D01*
Y50078D01*
X157539Y51348D01*
X156270D01*
X155000Y50078D01*
Y46270D01*
X203809Y38652D02*
X196191D01*
Y42461D01*
X197461Y43730D01*
X200000D01*
X201270Y42461D01*
Y38652D01*
Y41191D02*
X203809Y43730D01*
X196191Y51348D02*
Y46270D01*
X200000D01*
X198730Y48809D01*
Y50078D01*
X200000Y51348D01*
X202539D01*
X203809Y50078D01*
Y47539D01*
X202539Y46270D01*
X128809Y38652D02*
X121191D01*
Y42461D01*
X122461Y43730D01*
X125000D01*
X126270Y42461D01*
Y38652D01*
Y41191D02*
X128809Y43730D01*
Y50078D02*
X121191D01*
X125000Y46270D01*
Y51348D01*
X113809Y38652D02*
X106191D01*
Y42461D01*
X107461Y43730D01*
X110000D01*
X111270Y42461D01*
Y38652D01*
Y41191D02*
X113809Y43730D01*
X107461Y46270D02*
X106191Y47539D01*
Y50078D01*
X107461Y51348D01*
X108730D01*
X110000Y50078D01*
Y48809D01*
Y50078D01*
X111270Y51348D01*
X112539D01*
X113809Y50078D01*
Y47539D01*
X112539Y46270D01*
X173809Y38652D02*
X166191D01*
Y42461D01*
X167461Y43730D01*
X170000D01*
X171270Y42461D01*
Y38652D01*
Y41191D02*
X173809Y43730D01*
Y51348D02*
Y46270D01*
X168730Y51348D01*
X167461D01*
X166191Y50078D01*
Y47539D01*
X167461Y46270D01*
X98809Y39922D02*
X91191D01*
Y43730D01*
X92461Y45000D01*
X95000D01*
X96270Y43730D01*
Y39922D01*
Y42461D02*
X98809Y45000D01*
Y47539D02*
Y50078D01*
Y48809D01*
X91191D01*
X92461Y47539D01*
X239922Y136309D02*
Y128691D01*
X245000D01*
X247539D02*
X250078D01*
X248809D01*
Y136309D01*
X247539Y135039D01*
X176191Y94922D02*
X183809D01*
Y98730D01*
X182539Y100000D01*
X177461D01*
X176191Y98730D01*
Y94922D01*
X183809Y102539D02*
Y105078D01*
Y103809D01*
X176191D01*
X177461Y102539D01*
X227461Y43730D02*
X226191Y42461D01*
Y39922D01*
X227461Y38652D01*
X232539D01*
X233809Y39922D01*
Y42461D01*
X232539Y43730D01*
X227461Y46270D02*
X226191Y47539D01*
Y50078D01*
X227461Y51348D01*
X228730D01*
X230000Y50078D01*
X231270Y51348D01*
X232539D01*
X233809Y50078D01*
Y47539D01*
X232539Y46270D01*
X231270D01*
X230000Y47539D01*
X228730Y46270D01*
X227461D01*
X230000Y47539D02*
Y50078D01*
X182461Y43730D02*
X181191Y42461D01*
Y39922D01*
X182461Y38652D01*
X187539D01*
X188809Y39922D01*
Y42461D01*
X187539Y43730D01*
X181191Y46270D02*
Y51348D01*
X182461D01*
X187539Y46270D01*
X188809D01*
X253730Y47539D02*
X252461Y48809D01*
X249922D01*
X248652Y47539D01*
Y42461D01*
X249922Y41191D01*
X252461D01*
X253730Y42461D01*
X261348Y48809D02*
X258809Y47539D01*
X256270Y45000D01*
Y42461D01*
X257539Y41191D01*
X260078D01*
X261348Y42461D01*
Y43730D01*
X260078Y45000D01*
X256270D01*
X253730Y32539D02*
X252461Y33809D01*
X249922D01*
X248652Y32539D01*
Y27461D01*
X249922Y26191D01*
X252461D01*
X253730Y27461D01*
X261348Y33809D02*
X256270D01*
Y30000D01*
X258809Y31270D01*
X260078D01*
X261348Y30000D01*
Y27461D01*
X260078Y26191D01*
X257539D01*
X256270Y27461D01*
X253730Y17539D02*
X252461Y18809D01*
X249922D01*
X248652Y17539D01*
Y12461D01*
X249922Y11191D01*
X252461D01*
X253730Y12461D01*
X260078Y11191D02*
Y18809D01*
X256270Y15000D01*
X261348D01*
X182500Y72539D02*
X181230Y73809D01*
X178691D01*
X177422Y72539D01*
Y67461D01*
X178691Y66191D01*
X181230D01*
X182500Y67461D01*
X185039Y66191D02*
X187578D01*
X186309D01*
Y73809D01*
X185039Y72539D01*
X159922Y126309D02*
Y119961D01*
X161191Y118691D01*
X163730D01*
X165000Y119961D01*
Y126309D01*
X167539Y118691D02*
X170078D01*
X168809D01*
Y126309D01*
X167539Y125039D01*
X76191Y109804D02*
Y114882D01*
Y112343D01*
X83809D01*
X76191Y117422D02*
X81270D01*
X83809Y119961D01*
X81270Y122500D01*
X76191D01*
X77461Y130118D02*
X76191Y128848D01*
Y126309D01*
X77461Y125039D01*
X78730D01*
X80000Y126309D01*
Y128848D01*
X81270Y130118D01*
X82539D01*
X83809Y128848D01*
Y126309D01*
X82539Y125039D01*
X83809Y132657D02*
Y135196D01*
Y133926D01*
X76191D01*
X77461Y132657D01*
X23730Y30039D02*
X22461Y31309D01*
X19922D01*
X18652Y30039D01*
Y24961D01*
X19922Y23691D01*
X22461D01*
X23730Y24961D01*
X26270Y30039D02*
X27539Y31309D01*
X30078D01*
X31348Y30039D01*
Y28770D01*
X30078Y27500D01*
X28809D01*
X30078D01*
X31348Y26230D01*
Y24961D01*
X30078Y23691D01*
X27539D01*
X26270Y24961D01*
X23730Y52539D02*
X22461Y53809D01*
X19922D01*
X18652Y52539D01*
Y47461D01*
X19922Y46191D01*
X22461D01*
X23730Y47461D01*
X31348Y46191D02*
X26270D01*
X31348Y51270D01*
Y52539D01*
X30078Y53809D01*
X27539D01*
X26270Y52539D01*
M02*
