G04*
G04 #@! TF.GenerationSoftware,Altium Limited,Altium Designer,24.5.2 (23)*
G04*
G04 Layer_Color=8388736*
%FSLAX44Y44*%
%MOMM*%
G71*
G04*
G04 #@! TF.SameCoordinates,245D8356-CA84-4E05-9727-EF31AAE23950*
G04*
G04*
G04 #@! TF.FilePolarity,Negative*
G04*
G01*
G75*
%ADD13R,2.3000X2.5000*%
%ADD23R,1.7282X0.8532*%
%ADD24R,2.6032X3.3032*%
%ADD25R,1.2732X1.9832*%
%ADD26R,1.2232X1.1432*%
%ADD27R,1.2032X1.1032*%
%ADD28R,1.7532X5.8032*%
%ADD29R,1.1032X1.2032*%
%ADD30R,2.5532X5.8532*%
%ADD31R,2.3532X2.4032*%
G36*
X437753Y241010D02*
X437883Y240984D01*
X438010Y240941D01*
X438129Y240882D01*
X438240Y240808D01*
X438340Y240720D01*
X438428Y240620D01*
X438502Y240509D01*
X438561Y240390D01*
X438604Y240264D01*
X438629Y240133D01*
X438638Y240000D01*
Y230000D01*
X438629Y229867D01*
X438604Y229736D01*
X438561Y229610D01*
X438502Y229491D01*
X438428Y229380D01*
X438340Y229280D01*
X438240Y229192D01*
X438129Y229118D01*
X438010Y229059D01*
X437883Y229016D01*
X437753Y228990D01*
X437620Y228982D01*
X422380Y228982D01*
X422247Y228991D01*
X422117Y229016D01*
X421990Y229059D01*
X421871Y229118D01*
X421760Y229192D01*
X421660Y229280D01*
X421572Y229380D01*
X421498Y229491D01*
X421439Y229610D01*
X421396Y229736D01*
X421371Y229867D01*
X421362Y230000D01*
Y240000D01*
X421371Y240133D01*
X421396Y240264D01*
X421439Y240390D01*
X421498Y240509D01*
X421572Y240620D01*
X421660Y240720D01*
X421760Y240808D01*
X421871Y240882D01*
X421990Y240941D01*
X422117Y240984D01*
X422247Y241010D01*
X422380Y241018D01*
X437620D01*
X437753Y241010D01*
D02*
G37*
G36*
X397753D02*
X397883Y240984D01*
X398010Y240941D01*
X398129Y240882D01*
X398240Y240808D01*
X398340Y240720D01*
X398428Y240620D01*
X398502Y240509D01*
X398561Y240390D01*
X398604Y240264D01*
X398629Y240133D01*
X398638Y240000D01*
Y230000D01*
X398629Y229867D01*
X398604Y229736D01*
X398561Y229610D01*
X398502Y229491D01*
X398428Y229380D01*
X398340Y229280D01*
X398240Y229192D01*
X398129Y229118D01*
X398010Y229059D01*
X397883Y229016D01*
X397753Y228990D01*
X397620Y228982D01*
X382380Y228982D01*
X382247Y228991D01*
X382117Y229016D01*
X381990Y229059D01*
X381871Y229118D01*
X381760Y229192D01*
X381660Y229280D01*
X381572Y229380D01*
X381498Y229491D01*
X381439Y229610D01*
X381396Y229736D01*
X381371Y229867D01*
X381362Y230000D01*
Y240000D01*
X381371Y240133D01*
X381396Y240264D01*
X381439Y240390D01*
X381498Y240509D01*
X381572Y240620D01*
X381660Y240720D01*
X381760Y240808D01*
X381871Y240882D01*
X381990Y240941D01*
X382117Y240984D01*
X382247Y241010D01*
X382380Y241018D01*
X397620D01*
X397753Y241010D01*
D02*
G37*
G36*
X377753D02*
X377883Y240984D01*
X378010Y240941D01*
X378129Y240882D01*
X378240Y240808D01*
X378340Y240720D01*
X378428Y240620D01*
X378502Y240509D01*
X378561Y240390D01*
X378604Y240264D01*
X378629Y240133D01*
X378638Y240000D01*
Y230000D01*
X378629Y229867D01*
X378604Y229736D01*
X378561Y229610D01*
X378502Y229491D01*
X378428Y229380D01*
X378340Y229280D01*
X378240Y229192D01*
X378129Y229118D01*
X378010Y229059D01*
X377883Y229016D01*
X377753Y228990D01*
X377620Y228982D01*
X362380Y228982D01*
X362247Y228991D01*
X362117Y229016D01*
X361990Y229059D01*
X361871Y229118D01*
X361760Y229192D01*
X361660Y229280D01*
X361572Y229380D01*
X361498Y229491D01*
X361439Y229610D01*
X361396Y229736D01*
X361371Y229867D01*
X361362Y230000D01*
Y240000D01*
X361371Y240133D01*
X361396Y240264D01*
X361439Y240390D01*
X361498Y240509D01*
X361572Y240620D01*
X361660Y240720D01*
X361760Y240808D01*
X361871Y240882D01*
X361990Y240941D01*
X362117Y240984D01*
X362247Y241010D01*
X362380Y241018D01*
X377620D01*
X377753Y241010D01*
D02*
G37*
G36*
X357753D02*
X357883Y240984D01*
X358010Y240941D01*
X358129Y240882D01*
X358240Y240808D01*
X358340Y240720D01*
X358428Y240620D01*
X358502Y240509D01*
X358561Y240390D01*
X358604Y240264D01*
X358629Y240133D01*
X358638Y240000D01*
Y230000D01*
X358629Y229867D01*
X358604Y229736D01*
X358561Y229610D01*
X358502Y229491D01*
X358428Y229380D01*
X358340Y229280D01*
X358240Y229192D01*
X358129Y229118D01*
X358010Y229059D01*
X357883Y229016D01*
X357753Y228990D01*
X357620Y228982D01*
X342380Y228982D01*
X342247Y228991D01*
X342117Y229016D01*
X341990Y229059D01*
X341871Y229118D01*
X341760Y229192D01*
X341660Y229280D01*
X341572Y229380D01*
X341498Y229491D01*
X341439Y229610D01*
X341396Y229736D01*
X341371Y229867D01*
X341362Y230000D01*
Y240000D01*
X341371Y240133D01*
X341396Y240264D01*
X341439Y240390D01*
X341498Y240509D01*
X341572Y240620D01*
X341660Y240720D01*
X341760Y240808D01*
X341871Y240882D01*
X341990Y240941D01*
X342117Y240984D01*
X342247Y241010D01*
X342380Y241018D01*
X357620D01*
X357753Y241010D01*
D02*
G37*
G36*
X337753D02*
X337883Y240984D01*
X338010Y240941D01*
X338129Y240882D01*
X338240Y240808D01*
X338340Y240720D01*
X338428Y240620D01*
X338502Y240509D01*
X338561Y240390D01*
X338604Y240264D01*
X338629Y240133D01*
X338638Y240000D01*
Y230000D01*
X338629Y229867D01*
X338604Y229736D01*
X338561Y229610D01*
X338502Y229491D01*
X338428Y229380D01*
X338340Y229280D01*
X338240Y229192D01*
X338129Y229118D01*
X338010Y229059D01*
X337883Y229016D01*
X337753Y228990D01*
X337620Y228982D01*
X322380Y228982D01*
X322247Y228991D01*
X322117Y229016D01*
X321990Y229059D01*
X321871Y229118D01*
X321760Y229192D01*
X321660Y229280D01*
X321572Y229380D01*
X321498Y229491D01*
X321439Y229610D01*
X321396Y229736D01*
X321371Y229867D01*
X321362Y230000D01*
Y240000D01*
X321371Y240133D01*
X321396Y240264D01*
X321439Y240390D01*
X321498Y240509D01*
X321572Y240620D01*
X321660Y240720D01*
X321760Y240808D01*
X321871Y240882D01*
X321990Y240941D01*
X322117Y240984D01*
X322247Y241010D01*
X322380Y241018D01*
X337620D01*
X337753Y241010D01*
D02*
G37*
G36*
X317753D02*
X317883Y240984D01*
X318010Y240941D01*
X318129Y240882D01*
X318240Y240808D01*
X318340Y240720D01*
X318428Y240620D01*
X318502Y240509D01*
X318561Y240390D01*
X318603Y240264D01*
X318629Y240133D01*
X318638Y240000D01*
Y230000D01*
X318629Y229867D01*
X318603Y229736D01*
X318561Y229610D01*
X318502Y229491D01*
X318428Y229380D01*
X318340Y229280D01*
X318240Y229192D01*
X318129Y229118D01*
X318010Y229059D01*
X317883Y229016D01*
X317753Y228990D01*
X317620Y228982D01*
X302380Y228982D01*
X302247Y228991D01*
X302117Y229016D01*
X301990Y229059D01*
X301871Y229118D01*
X301760Y229192D01*
X301660Y229280D01*
X301572Y229380D01*
X301498Y229491D01*
X301439Y229610D01*
X301397Y229736D01*
X301371Y229867D01*
X301362Y230000D01*
Y240000D01*
X301371Y240133D01*
X301397Y240264D01*
X301439Y240390D01*
X301498Y240509D01*
X301572Y240620D01*
X301660Y240720D01*
X301760Y240808D01*
X301871Y240882D01*
X301990Y240941D01*
X302117Y240984D01*
X302247Y241010D01*
X302380Y241018D01*
X317620D01*
X317753Y241010D01*
D02*
G37*
G36*
X297753D02*
X297883Y240984D01*
X298010Y240941D01*
X298129Y240882D01*
X298240Y240808D01*
X298340Y240720D01*
X298428Y240620D01*
X298502Y240509D01*
X298561Y240390D01*
X298603Y240264D01*
X298629Y240133D01*
X298638Y240000D01*
Y230000D01*
X298629Y229867D01*
X298603Y229736D01*
X298561Y229610D01*
X298502Y229491D01*
X298428Y229380D01*
X298340Y229280D01*
X298240Y229192D01*
X298129Y229118D01*
X298010Y229059D01*
X297883Y229016D01*
X297753Y228990D01*
X297620Y228982D01*
X282380Y228982D01*
X282247Y228991D01*
X282117Y229016D01*
X281990Y229059D01*
X281871Y229118D01*
X281760Y229192D01*
X281660Y229280D01*
X281572Y229380D01*
X281498Y229491D01*
X281439Y229610D01*
X281397Y229736D01*
X281371Y229867D01*
X281362Y230000D01*
Y240000D01*
X281371Y240133D01*
X281397Y240264D01*
X281439Y240390D01*
X281498Y240509D01*
X281572Y240620D01*
X281660Y240720D01*
X281760Y240808D01*
X281871Y240882D01*
X281990Y240941D01*
X282117Y240984D01*
X282247Y241010D01*
X282380Y241018D01*
X297620D01*
X297753Y241010D01*
D02*
G37*
G36*
X277753D02*
X277883Y240984D01*
X278010Y240941D01*
X278129Y240882D01*
X278240Y240808D01*
X278340Y240720D01*
X278428Y240620D01*
X278502Y240509D01*
X278561Y240390D01*
X278603Y240264D01*
X278629Y240133D01*
X278638Y240000D01*
Y230000D01*
X278629Y229867D01*
X278603Y229736D01*
X278561Y229610D01*
X278502Y229491D01*
X278428Y229380D01*
X278340Y229280D01*
X278240Y229192D01*
X278129Y229118D01*
X278010Y229059D01*
X277883Y229016D01*
X277753Y228990D01*
X277620Y228982D01*
X262380Y228982D01*
X262247Y228991D01*
X262117Y229016D01*
X261990Y229059D01*
X261871Y229118D01*
X261760Y229192D01*
X261660Y229280D01*
X261572Y229380D01*
X261498Y229491D01*
X261439Y229610D01*
X261397Y229736D01*
X261371Y229867D01*
X261362Y230000D01*
Y240000D01*
X261371Y240133D01*
X261397Y240264D01*
X261439Y240390D01*
X261498Y240509D01*
X261572Y240620D01*
X261660Y240720D01*
X261760Y240808D01*
X261871Y240882D01*
X261990Y240941D01*
X262117Y240984D01*
X262247Y241010D01*
X262380Y241018D01*
X277620D01*
X277753Y241010D01*
D02*
G37*
G36*
X257753D02*
X257883Y240984D01*
X258010Y240941D01*
X258129Y240882D01*
X258240Y240808D01*
X258340Y240720D01*
X258428Y240620D01*
X258502Y240509D01*
X258561Y240390D01*
X258603Y240264D01*
X258629Y240133D01*
X258638Y240000D01*
Y230000D01*
X258629Y229867D01*
X258603Y229736D01*
X258561Y229610D01*
X258502Y229491D01*
X258428Y229380D01*
X258340Y229280D01*
X258240Y229192D01*
X258129Y229118D01*
X258010Y229059D01*
X257883Y229016D01*
X257753Y228990D01*
X257620Y228982D01*
X242380Y228982D01*
X242247Y228991D01*
X242117Y229016D01*
X241990Y229059D01*
X241871Y229118D01*
X241760Y229192D01*
X241660Y229280D01*
X241572Y229380D01*
X241498Y229491D01*
X241439Y229610D01*
X241397Y229736D01*
X241371Y229867D01*
X241362Y230000D01*
Y240000D01*
X241371Y240133D01*
X241397Y240264D01*
X241439Y240390D01*
X241498Y240509D01*
X241572Y240620D01*
X241660Y240720D01*
X241760Y240808D01*
X241871Y240882D01*
X241990Y240941D01*
X242117Y240984D01*
X242247Y241010D01*
X242380Y241018D01*
X257620D01*
X257753Y241010D01*
D02*
G37*
G36*
X237753D02*
X237883Y240984D01*
X238010Y240941D01*
X238129Y240882D01*
X238240Y240808D01*
X238340Y240720D01*
X238428Y240620D01*
X238502Y240509D01*
X238561Y240390D01*
X238603Y240264D01*
X238629Y240133D01*
X238638Y240000D01*
Y230000D01*
X238629Y229867D01*
X238603Y229736D01*
X238561Y229610D01*
X238502Y229491D01*
X238428Y229380D01*
X238340Y229280D01*
X238240Y229192D01*
X238129Y229118D01*
X238010Y229059D01*
X237883Y229016D01*
X237753Y228990D01*
X237620Y228982D01*
X222380Y228982D01*
X222247Y228991D01*
X222117Y229016D01*
X221990Y229059D01*
X221871Y229118D01*
X221760Y229192D01*
X221660Y229280D01*
X221572Y229380D01*
X221498Y229491D01*
X221439Y229610D01*
X221397Y229736D01*
X221371Y229867D01*
X221362Y230000D01*
Y240000D01*
X221371Y240133D01*
X221397Y240264D01*
X221439Y240390D01*
X221498Y240509D01*
X221572Y240620D01*
X221660Y240720D01*
X221760Y240808D01*
X221871Y240882D01*
X221990Y240941D01*
X222117Y240984D01*
X222247Y241010D01*
X222380Y241018D01*
X237620D01*
X237753Y241010D01*
D02*
G37*
G36*
X177753D02*
X177883Y240984D01*
X178010Y240941D01*
X178129Y240882D01*
X178240Y240808D01*
X178340Y240720D01*
X178428Y240620D01*
X178502Y240509D01*
X178561Y240390D01*
X178603Y240264D01*
X178629Y240133D01*
X178638Y240000D01*
Y230000D01*
X178629Y229867D01*
X178603Y229736D01*
X178561Y229610D01*
X178502Y229491D01*
X178428Y229380D01*
X178340Y229280D01*
X178240Y229192D01*
X178129Y229118D01*
X178010Y229059D01*
X177883Y229016D01*
X177753Y228990D01*
X177620Y228982D01*
X162380Y228982D01*
X162247Y228991D01*
X162117Y229016D01*
X161990Y229059D01*
X161871Y229118D01*
X161760Y229192D01*
X161660Y229280D01*
X161572Y229380D01*
X161498Y229491D01*
X161439Y229610D01*
X161397Y229736D01*
X161371Y229867D01*
X161362Y230000D01*
Y240000D01*
X161371Y240133D01*
X161397Y240264D01*
X161439Y240390D01*
X161498Y240509D01*
X161572Y240620D01*
X161660Y240720D01*
X161760Y240808D01*
X161871Y240882D01*
X161990Y240941D01*
X162117Y240984D01*
X162247Y241010D01*
X162380Y241018D01*
X177620D01*
X177753Y241010D01*
D02*
G37*
G36*
X157753D02*
X157884Y240984D01*
X158010Y240941D01*
X158129Y240882D01*
X158240Y240808D01*
X158340Y240720D01*
X158428Y240620D01*
X158502Y240509D01*
X158561Y240390D01*
X158603Y240264D01*
X158630Y240133D01*
X158638Y240000D01*
Y230000D01*
X158630Y229867D01*
X158603Y229736D01*
X158561Y229610D01*
X158502Y229491D01*
X158428Y229380D01*
X158340Y229280D01*
X158240Y229192D01*
X158129Y229118D01*
X158010Y229059D01*
X157884Y229016D01*
X157753Y228990D01*
X157620Y228982D01*
X142380Y228982D01*
X142247Y228991D01*
X142116Y229016D01*
X141990Y229059D01*
X141871Y229118D01*
X141760Y229192D01*
X141660Y229280D01*
X141572Y229380D01*
X141498Y229491D01*
X141439Y229610D01*
X141397Y229736D01*
X141370Y229867D01*
X141362Y230000D01*
Y240000D01*
X141370Y240133D01*
X141397Y240264D01*
X141439Y240390D01*
X141498Y240509D01*
X141572Y240620D01*
X141660Y240720D01*
X141760Y240808D01*
X141871Y240882D01*
X141990Y240941D01*
X142116Y240984D01*
X142247Y241010D01*
X142380Y241018D01*
X157620D01*
X157753Y241010D01*
D02*
G37*
G36*
X137753D02*
X137884Y240984D01*
X138010Y240941D01*
X138129Y240882D01*
X138240Y240808D01*
X138340Y240720D01*
X138428Y240620D01*
X138502Y240509D01*
X138561Y240390D01*
X138603Y240264D01*
X138630Y240133D01*
X138638Y240000D01*
Y230000D01*
X138630Y229867D01*
X138603Y229736D01*
X138561Y229610D01*
X138502Y229491D01*
X138428Y229380D01*
X138340Y229280D01*
X138240Y229192D01*
X138129Y229118D01*
X138010Y229059D01*
X137884Y229016D01*
X137753Y228990D01*
X137620Y228982D01*
X122380Y228982D01*
X122247Y228991D01*
X122116Y229016D01*
X121990Y229059D01*
X121871Y229118D01*
X121760Y229192D01*
X121660Y229280D01*
X121572Y229380D01*
X121498Y229491D01*
X121439Y229610D01*
X121397Y229736D01*
X121370Y229867D01*
X121362Y230000D01*
Y240000D01*
X121370Y240133D01*
X121397Y240264D01*
X121439Y240390D01*
X121498Y240509D01*
X121572Y240620D01*
X121660Y240720D01*
X121760Y240808D01*
X121871Y240882D01*
X121990Y240941D01*
X122116Y240984D01*
X122247Y241010D01*
X122380Y241018D01*
X137620D01*
X137753Y241010D01*
D02*
G37*
G36*
X117753D02*
X117884Y240984D01*
X118010Y240941D01*
X118129Y240882D01*
X118240Y240808D01*
X118340Y240720D01*
X118428Y240620D01*
X118502Y240509D01*
X118561Y240390D01*
X118603Y240264D01*
X118630Y240133D01*
X118638Y240000D01*
Y230000D01*
X118630Y229867D01*
X118603Y229736D01*
X118561Y229610D01*
X118502Y229491D01*
X118428Y229380D01*
X118340Y229280D01*
X118240Y229192D01*
X118129Y229118D01*
X118010Y229059D01*
X117884Y229016D01*
X117753Y228990D01*
X117620Y228982D01*
X102380Y228982D01*
X102247Y228991D01*
X102116Y229016D01*
X101990Y229059D01*
X101871Y229118D01*
X101760Y229192D01*
X101660Y229280D01*
X101572Y229380D01*
X101498Y229491D01*
X101439Y229610D01*
X101397Y229736D01*
X101370Y229867D01*
X101362Y230000D01*
Y240000D01*
X101370Y240133D01*
X101397Y240264D01*
X101439Y240390D01*
X101498Y240509D01*
X101572Y240620D01*
X101660Y240720D01*
X101760Y240808D01*
X101871Y240882D01*
X101990Y240941D01*
X102116Y240984D01*
X102247Y241010D01*
X102380Y241018D01*
X117620D01*
X117753Y241010D01*
D02*
G37*
G36*
X97753D02*
X97884Y240984D01*
X98010Y240941D01*
X98129Y240882D01*
X98240Y240808D01*
X98340Y240720D01*
X98428Y240620D01*
X98502Y240509D01*
X98561Y240390D01*
X98603Y240264D01*
X98630Y240133D01*
X98638Y240000D01*
Y230000D01*
X98630Y229867D01*
X98603Y229736D01*
X98561Y229610D01*
X98502Y229491D01*
X98428Y229380D01*
X98340Y229280D01*
X98240Y229192D01*
X98129Y229118D01*
X98010Y229059D01*
X97884Y229016D01*
X97753Y228990D01*
X97620Y228982D01*
X82380Y228982D01*
X82247Y228991D01*
X82116Y229016D01*
X81990Y229059D01*
X81871Y229118D01*
X81760Y229192D01*
X81660Y229280D01*
X81572Y229380D01*
X81498Y229491D01*
X81439Y229610D01*
X81397Y229736D01*
X81370Y229867D01*
X81362Y230000D01*
Y240000D01*
X81370Y240133D01*
X81397Y240264D01*
X81439Y240390D01*
X81498Y240509D01*
X81572Y240620D01*
X81660Y240720D01*
X81760Y240808D01*
X81871Y240882D01*
X81990Y240941D01*
X82116Y240984D01*
X82247Y241010D01*
X82380Y241018D01*
X97620D01*
X97753Y241010D01*
D02*
G37*
G36*
X57753D02*
X57884Y240984D01*
X58010Y240941D01*
X58129Y240882D01*
X58240Y240808D01*
X58340Y240720D01*
X58428Y240620D01*
X58502Y240509D01*
X58561Y240390D01*
X58604Y240264D01*
X58629Y240133D01*
X58638Y240000D01*
Y230000D01*
X58629Y229867D01*
X58604Y229736D01*
X58561Y229610D01*
X58502Y229491D01*
X58428Y229380D01*
X58340Y229280D01*
X58240Y229192D01*
X58129Y229118D01*
X58010Y229059D01*
X57884Y229016D01*
X57753Y228990D01*
X57620Y228982D01*
X42380Y228982D01*
X42247Y228991D01*
X42116Y229016D01*
X41990Y229059D01*
X41871Y229118D01*
X41760Y229192D01*
X41660Y229280D01*
X41572Y229380D01*
X41498Y229491D01*
X41439Y229610D01*
X41396Y229736D01*
X41371Y229867D01*
X41362Y230000D01*
Y240000D01*
X41371Y240133D01*
X41396Y240264D01*
X41439Y240390D01*
X41498Y240509D01*
X41572Y240620D01*
X41660Y240720D01*
X41760Y240808D01*
X41871Y240882D01*
X41990Y240941D01*
X42116Y240984D01*
X42247Y241010D01*
X42380Y241018D01*
X57620D01*
X57753Y241010D01*
D02*
G37*
G36*
X37753D02*
X37884Y240984D01*
X38010Y240941D01*
X38129Y240882D01*
X38240Y240808D01*
X38340Y240720D01*
X38428Y240620D01*
X38502Y240509D01*
X38561Y240390D01*
X38603Y240264D01*
X38630Y240133D01*
X38638Y240000D01*
Y230000D01*
X38630Y229867D01*
X38603Y229736D01*
X38561Y229610D01*
X38502Y229491D01*
X38428Y229380D01*
X38340Y229280D01*
X38240Y229192D01*
X38129Y229118D01*
X38010Y229059D01*
X37884Y229016D01*
X37753Y228990D01*
X37620Y228982D01*
X22380Y228982D01*
X22247Y228991D01*
X22116Y229016D01*
X21990Y229059D01*
X21871Y229118D01*
X21760Y229192D01*
X21660Y229280D01*
X21572Y229380D01*
X21498Y229491D01*
X21439Y229610D01*
X21397Y229736D01*
X21370Y229867D01*
X21362Y230000D01*
Y240000D01*
X21370Y240133D01*
X21397Y240264D01*
X21439Y240390D01*
X21498Y240509D01*
X21572Y240620D01*
X21660Y240720D01*
X21760Y240808D01*
X21871Y240882D01*
X21990Y240941D01*
X22116Y240984D01*
X22247Y241010D01*
X22380Y241018D01*
X37620D01*
X37753Y241010D01*
D02*
G37*
G36*
X17753D02*
X17883Y240984D01*
X18010Y240941D01*
X18129Y240882D01*
X18240Y240808D01*
X18340Y240720D01*
X18428Y240620D01*
X18502Y240509D01*
X18561Y240390D01*
X18604Y240264D01*
X18629Y240133D01*
X18638Y240000D01*
Y230000D01*
X18629Y229867D01*
X18604Y229736D01*
X18561Y229610D01*
X18502Y229491D01*
X18428Y229380D01*
X18340Y229280D01*
X18240Y229192D01*
X18129Y229118D01*
X18010Y229059D01*
X17883Y229016D01*
X17753Y228990D01*
X17620Y228982D01*
X2380Y228982D01*
X2247Y228991D01*
X2116Y229016D01*
X1990Y229059D01*
X1871Y229118D01*
X1760Y229192D01*
X1660Y229280D01*
X1572Y229380D01*
X1498Y229491D01*
X1439Y229610D01*
X1397Y229736D01*
X1371Y229867D01*
X1362Y230000D01*
Y240000D01*
X1371Y240133D01*
X1397Y240264D01*
X1439Y240390D01*
X1498Y240509D01*
X1572Y240620D01*
X1660Y240720D01*
X1760Y240808D01*
X1871Y240882D01*
X1990Y240941D01*
X2116Y240984D01*
X2247Y241010D01*
X2380Y241018D01*
X17620D01*
X17753Y241010D01*
D02*
G37*
G36*
X417753Y241009D02*
X417883Y240984D01*
X418010Y240941D01*
X418129Y240882D01*
X418240Y240808D01*
X418340Y240720D01*
X418428Y240620D01*
X418502Y240509D01*
X418561Y240390D01*
X418604Y240264D01*
X418629Y240133D01*
X418638Y240000D01*
Y230000D01*
X418629Y229867D01*
X418604Y229736D01*
X418561Y229610D01*
X418502Y229491D01*
X418428Y229380D01*
X418340Y229280D01*
X418240Y229192D01*
X418129Y229118D01*
X418010Y229059D01*
X417883Y229016D01*
X417753Y228990D01*
X417620Y228982D01*
X402380Y228982D01*
X402247Y228990D01*
X402116Y229016D01*
X401990Y229059D01*
X401871Y229118D01*
X401760Y229192D01*
X401660Y229280D01*
X401572Y229380D01*
X401498Y229491D01*
X401439Y229610D01*
X401396Y229736D01*
X401371Y229867D01*
X401362Y230000D01*
Y240000D01*
X401371Y240133D01*
X401396Y240264D01*
X401439Y240390D01*
X401498Y240509D01*
X401572Y240620D01*
X401660Y240720D01*
X401760Y240808D01*
X401871Y240882D01*
X401990Y240941D01*
X402116Y240984D01*
X402247Y241009D01*
X402380Y241018D01*
X417620D01*
X417753Y241009D01*
D02*
G37*
G36*
X217753D02*
X217883Y240984D01*
X218010Y240941D01*
X218129Y240882D01*
X218240Y240808D01*
X218340Y240720D01*
X218428Y240620D01*
X218502Y240509D01*
X218561Y240390D01*
X218603Y240264D01*
X218629Y240133D01*
X218638Y240000D01*
Y230000D01*
X218629Y229867D01*
X218603Y229736D01*
X218561Y229610D01*
X218502Y229491D01*
X218428Y229380D01*
X218340Y229280D01*
X218240Y229192D01*
X218129Y229118D01*
X218010Y229059D01*
X217883Y229016D01*
X217753Y228990D01*
X217620Y228982D01*
X202380Y228982D01*
X202247Y228990D01*
X202117Y229016D01*
X201990Y229059D01*
X201871Y229118D01*
X201760Y229192D01*
X201660Y229280D01*
X201572Y229380D01*
X201498Y229491D01*
X201439Y229610D01*
X201397Y229736D01*
X201371Y229867D01*
X201362Y230000D01*
Y240000D01*
X201371Y240133D01*
X201397Y240264D01*
X201439Y240390D01*
X201498Y240509D01*
X201572Y240620D01*
X201660Y240720D01*
X201760Y240808D01*
X201871Y240882D01*
X201990Y240941D01*
X202117Y240984D01*
X202247Y241009D01*
X202380Y241018D01*
X217620D01*
X217753Y241009D01*
D02*
G37*
G36*
X197753D02*
X197883Y240984D01*
X198010Y240941D01*
X198129Y240882D01*
X198240Y240808D01*
X198340Y240720D01*
X198428Y240620D01*
X198502Y240509D01*
X198561Y240390D01*
X198603Y240264D01*
X198629Y240133D01*
X198638Y240000D01*
Y230000D01*
X198629Y229867D01*
X198603Y229736D01*
X198561Y229610D01*
X198502Y229491D01*
X198428Y229380D01*
X198340Y229280D01*
X198240Y229192D01*
X198129Y229118D01*
X198010Y229059D01*
X197883Y229016D01*
X197753Y228990D01*
X197620Y228982D01*
X182380Y228982D01*
X182247Y228990D01*
X182117Y229016D01*
X181990Y229059D01*
X181871Y229118D01*
X181760Y229192D01*
X181660Y229280D01*
X181572Y229380D01*
X181498Y229491D01*
X181439Y229610D01*
X181397Y229736D01*
X181371Y229867D01*
X181362Y230000D01*
Y240000D01*
X181371Y240133D01*
X181397Y240264D01*
X181439Y240390D01*
X181498Y240509D01*
X181572Y240620D01*
X181660Y240720D01*
X181760Y240808D01*
X181871Y240882D01*
X181990Y240941D01*
X182117Y240984D01*
X182247Y241009D01*
X182380Y241018D01*
X197620D01*
X197753Y241009D01*
D02*
G37*
G36*
X77753D02*
X77884Y240984D01*
X78010Y240941D01*
X78129Y240882D01*
X78240Y240808D01*
X78340Y240720D01*
X78428Y240620D01*
X78502Y240509D01*
X78561Y240390D01*
X78604Y240264D01*
X78629Y240133D01*
X78638Y240000D01*
Y230000D01*
X78629Y229867D01*
X78604Y229736D01*
X78561Y229610D01*
X78502Y229491D01*
X78428Y229380D01*
X78340Y229280D01*
X78240Y229192D01*
X78129Y229118D01*
X78010Y229059D01*
X77884Y229016D01*
X77753Y228990D01*
X77620Y228982D01*
X62380Y228982D01*
X62247Y228990D01*
X62116Y229016D01*
X61990Y229059D01*
X61871Y229118D01*
X61760Y229192D01*
X61660Y229280D01*
X61572Y229380D01*
X61498Y229491D01*
X61439Y229610D01*
X61396Y229736D01*
X61371Y229867D01*
X61362Y230000D01*
Y240000D01*
X61371Y240133D01*
X61396Y240264D01*
X61439Y240390D01*
X61498Y240509D01*
X61572Y240620D01*
X61660Y240720D01*
X61760Y240808D01*
X61871Y240882D01*
X61990Y240941D01*
X62116Y240984D01*
X62247Y241009D01*
X62380Y241018D01*
X77620D01*
X77753Y241009D01*
D02*
G37*
G36*
X362633Y221010D02*
X362763Y220984D01*
X362890Y220941D01*
X363009Y220882D01*
X363120Y220808D01*
X363220Y220720D01*
X365720Y218220D01*
X365808Y218120D01*
X365882Y218009D01*
X365941Y217890D01*
X365984Y217764D01*
X366009Y217633D01*
X366018Y217500D01*
Y212500D01*
X366009Y212367D01*
X365984Y212236D01*
X365941Y212110D01*
X365882Y211991D01*
X365808Y211880D01*
X365720Y211780D01*
X363220Y209280D01*
X363120Y209192D01*
X363009Y209118D01*
X362890Y209059D01*
X362763Y209016D01*
X362633Y208990D01*
X362500Y208982D01*
X317500D01*
X317367Y208990D01*
X317236Y209016D01*
X317110Y209059D01*
X316991Y209118D01*
X316880Y209192D01*
X316780Y209280D01*
X314280Y211780D01*
X314192Y211880D01*
X314118Y211991D01*
X314059Y212110D01*
X314016Y212236D01*
X313990Y212367D01*
X313982Y212500D01*
Y217500D01*
X313990Y217633D01*
X314016Y217764D01*
X314059Y217890D01*
X314118Y218009D01*
X314192Y218120D01*
X314280Y218220D01*
X316780Y220720D01*
X316880Y220808D01*
X316991Y220882D01*
X317110Y220941D01*
X317236Y220984D01*
X317367Y221010D01*
X317500Y221018D01*
X362500D01*
X362633Y221010D01*
D02*
G37*
G36*
X287633D02*
X287764Y220984D01*
X287890Y220941D01*
X288009Y220882D01*
X288120Y220808D01*
X288220Y220720D01*
X290720Y218220D01*
X290808Y218120D01*
X290882Y218009D01*
X290941Y217890D01*
X290984Y217764D01*
X291010Y217633D01*
X291018Y217500D01*
Y212500D01*
X291010Y212367D01*
X290984Y212236D01*
X290941Y212110D01*
X290882Y211991D01*
X290808Y211880D01*
X290720Y211780D01*
X288220Y209280D01*
X288120Y209192D01*
X288009Y209118D01*
X287890Y209059D01*
X287764Y209016D01*
X287633Y208990D01*
X287500Y208982D01*
X242500D01*
X242367Y208990D01*
X242236Y209016D01*
X242110Y209059D01*
X241991Y209118D01*
X241880Y209192D01*
X241780Y209280D01*
X239280Y211780D01*
X239192Y211880D01*
X239118Y211991D01*
X239059Y212110D01*
X239016Y212236D01*
X238990Y212367D01*
X238982Y212500D01*
Y217500D01*
X238990Y217633D01*
X239016Y217764D01*
X239059Y217890D01*
X239118Y218009D01*
X239192Y218120D01*
X239280Y218220D01*
X241780Y220720D01*
X241880Y220808D01*
X241991Y220882D01*
X242110Y220941D01*
X242236Y220984D01*
X242367Y221010D01*
X242500Y221018D01*
X287500D01*
X287633Y221010D01*
D02*
G37*
G36*
X450133Y218629D02*
X450263Y218603D01*
X450390Y218561D01*
X450509Y218502D01*
X450620Y218428D01*
X450720Y218340D01*
X450808Y218240D01*
X450882Y218129D01*
X450941Y218010D01*
X450984Y217883D01*
X451009Y217753D01*
X451018Y217620D01*
Y202380D01*
X451009Y202247D01*
X450984Y202117D01*
X450941Y201990D01*
X450882Y201871D01*
X450808Y201760D01*
X450720Y201660D01*
X450620Y201572D01*
X450509Y201498D01*
X450390Y201439D01*
X450263Y201397D01*
X450133Y201371D01*
X450000Y201362D01*
X440000D01*
X439867Y201371D01*
X439737Y201397D01*
X439610Y201439D01*
X439491Y201498D01*
X439380Y201572D01*
X439280Y201660D01*
X439192Y201760D01*
X439118Y201871D01*
X439059Y201990D01*
X439016Y202117D01*
X438991Y202247D01*
X438982Y202380D01*
X438982Y217620D01*
X438991Y217753D01*
X439016Y217883D01*
X439059Y218010D01*
X439118Y218129D01*
X439192Y218240D01*
X439280Y218340D01*
X439380Y218428D01*
X439491Y218502D01*
X439610Y218561D01*
X439737Y218603D01*
X439867Y218629D01*
X440000Y218638D01*
X450000D01*
X450133Y218629D01*
D02*
G37*
G36*
X10133D02*
X10264Y218603D01*
X10390Y218561D01*
X10509Y218502D01*
X10620Y218428D01*
X10720Y218340D01*
X10808Y218240D01*
X10882Y218129D01*
X10941Y218010D01*
X10984Y217883D01*
X11010Y217753D01*
X11018Y217620D01*
X11018Y202380D01*
X11010Y202247D01*
X10984Y202117D01*
X10941Y201990D01*
X10882Y201871D01*
X10808Y201760D01*
X10720Y201660D01*
X10620Y201572D01*
X10509Y201498D01*
X10390Y201439D01*
X10264Y201397D01*
X10133Y201371D01*
X10000Y201362D01*
X0D01*
X-133Y201371D01*
X-264Y201397D01*
X-390Y201439D01*
X-509Y201498D01*
X-620Y201572D01*
X-720Y201660D01*
X-808Y201760D01*
X-882Y201871D01*
X-941Y201990D01*
X-984Y202117D01*
X-1010Y202247D01*
X-1018Y202380D01*
Y217620D01*
X-1010Y217753D01*
X-984Y217883D01*
X-941Y218010D01*
X-882Y218129D01*
X-808Y218240D01*
X-720Y218340D01*
X-620Y218428D01*
X-509Y218502D01*
X-390Y218561D01*
X-264Y218603D01*
X-133Y218629D01*
X0Y218638D01*
X10000D01*
X10133Y218629D01*
D02*
G37*
G36*
X217633Y206010D02*
X217764Y205984D01*
X217890Y205941D01*
X218009Y205882D01*
X218120Y205808D01*
X218220Y205720D01*
X220720Y203220D01*
X220808Y203120D01*
X220882Y203009D01*
X220941Y202890D01*
X220984Y202764D01*
X221010Y202633D01*
X221018Y202500D01*
Y197500D01*
X221010Y197367D01*
X220984Y197236D01*
X220941Y197110D01*
X220882Y196991D01*
X220808Y196880D01*
X220720Y196780D01*
X218220Y194280D01*
X218120Y194192D01*
X218009Y194118D01*
X217890Y194059D01*
X217764Y194016D01*
X217633Y193990D01*
X217500Y193982D01*
X172500D01*
X172367Y193990D01*
X172236Y194016D01*
X172110Y194059D01*
X171991Y194118D01*
X171880Y194192D01*
X171780Y194280D01*
X169280Y196780D01*
X169192Y196880D01*
X169118Y196991D01*
X169059Y197110D01*
X169016Y197236D01*
X168990Y197367D01*
X168982Y197500D01*
Y202500D01*
X168990Y202633D01*
X169016Y202764D01*
X169059Y202890D01*
X169118Y203009D01*
X169192Y203120D01*
X169280Y203220D01*
X171780Y205720D01*
X171880Y205808D01*
X171991Y205882D01*
X172110Y205941D01*
X172236Y205984D01*
X172367Y206010D01*
X172500Y206018D01*
X217500D01*
X217633Y206010D01*
D02*
G37*
G36*
X147633D02*
X147764Y205984D01*
X147890Y205941D01*
X148009Y205882D01*
X148120Y205808D01*
X148220Y205720D01*
X150720Y203220D01*
X150808Y203120D01*
X150882Y203009D01*
X150941Y202890D01*
X150983Y202764D01*
X151010Y202633D01*
X151018Y202500D01*
Y197500D01*
X151010Y197367D01*
X150983Y197236D01*
X150941Y197110D01*
X150882Y196991D01*
X150808Y196880D01*
X150720Y196780D01*
X148220Y194280D01*
X148120Y194192D01*
X148009Y194118D01*
X147890Y194059D01*
X147764Y194016D01*
X147633Y193990D01*
X147500Y193982D01*
X102500D01*
X102367Y193990D01*
X102236Y194016D01*
X102110Y194059D01*
X101991Y194118D01*
X101880Y194192D01*
X101780Y194280D01*
X99280Y196780D01*
X99192Y196880D01*
X99118Y196991D01*
X99059Y197110D01*
X99017Y197236D01*
X98990Y197367D01*
X98982Y197500D01*
Y202500D01*
X98990Y202633D01*
X99017Y202764D01*
X99059Y202890D01*
X99118Y203009D01*
X99192Y203120D01*
X99280Y203220D01*
X101780Y205720D01*
X101880Y205808D01*
X101991Y205882D01*
X102110Y205941D01*
X102236Y205984D01*
X102367Y206010D01*
X102500Y206018D01*
X147500D01*
X147633Y206010D01*
D02*
G37*
G36*
X77633D02*
X77764Y205984D01*
X77890Y205941D01*
X78009Y205882D01*
X78120Y205808D01*
X78220Y205720D01*
X80720Y203220D01*
X80808Y203120D01*
X80882Y203009D01*
X80941Y202890D01*
X80983Y202764D01*
X81010Y202633D01*
X81018Y202500D01*
Y197500D01*
X81010Y197367D01*
X80983Y197236D01*
X80941Y197110D01*
X80882Y196991D01*
X80808Y196880D01*
X80720Y196780D01*
X78220Y194280D01*
X78120Y194192D01*
X78009Y194118D01*
X77890Y194059D01*
X77764Y194016D01*
X77633Y193990D01*
X77500Y193982D01*
X32500D01*
X32367Y193990D01*
X32236Y194016D01*
X32110Y194059D01*
X31991Y194118D01*
X31880Y194192D01*
X31780Y194280D01*
X29280Y196780D01*
X29192Y196880D01*
X29118Y196991D01*
X29059Y197110D01*
X29016Y197236D01*
X28990Y197367D01*
X28982Y197500D01*
Y202500D01*
X28990Y202633D01*
X29016Y202764D01*
X29059Y202890D01*
X29118Y203009D01*
X29192Y203120D01*
X29280Y203220D01*
X31780Y205720D01*
X31880Y205808D01*
X31991Y205882D01*
X32110Y205941D01*
X32236Y205984D01*
X32367Y206010D01*
X32500Y206018D01*
X77500D01*
X77633Y206010D01*
D02*
G37*
G36*
X362633Y201010D02*
X362763Y200984D01*
X362890Y200941D01*
X363009Y200882D01*
X363120Y200808D01*
X363220Y200720D01*
X365720Y198220D01*
X365808Y198120D01*
X365882Y198009D01*
X365941Y197890D01*
X365984Y197764D01*
X366009Y197633D01*
X366018Y197500D01*
Y192500D01*
X366009Y192367D01*
X365984Y192236D01*
X365941Y192110D01*
X365882Y191991D01*
X365808Y191880D01*
X365720Y191780D01*
X363220Y189280D01*
X363120Y189192D01*
X363009Y189118D01*
X362890Y189059D01*
X362763Y189016D01*
X362633Y188990D01*
X362500Y188982D01*
X317500D01*
X317367Y188990D01*
X317236Y189016D01*
X317110Y189059D01*
X316991Y189118D01*
X316880Y189192D01*
X316780Y189280D01*
X314280Y191780D01*
X314192Y191880D01*
X314118Y191991D01*
X314059Y192110D01*
X314016Y192236D01*
X313990Y192367D01*
X313982Y192500D01*
Y197500D01*
X313990Y197633D01*
X314016Y197764D01*
X314059Y197890D01*
X314118Y198009D01*
X314192Y198120D01*
X314280Y198220D01*
X316780Y200720D01*
X316880Y200808D01*
X316991Y200882D01*
X317110Y200941D01*
X317236Y200984D01*
X317367Y201010D01*
X317500Y201018D01*
X362500D01*
X362633Y201010D01*
D02*
G37*
G36*
X450133Y198629D02*
X450263Y198603D01*
X450390Y198561D01*
X450509Y198502D01*
X450620Y198428D01*
X450720Y198340D01*
X450808Y198240D01*
X450882Y198129D01*
X450941Y198010D01*
X450984Y197883D01*
X451009Y197753D01*
X451018Y197620D01*
Y182380D01*
X451009Y182247D01*
X450984Y182117D01*
X450941Y181990D01*
X450882Y181871D01*
X450808Y181760D01*
X450720Y181660D01*
X450620Y181572D01*
X450509Y181498D01*
X450390Y181439D01*
X450263Y181397D01*
X450133Y181371D01*
X450000Y181362D01*
X440000D01*
X439867Y181371D01*
X439737Y181397D01*
X439610Y181439D01*
X439491Y181498D01*
X439380Y181572D01*
X439280Y181660D01*
X439192Y181760D01*
X439118Y181871D01*
X439059Y181990D01*
X439016Y182117D01*
X438991Y182247D01*
X438982Y182380D01*
X438982Y197620D01*
X438991Y197753D01*
X439016Y197883D01*
X439059Y198010D01*
X439118Y198129D01*
X439192Y198240D01*
X439280Y198340D01*
X439380Y198428D01*
X439491Y198502D01*
X439610Y198561D01*
X439737Y198603D01*
X439867Y198629D01*
X440000Y198638D01*
X450000D01*
X450133Y198629D01*
D02*
G37*
G36*
X10133D02*
X10264Y198603D01*
X10390Y198561D01*
X10509Y198502D01*
X10620Y198428D01*
X10720Y198340D01*
X10808Y198240D01*
X10882Y198129D01*
X10941Y198010D01*
X10984Y197883D01*
X11010Y197753D01*
X11018Y197620D01*
X11018Y182380D01*
X11010Y182247D01*
X10984Y182117D01*
X10941Y181990D01*
X10882Y181871D01*
X10808Y181760D01*
X10720Y181660D01*
X10620Y181572D01*
X10509Y181498D01*
X10390Y181439D01*
X10264Y181397D01*
X10133Y181371D01*
X10000Y181362D01*
X0D01*
X-133Y181371D01*
X-264Y181397D01*
X-390Y181439D01*
X-509Y181498D01*
X-620Y181572D01*
X-720Y181660D01*
X-808Y181760D01*
X-882Y181871D01*
X-941Y181990D01*
X-984Y182117D01*
X-1010Y182247D01*
X-1018Y182380D01*
Y197620D01*
X-1010Y197753D01*
X-984Y197883D01*
X-941Y198010D01*
X-882Y198129D01*
X-808Y198240D01*
X-720Y198340D01*
X-620Y198428D01*
X-509Y198502D01*
X-390Y198561D01*
X-264Y198603D01*
X-133Y198629D01*
X0Y198638D01*
X10000D01*
X10133Y198629D01*
D02*
G37*
G36*
X217633Y186010D02*
X217764Y185984D01*
X217890Y185941D01*
X218009Y185882D01*
X218120Y185808D01*
X218220Y185720D01*
X220720Y183220D01*
X220808Y183120D01*
X220882Y183009D01*
X220941Y182890D01*
X220984Y182764D01*
X221010Y182633D01*
X221018Y182500D01*
Y177500D01*
X221010Y177367D01*
X220984Y177236D01*
X220941Y177110D01*
X220882Y176991D01*
X220808Y176880D01*
X220720Y176780D01*
X218220Y174280D01*
X218120Y174192D01*
X218009Y174118D01*
X217890Y174059D01*
X217764Y174016D01*
X217633Y173990D01*
X217500Y173982D01*
X172500D01*
X172367Y173990D01*
X172236Y174016D01*
X172110Y174059D01*
X171991Y174118D01*
X171880Y174192D01*
X171780Y174280D01*
X169280Y176780D01*
X169192Y176880D01*
X169118Y176991D01*
X169059Y177110D01*
X169016Y177236D01*
X168990Y177367D01*
X168982Y177500D01*
Y182500D01*
X168990Y182633D01*
X169016Y182764D01*
X169059Y182890D01*
X169118Y183009D01*
X169192Y183120D01*
X169280Y183220D01*
X171780Y185720D01*
X171880Y185808D01*
X171991Y185882D01*
X172110Y185941D01*
X172236Y185984D01*
X172367Y186010D01*
X172500Y186018D01*
X217500D01*
X217633Y186010D01*
D02*
G37*
G36*
X362633Y181010D02*
X362763Y180984D01*
X362890Y180941D01*
X363009Y180882D01*
X363120Y180808D01*
X363220Y180720D01*
X365720Y178220D01*
X365808Y178120D01*
X365882Y178009D01*
X365941Y177890D01*
X365984Y177764D01*
X366009Y177633D01*
X366018Y177500D01*
Y172500D01*
X366009Y172367D01*
X365984Y172236D01*
X365941Y172110D01*
X365882Y171991D01*
X365808Y171880D01*
X365720Y171780D01*
X363220Y169280D01*
X363120Y169192D01*
X363009Y169118D01*
X362890Y169059D01*
X362763Y169016D01*
X362633Y168990D01*
X362500Y168982D01*
X317500D01*
X317367Y168990D01*
X317236Y169016D01*
X317110Y169059D01*
X316991Y169118D01*
X316880Y169192D01*
X316780Y169280D01*
X314280Y171780D01*
X314192Y171880D01*
X314118Y171991D01*
X314059Y172110D01*
X314016Y172236D01*
X313990Y172367D01*
X313982Y172500D01*
Y177500D01*
X313990Y177633D01*
X314016Y177764D01*
X314059Y177890D01*
X314118Y178009D01*
X314192Y178120D01*
X314280Y178220D01*
X316780Y180720D01*
X316880Y180808D01*
X316991Y180882D01*
X317110Y180941D01*
X317236Y180984D01*
X317367Y181010D01*
X317500Y181018D01*
X362500D01*
X362633Y181010D01*
D02*
G37*
G36*
X450133Y178629D02*
X450263Y178603D01*
X450390Y178561D01*
X450509Y178502D01*
X450620Y178428D01*
X450720Y178340D01*
X450808Y178240D01*
X450882Y178129D01*
X450941Y178010D01*
X450984Y177883D01*
X451009Y177753D01*
X451018Y177620D01*
Y162380D01*
X451009Y162247D01*
X450984Y162117D01*
X450941Y161990D01*
X450882Y161871D01*
X450808Y161760D01*
X450720Y161660D01*
X450620Y161572D01*
X450509Y161498D01*
X450390Y161439D01*
X450263Y161397D01*
X450133Y161371D01*
X450000Y161362D01*
X440000D01*
X439867Y161371D01*
X439737Y161397D01*
X439610Y161439D01*
X439491Y161498D01*
X439380Y161572D01*
X439280Y161660D01*
X439192Y161760D01*
X439118Y161871D01*
X439059Y161990D01*
X439016Y162117D01*
X438991Y162247D01*
X438982Y162380D01*
X438982Y177620D01*
X438991Y177753D01*
X439016Y177883D01*
X439059Y178010D01*
X439118Y178129D01*
X439192Y178240D01*
X439280Y178340D01*
X439380Y178428D01*
X439491Y178502D01*
X439610Y178561D01*
X439737Y178603D01*
X439867Y178629D01*
X440000Y178638D01*
X450000D01*
X450133Y178629D01*
D02*
G37*
G36*
X10133D02*
X10264Y178603D01*
X10390Y178561D01*
X10509Y178502D01*
X10620Y178428D01*
X10720Y178340D01*
X10808Y178240D01*
X10882Y178129D01*
X10941Y178010D01*
X10984Y177883D01*
X11010Y177753D01*
X11018Y177620D01*
X11018Y162380D01*
X11010Y162247D01*
X10984Y162117D01*
X10941Y161990D01*
X10882Y161871D01*
X10808Y161760D01*
X10720Y161660D01*
X10620Y161572D01*
X10509Y161498D01*
X10390Y161439D01*
X10264Y161397D01*
X10133Y161371D01*
X10000Y161362D01*
X0D01*
X-133Y161371D01*
X-264Y161397D01*
X-390Y161439D01*
X-509Y161498D01*
X-620Y161572D01*
X-720Y161660D01*
X-808Y161760D01*
X-882Y161871D01*
X-941Y161990D01*
X-984Y162117D01*
X-1010Y162247D01*
X-1018Y162380D01*
Y177620D01*
X-1010Y177753D01*
X-984Y177883D01*
X-941Y178010D01*
X-882Y178129D01*
X-808Y178240D01*
X-720Y178340D01*
X-620Y178428D01*
X-509Y178502D01*
X-390Y178561D01*
X-264Y178603D01*
X-133Y178629D01*
X0Y178638D01*
X10000D01*
X10133Y178629D01*
D02*
G37*
G36*
X412633Y211010D02*
X412763Y210984D01*
X412890Y210941D01*
X413009Y210882D01*
X413120Y210808D01*
X413220Y210720D01*
X415720Y208220D01*
X415808Y208120D01*
X415882Y208009D01*
X415941Y207890D01*
X415984Y207764D01*
X416009Y207633D01*
X416018Y207500D01*
Y162500D01*
X416009Y162367D01*
X415984Y162236D01*
X415941Y162110D01*
X415882Y161991D01*
X415808Y161880D01*
X415720Y161780D01*
X413220Y159280D01*
X413120Y159192D01*
X413009Y159118D01*
X412890Y159059D01*
X412763Y159017D01*
X412633Y158990D01*
X412500Y158982D01*
X407500D01*
X407367Y158990D01*
X407237Y159017D01*
X407110Y159059D01*
X406991Y159118D01*
X406880Y159192D01*
X406780Y159280D01*
X404280Y161780D01*
X404192Y161880D01*
X404118Y161991D01*
X404059Y162110D01*
X404016Y162236D01*
X403991Y162367D01*
X403982Y162500D01*
Y207500D01*
X403991Y207633D01*
X404016Y207764D01*
X404059Y207890D01*
X404118Y208009D01*
X404192Y208120D01*
X404280Y208220D01*
X406780Y210720D01*
X406880Y210808D01*
X406991Y210882D01*
X407110Y210941D01*
X407237Y210984D01*
X407367Y211010D01*
X407500Y211018D01*
X412500D01*
X412633Y211010D01*
D02*
G37*
G36*
X392633D02*
X392763Y210984D01*
X392890Y210941D01*
X393009Y210882D01*
X393120Y210808D01*
X393220Y210720D01*
X395720Y208220D01*
X395808Y208120D01*
X395882Y208009D01*
X395941Y207890D01*
X395984Y207764D01*
X396009Y207633D01*
X396018Y207500D01*
Y162500D01*
X396009Y162367D01*
X395984Y162236D01*
X395941Y162110D01*
X395882Y161991D01*
X395808Y161880D01*
X395720Y161780D01*
X393220Y159280D01*
X393120Y159192D01*
X393009Y159118D01*
X392890Y159059D01*
X392763Y159017D01*
X392633Y158990D01*
X392500Y158982D01*
X387500D01*
X387367Y158990D01*
X387237Y159017D01*
X387110Y159059D01*
X386991Y159118D01*
X386880Y159192D01*
X386780Y159280D01*
X384280Y161780D01*
X384192Y161880D01*
X384118Y161991D01*
X384059Y162110D01*
X384016Y162236D01*
X383991Y162367D01*
X383982Y162500D01*
Y207500D01*
X383991Y207633D01*
X384016Y207764D01*
X384059Y207890D01*
X384118Y208009D01*
X384192Y208120D01*
X384280Y208220D01*
X386780Y210720D01*
X386880Y210808D01*
X386991Y210882D01*
X387110Y210941D01*
X387237Y210984D01*
X387367Y211010D01*
X387500Y211018D01*
X392500D01*
X392633Y211010D01*
D02*
G37*
G36*
X217633Y166010D02*
X217764Y165984D01*
X217890Y165941D01*
X218009Y165882D01*
X218120Y165808D01*
X218220Y165720D01*
X220720Y163220D01*
X220808Y163120D01*
X220882Y163009D01*
X220941Y162890D01*
X220984Y162764D01*
X221010Y162633D01*
X221018Y162500D01*
Y157500D01*
X221010Y157367D01*
X220984Y157236D01*
X220941Y157110D01*
X220882Y156991D01*
X220808Y156880D01*
X220720Y156780D01*
X218220Y154280D01*
X218120Y154192D01*
X218009Y154118D01*
X217890Y154059D01*
X217764Y154017D01*
X217633Y153990D01*
X217500Y153982D01*
X172500D01*
X172367Y153990D01*
X172236Y154017D01*
X172110Y154059D01*
X171991Y154118D01*
X171880Y154192D01*
X171780Y154280D01*
X169280Y156780D01*
X169192Y156880D01*
X169118Y156991D01*
X169059Y157110D01*
X169016Y157236D01*
X168990Y157367D01*
X168982Y157500D01*
Y162500D01*
X168990Y162633D01*
X169016Y162764D01*
X169059Y162890D01*
X169118Y163009D01*
X169192Y163120D01*
X169280Y163220D01*
X171780Y165720D01*
X171880Y165808D01*
X171991Y165882D01*
X172110Y165941D01*
X172236Y165984D01*
X172367Y166010D01*
X172500Y166018D01*
X217500D01*
X217633Y166010D01*
D02*
G37*
G36*
X287633Y201010D02*
X287764Y200984D01*
X287890Y200941D01*
X288009Y200882D01*
X288120Y200808D01*
X288220Y200720D01*
X290720Y198220D01*
X290808Y198120D01*
X290882Y198009D01*
X290941Y197890D01*
X290984Y197764D01*
X291010Y197633D01*
X291018Y197500D01*
Y152500D01*
X291010Y152367D01*
X290984Y152236D01*
X290941Y152110D01*
X290882Y151991D01*
X290808Y151880D01*
X290720Y151780D01*
X288220Y149280D01*
X288120Y149192D01*
X288009Y149118D01*
X287890Y149059D01*
X287764Y149017D01*
X287633Y148990D01*
X287500Y148982D01*
X282500D01*
X282367Y148990D01*
X282236Y149017D01*
X282110Y149059D01*
X281991Y149118D01*
X281880Y149192D01*
X281780Y149280D01*
X279280Y151780D01*
X279192Y151880D01*
X279118Y151991D01*
X279059Y152110D01*
X279016Y152236D01*
X278990Y152367D01*
X278982Y152500D01*
Y197500D01*
X278990Y197633D01*
X279016Y197764D01*
X279059Y197890D01*
X279118Y198009D01*
X279192Y198120D01*
X279280Y198220D01*
X281780Y200720D01*
X281880Y200808D01*
X281991Y200882D01*
X282110Y200941D01*
X282236Y200984D01*
X282367Y201010D01*
X282500Y201018D01*
X287500D01*
X287633Y201010D01*
D02*
G37*
G36*
X267633D02*
X267764Y200984D01*
X267890Y200941D01*
X268009Y200882D01*
X268120Y200808D01*
X268220Y200720D01*
X270720Y198220D01*
X270808Y198120D01*
X270882Y198009D01*
X270941Y197890D01*
X270984Y197764D01*
X271010Y197633D01*
X271018Y197500D01*
Y152500D01*
X271010Y152367D01*
X270984Y152236D01*
X270941Y152110D01*
X270882Y151991D01*
X270808Y151880D01*
X270720Y151780D01*
X268220Y149280D01*
X268120Y149192D01*
X268009Y149118D01*
X267890Y149059D01*
X267764Y149017D01*
X267633Y148990D01*
X267500Y148982D01*
X262500D01*
X262367Y148990D01*
X262236Y149017D01*
X262110Y149059D01*
X261991Y149118D01*
X261880Y149192D01*
X261780Y149280D01*
X259280Y151780D01*
X259192Y151880D01*
X259118Y151991D01*
X259059Y152110D01*
X259016Y152236D01*
X258990Y152367D01*
X258982Y152500D01*
Y197500D01*
X258990Y197633D01*
X259016Y197764D01*
X259059Y197890D01*
X259118Y198009D01*
X259192Y198120D01*
X259280Y198220D01*
X261780Y200720D01*
X261880Y200808D01*
X261991Y200882D01*
X262110Y200941D01*
X262236Y200984D01*
X262367Y201010D01*
X262500Y201018D01*
X267500D01*
X267633Y201010D01*
D02*
G37*
G36*
X247633D02*
X247764Y200984D01*
X247890Y200941D01*
X248009Y200882D01*
X248120Y200808D01*
X248220Y200720D01*
X250720Y198220D01*
X250808Y198120D01*
X250882Y198009D01*
X250941Y197890D01*
X250984Y197764D01*
X251010Y197633D01*
X251018Y197500D01*
Y152500D01*
X251010Y152367D01*
X250984Y152236D01*
X250941Y152110D01*
X250882Y151991D01*
X250808Y151880D01*
X250720Y151780D01*
X248220Y149280D01*
X248120Y149192D01*
X248009Y149118D01*
X247890Y149059D01*
X247764Y149017D01*
X247633Y148990D01*
X247500Y148982D01*
X242500D01*
X242367Y148990D01*
X242236Y149017D01*
X242110Y149059D01*
X241991Y149118D01*
X241880Y149192D01*
X241780Y149280D01*
X239280Y151780D01*
X239192Y151880D01*
X239118Y151991D01*
X239059Y152110D01*
X239016Y152236D01*
X238990Y152367D01*
X238982Y152500D01*
Y197500D01*
X238990Y197633D01*
X239016Y197764D01*
X239059Y197890D01*
X239118Y198009D01*
X239192Y198120D01*
X239280Y198220D01*
X241780Y200720D01*
X241880Y200808D01*
X241991Y200882D01*
X242110Y200941D01*
X242236Y200984D01*
X242367Y201010D01*
X242500Y201018D01*
X247500D01*
X247633Y201010D01*
D02*
G37*
G36*
X10133Y158630D02*
X10264Y158603D01*
X10390Y158561D01*
X10509Y158502D01*
X10620Y158428D01*
X10720Y158340D01*
X10808Y158240D01*
X10882Y158129D01*
X10941Y158010D01*
X10984Y157884D01*
X11010Y157753D01*
X11018Y157620D01*
X11018Y142380D01*
X11010Y142247D01*
X10984Y142116D01*
X10941Y141990D01*
X10882Y141871D01*
X10808Y141760D01*
X10720Y141660D01*
X10620Y141572D01*
X10509Y141498D01*
X10390Y141439D01*
X10264Y141397D01*
X10133Y141370D01*
X10000Y141362D01*
X0D01*
X-133Y141370D01*
X-264Y141397D01*
X-390Y141439D01*
X-509Y141498D01*
X-620Y141572D01*
X-720Y141660D01*
X-808Y141760D01*
X-882Y141871D01*
X-941Y141990D01*
X-984Y142116D01*
X-1010Y142247D01*
X-1018Y142380D01*
Y157620D01*
X-1010Y157753D01*
X-984Y157884D01*
X-941Y158010D01*
X-882Y158129D01*
X-808Y158240D01*
X-720Y158340D01*
X-620Y158428D01*
X-509Y158502D01*
X-390Y158561D01*
X-264Y158603D01*
X-133Y158630D01*
X0Y158638D01*
X10000D01*
X10133Y158630D01*
D02*
G37*
G36*
X287633Y141010D02*
X287764Y140983D01*
X287890Y140941D01*
X288009Y140882D01*
X288120Y140808D01*
X288220Y140720D01*
X290720Y138220D01*
X290808Y138120D01*
X290882Y138009D01*
X290941Y137890D01*
X290984Y137764D01*
X291010Y137633D01*
X291018Y137500D01*
Y132500D01*
X291010Y132367D01*
X290984Y132236D01*
X290941Y132110D01*
X290882Y131991D01*
X290808Y131880D01*
X290720Y131780D01*
X288220Y129280D01*
X288120Y129192D01*
X288009Y129118D01*
X287890Y129059D01*
X287764Y129017D01*
X287633Y128990D01*
X287500Y128982D01*
X242500D01*
X242367Y128990D01*
X242236Y129017D01*
X242110Y129059D01*
X241991Y129118D01*
X241880Y129192D01*
X241780Y129280D01*
X239280Y131780D01*
X239192Y131880D01*
X239118Y131991D01*
X239059Y132110D01*
X239016Y132236D01*
X238990Y132367D01*
X238982Y132500D01*
Y137500D01*
X238990Y137633D01*
X239016Y137764D01*
X239059Y137890D01*
X239118Y138009D01*
X239192Y138120D01*
X239280Y138220D01*
X241780Y140720D01*
X241880Y140808D01*
X241991Y140882D01*
X242110Y140941D01*
X242236Y140983D01*
X242367Y141010D01*
X242500Y141018D01*
X287500D01*
X287633Y141010D01*
D02*
G37*
G36*
X10133Y138630D02*
X10264Y138603D01*
X10390Y138561D01*
X10509Y138502D01*
X10620Y138428D01*
X10720Y138340D01*
X10808Y138240D01*
X10882Y138129D01*
X10941Y138010D01*
X10984Y137884D01*
X11010Y137753D01*
X11018Y137620D01*
X11018Y122380D01*
X11010Y122247D01*
X10984Y122116D01*
X10941Y121990D01*
X10882Y121871D01*
X10808Y121760D01*
X10720Y121660D01*
X10620Y121572D01*
X10509Y121498D01*
X10390Y121439D01*
X10264Y121397D01*
X10133Y121370D01*
X10000Y121362D01*
X0D01*
X-133Y121370D01*
X-264Y121397D01*
X-390Y121439D01*
X-509Y121498D01*
X-620Y121572D01*
X-720Y121660D01*
X-808Y121760D01*
X-882Y121871D01*
X-941Y121990D01*
X-984Y122116D01*
X-1010Y122247D01*
X-1018Y122380D01*
Y137620D01*
X-1010Y137753D01*
X-984Y137884D01*
X-941Y138010D01*
X-882Y138129D01*
X-808Y138240D01*
X-720Y138340D01*
X-620Y138428D01*
X-509Y138502D01*
X-390Y138561D01*
X-264Y138603D01*
X-133Y138630D01*
X0Y138638D01*
X10000D01*
X10133Y138630D01*
D02*
G37*
G36*
X450133Y126130D02*
X450263Y126103D01*
X450390Y126061D01*
X450509Y126002D01*
X450620Y125928D01*
X450720Y125840D01*
X450808Y125740D01*
X450882Y125629D01*
X450941Y125510D01*
X450984Y125384D01*
X451009Y125253D01*
X451018Y125120D01*
Y109880D01*
X451009Y109747D01*
X450984Y109616D01*
X450941Y109490D01*
X450882Y109371D01*
X450808Y109260D01*
X450720Y109160D01*
X450620Y109072D01*
X450509Y108998D01*
X450390Y108939D01*
X450263Y108897D01*
X450133Y108870D01*
X450000Y108862D01*
X440000D01*
X439867Y108870D01*
X439737Y108897D01*
X439610Y108939D01*
X439491Y108998D01*
X439380Y109072D01*
X439280Y109160D01*
X439192Y109260D01*
X439118Y109371D01*
X439059Y109490D01*
X439016Y109616D01*
X438991Y109747D01*
X438982Y109880D01*
X438982Y125120D01*
X438991Y125253D01*
X439016Y125384D01*
X439059Y125510D01*
X439118Y125629D01*
X439192Y125740D01*
X439280Y125840D01*
X439380Y125928D01*
X439491Y126002D01*
X439610Y126061D01*
X439737Y126103D01*
X439867Y126130D01*
X440000Y126138D01*
X450000D01*
X450133Y126130D01*
D02*
G37*
G36*
X277500Y100000D02*
X252500D01*
Y115000D01*
X277500D01*
Y100000D01*
D02*
G37*
G36*
X450133Y106130D02*
X450263Y106103D01*
X450390Y106061D01*
X450509Y106002D01*
X450620Y105928D01*
X450720Y105840D01*
X450808Y105740D01*
X450882Y105629D01*
X450941Y105510D01*
X450984Y105384D01*
X451009Y105253D01*
X451018Y105120D01*
Y89880D01*
X451009Y89747D01*
X450984Y89616D01*
X450941Y89490D01*
X450882Y89371D01*
X450808Y89260D01*
X450720Y89160D01*
X450620Y89072D01*
X450509Y88998D01*
X450390Y88939D01*
X450263Y88897D01*
X450133Y88870D01*
X450000Y88862D01*
X440000D01*
X439867Y88870D01*
X439737Y88897D01*
X439610Y88939D01*
X439491Y88998D01*
X439380Y89072D01*
X439280Y89160D01*
X439192Y89260D01*
X439118Y89371D01*
X439059Y89490D01*
X439016Y89616D01*
X438991Y89747D01*
X438982Y89880D01*
X438982Y105120D01*
X438991Y105253D01*
X439016Y105384D01*
X439059Y105510D01*
X439118Y105629D01*
X439192Y105740D01*
X439280Y105840D01*
X439380Y105928D01*
X439491Y106002D01*
X439610Y106061D01*
X439737Y106103D01*
X439867Y106130D01*
X440000Y106138D01*
X450000D01*
X450133Y106130D01*
D02*
G37*
G36*
X10133Y91130D02*
X10264Y91103D01*
X10390Y91061D01*
X10509Y91002D01*
X10620Y90928D01*
X10720Y90840D01*
X10808Y90740D01*
X10882Y90629D01*
X10941Y90510D01*
X10984Y90384D01*
X11010Y90253D01*
X11018Y90120D01*
X11018Y74880D01*
X11010Y74747D01*
X10984Y74616D01*
X10941Y74490D01*
X10882Y74371D01*
X10808Y74260D01*
X10720Y74160D01*
X10620Y74072D01*
X10509Y73998D01*
X10390Y73939D01*
X10264Y73896D01*
X10133Y73871D01*
X10000Y73862D01*
X0D01*
X-133Y73871D01*
X-264Y73896D01*
X-390Y73939D01*
X-509Y73998D01*
X-620Y74072D01*
X-720Y74160D01*
X-808Y74260D01*
X-882Y74371D01*
X-941Y74490D01*
X-984Y74616D01*
X-1010Y74747D01*
X-1018Y74880D01*
Y90120D01*
X-1010Y90253D01*
X-984Y90384D01*
X-941Y90510D01*
X-882Y90629D01*
X-808Y90740D01*
X-720Y90840D01*
X-620Y90928D01*
X-509Y91002D01*
X-390Y91061D01*
X-264Y91103D01*
X-133Y91130D01*
X0Y91138D01*
X10000D01*
X10133Y91130D01*
D02*
G37*
G36*
X450133Y86130D02*
X450263Y86103D01*
X450390Y86061D01*
X450509Y86002D01*
X450620Y85928D01*
X450720Y85840D01*
X450808Y85740D01*
X450882Y85629D01*
X450941Y85510D01*
X450984Y85384D01*
X451009Y85253D01*
X451018Y85120D01*
Y69880D01*
X451009Y69747D01*
X450984Y69616D01*
X450941Y69490D01*
X450882Y69371D01*
X450808Y69260D01*
X450720Y69160D01*
X450620Y69072D01*
X450509Y68998D01*
X450390Y68939D01*
X450263Y68896D01*
X450133Y68871D01*
X450000Y68862D01*
X440000D01*
X439867Y68871D01*
X439737Y68896D01*
X439610Y68939D01*
X439491Y68998D01*
X439380Y69072D01*
X439280Y69160D01*
X439192Y69260D01*
X439118Y69371D01*
X439059Y69490D01*
X439016Y69616D01*
X438991Y69747D01*
X438982Y69880D01*
X438982Y85120D01*
X438991Y85253D01*
X439016Y85384D01*
X439059Y85510D01*
X439118Y85629D01*
X439192Y85740D01*
X439280Y85840D01*
X439380Y85928D01*
X439491Y86002D01*
X439610Y86061D01*
X439737Y86103D01*
X439867Y86130D01*
X440000Y86138D01*
X450000D01*
X450133Y86130D01*
D02*
G37*
G36*
X10133Y71129D02*
X10264Y71104D01*
X10390Y71061D01*
X10509Y71002D01*
X10620Y70928D01*
X10720Y70840D01*
X10808Y70740D01*
X10882Y70629D01*
X10941Y70510D01*
X10984Y70384D01*
X11010Y70253D01*
X11018Y70120D01*
X11018Y54880D01*
X11010Y54747D01*
X10984Y54616D01*
X10941Y54490D01*
X10882Y54371D01*
X10808Y54260D01*
X10720Y54160D01*
X10620Y54072D01*
X10509Y53998D01*
X10390Y53939D01*
X10264Y53896D01*
X10133Y53871D01*
X10000Y53862D01*
X0D01*
X-133Y53871D01*
X-264Y53896D01*
X-390Y53939D01*
X-509Y53998D01*
X-620Y54072D01*
X-720Y54160D01*
X-808Y54260D01*
X-882Y54371D01*
X-941Y54490D01*
X-984Y54616D01*
X-1010Y54747D01*
X-1018Y54880D01*
Y70120D01*
X-1010Y70253D01*
X-984Y70384D01*
X-941Y70510D01*
X-882Y70629D01*
X-808Y70740D01*
X-720Y70840D01*
X-620Y70928D01*
X-509Y71002D01*
X-390Y71061D01*
X-264Y71104D01*
X-133Y71129D01*
X0Y71138D01*
X10000D01*
X10133Y71129D01*
D02*
G37*
G36*
X450133Y66129D02*
X450263Y66104D01*
X450390Y66061D01*
X450509Y66002D01*
X450620Y65928D01*
X450720Y65840D01*
X450808Y65740D01*
X450882Y65629D01*
X450941Y65510D01*
X450984Y65384D01*
X451009Y65253D01*
X451018Y65120D01*
Y49880D01*
X451009Y49747D01*
X450984Y49616D01*
X450941Y49490D01*
X450882Y49371D01*
X450808Y49260D01*
X450720Y49160D01*
X450620Y49072D01*
X450509Y48998D01*
X450390Y48939D01*
X450263Y48896D01*
X450133Y48871D01*
X450000Y48862D01*
X440000D01*
X439867Y48871D01*
X439737Y48896D01*
X439610Y48939D01*
X439491Y48998D01*
X439380Y49072D01*
X439280Y49160D01*
X439192Y49260D01*
X439118Y49371D01*
X439059Y49490D01*
X439016Y49616D01*
X438991Y49747D01*
X438982Y49880D01*
X438982Y65120D01*
X438991Y65253D01*
X439016Y65384D01*
X439059Y65510D01*
X439118Y65629D01*
X439192Y65740D01*
X439280Y65840D01*
X439380Y65928D01*
X439491Y66002D01*
X439610Y66061D01*
X439737Y66104D01*
X439867Y66129D01*
X440000Y66138D01*
X450000D01*
X450133Y66129D01*
D02*
G37*
G36*
X10133Y51129D02*
X10264Y51104D01*
X10390Y51061D01*
X10509Y51002D01*
X10620Y50928D01*
X10720Y50840D01*
X10808Y50740D01*
X10882Y50629D01*
X10941Y50510D01*
X10984Y50384D01*
X11010Y50253D01*
X11018Y50120D01*
X11018Y34880D01*
X11010Y34747D01*
X10984Y34616D01*
X10941Y34490D01*
X10882Y34371D01*
X10808Y34260D01*
X10720Y34160D01*
X10620Y34072D01*
X10509Y33998D01*
X10390Y33939D01*
X10264Y33897D01*
X10133Y33870D01*
X10000Y33862D01*
X0D01*
X-133Y33870D01*
X-264Y33897D01*
X-390Y33939D01*
X-509Y33998D01*
X-620Y34072D01*
X-720Y34160D01*
X-808Y34260D01*
X-882Y34371D01*
X-941Y34490D01*
X-984Y34616D01*
X-1010Y34747D01*
X-1018Y34880D01*
Y50120D01*
X-1010Y50253D01*
X-984Y50384D01*
X-941Y50510D01*
X-882Y50629D01*
X-808Y50740D01*
X-720Y50840D01*
X-620Y50928D01*
X-509Y51002D01*
X-390Y51061D01*
X-264Y51104D01*
X-133Y51129D01*
X0Y51138D01*
X10000D01*
X10133Y51129D01*
D02*
G37*
G36*
X450133Y46129D02*
X450263Y46104D01*
X450390Y46061D01*
X450509Y46002D01*
X450620Y45928D01*
X450720Y45840D01*
X450808Y45740D01*
X450882Y45629D01*
X450941Y45510D01*
X450984Y45384D01*
X451009Y45253D01*
X451018Y45120D01*
Y29880D01*
X451009Y29747D01*
X450984Y29616D01*
X450941Y29490D01*
X450882Y29371D01*
X450808Y29260D01*
X450720Y29160D01*
X450620Y29072D01*
X450509Y28998D01*
X450390Y28939D01*
X450263Y28897D01*
X450133Y28871D01*
X450000Y28862D01*
X440000D01*
X439867Y28871D01*
X439736Y28897D01*
X439610Y28939D01*
X439491Y28998D01*
X439380Y29072D01*
X439280Y29160D01*
X439192Y29260D01*
X439118Y29371D01*
X439059Y29490D01*
X439016Y29616D01*
X438991Y29747D01*
X438982Y29880D01*
X438982Y45120D01*
X438991Y45253D01*
X439016Y45384D01*
X439059Y45510D01*
X439118Y45629D01*
X439192Y45740D01*
X439280Y45840D01*
X439380Y45928D01*
X439491Y46002D01*
X439610Y46061D01*
X439737Y46104D01*
X439867Y46129D01*
X440000Y46138D01*
X450000D01*
X450133Y46129D01*
D02*
G37*
G36*
X10133Y31130D02*
X10264Y31103D01*
X10390Y31061D01*
X10509Y31002D01*
X10620Y30928D01*
X10720Y30840D01*
X10808Y30740D01*
X10882Y30629D01*
X10941Y30510D01*
X10984Y30384D01*
X11010Y30253D01*
X11018Y30120D01*
X11018Y14880D01*
X11010Y14747D01*
X10984Y14617D01*
X10941Y14490D01*
X10882Y14371D01*
X10808Y14260D01*
X10720Y14160D01*
X10620Y14072D01*
X10509Y13998D01*
X10390Y13939D01*
X10264Y13896D01*
X10133Y13871D01*
X10000Y13862D01*
X0D01*
X-133Y13871D01*
X-264Y13896D01*
X-390Y13939D01*
X-509Y13998D01*
X-620Y14072D01*
X-720Y14160D01*
X-808Y14260D01*
X-882Y14371D01*
X-941Y14490D01*
X-984Y14617D01*
X-1010Y14747D01*
X-1018Y14880D01*
Y30120D01*
X-1010Y30253D01*
X-984Y30384D01*
X-941Y30510D01*
X-882Y30629D01*
X-808Y30740D01*
X-720Y30840D01*
X-620Y30928D01*
X-509Y31002D01*
X-390Y31061D01*
X-264Y31103D01*
X-133Y31130D01*
X0Y31138D01*
X10000D01*
X10133Y31130D01*
D02*
G37*
G36*
X450133Y26130D02*
X450263Y26103D01*
X450390Y26061D01*
X450509Y26002D01*
X450620Y25928D01*
X450720Y25840D01*
X450808Y25740D01*
X450882Y25629D01*
X450941Y25510D01*
X450984Y25384D01*
X451009Y25253D01*
X451018Y25120D01*
Y9880D01*
X451009Y9747D01*
X450984Y9617D01*
X450941Y9490D01*
X450882Y9371D01*
X450808Y9260D01*
X450720Y9160D01*
X450620Y9072D01*
X450509Y8998D01*
X450390Y8939D01*
X450263Y8896D01*
X450133Y8870D01*
X450000Y8862D01*
X440000D01*
X439867Y8870D01*
X439737Y8896D01*
X439610Y8939D01*
X439491Y8998D01*
X439380Y9072D01*
X439280Y9160D01*
X439192Y9260D01*
X439118Y9371D01*
X439059Y9490D01*
X439016Y9617D01*
X438991Y9747D01*
X438982Y9880D01*
X438982Y25120D01*
X438991Y25253D01*
X439016Y25384D01*
X439059Y25510D01*
X439118Y25629D01*
X439192Y25740D01*
X439280Y25840D01*
X439380Y25928D01*
X439491Y26002D01*
X439610Y26061D01*
X439737Y26103D01*
X439867Y26130D01*
X440000Y26138D01*
X450000D01*
X450133Y26130D01*
D02*
G37*
G36*
X107620Y11018D02*
X107753Y11010D01*
X107884Y10984D01*
X108010Y10941D01*
X108129Y10882D01*
X108240Y10808D01*
X108340Y10720D01*
X108428Y10620D01*
X108502Y10509D01*
X108561Y10390D01*
X108603Y10264D01*
X108629Y10133D01*
X108638Y10000D01*
Y0D01*
X108629Y-133D01*
X108603Y-264D01*
X108561Y-390D01*
X108502Y-509D01*
X108428Y-620D01*
X108340Y-720D01*
X108240Y-808D01*
X108129Y-882D01*
X108010Y-941D01*
X107884Y-984D01*
X107753Y-1010D01*
X107620Y-1018D01*
X92380D01*
X92247Y-1010D01*
X92116Y-984D01*
X91990Y-941D01*
X91871Y-882D01*
X91760Y-808D01*
X91660Y-720D01*
X91572Y-620D01*
X91498Y-509D01*
X91439Y-390D01*
X91397Y-264D01*
X91370Y-133D01*
X91362Y0D01*
Y10000D01*
X91370Y10133D01*
X91397Y10264D01*
X91439Y10390D01*
X91498Y10509D01*
X91572Y10620D01*
X91660Y10720D01*
X91760Y10808D01*
X91871Y10882D01*
X91990Y10941D01*
X92116Y10984D01*
X92247Y11010D01*
X92380Y11018D01*
X107620Y11018D01*
D02*
G37*
G36*
X87620D02*
X87753Y11010D01*
X87884Y10984D01*
X88010Y10941D01*
X88129Y10882D01*
X88240Y10808D01*
X88340Y10720D01*
X88428Y10620D01*
X88502Y10509D01*
X88561Y10390D01*
X88603Y10264D01*
X88630Y10133D01*
X88638Y10000D01*
Y0D01*
X88630Y-133D01*
X88603Y-264D01*
X88561Y-390D01*
X88502Y-509D01*
X88428Y-620D01*
X88340Y-720D01*
X88240Y-808D01*
X88129Y-882D01*
X88010Y-941D01*
X87884Y-984D01*
X87753Y-1010D01*
X87620Y-1018D01*
X72380D01*
X72247Y-1010D01*
X72116Y-984D01*
X71990Y-941D01*
X71871Y-882D01*
X71760Y-808D01*
X71660Y-720D01*
X71572Y-620D01*
X71498Y-509D01*
X71439Y-390D01*
X71396Y-264D01*
X71371Y-133D01*
X71362Y0D01*
Y10000D01*
X71371Y10133D01*
X71396Y10264D01*
X71439Y10390D01*
X71498Y10509D01*
X71572Y10620D01*
X71660Y10720D01*
X71760Y10808D01*
X71871Y10882D01*
X71990Y10941D01*
X72116Y10984D01*
X72247Y11010D01*
X72380Y11018D01*
X87620Y11018D01*
D02*
G37*
G36*
X67620D02*
X67753Y11010D01*
X67884Y10984D01*
X68010Y10941D01*
X68129Y10882D01*
X68240Y10808D01*
X68340Y10720D01*
X68428Y10620D01*
X68502Y10509D01*
X68561Y10390D01*
X68604Y10264D01*
X68629Y10133D01*
X68638Y10000D01*
Y0D01*
X68629Y-133D01*
X68604Y-264D01*
X68561Y-390D01*
X68502Y-509D01*
X68428Y-620D01*
X68340Y-720D01*
X68240Y-808D01*
X68129Y-882D01*
X68010Y-941D01*
X67884Y-984D01*
X67753Y-1010D01*
X67620Y-1018D01*
X52380D01*
X52247Y-1010D01*
X52116Y-984D01*
X51990Y-941D01*
X51871Y-882D01*
X51760Y-808D01*
X51660Y-720D01*
X51572Y-620D01*
X51498Y-509D01*
X51439Y-390D01*
X51396Y-264D01*
X51371Y-133D01*
X51362Y0D01*
Y10000D01*
X51371Y10133D01*
X51396Y10264D01*
X51439Y10390D01*
X51498Y10509D01*
X51572Y10620D01*
X51660Y10720D01*
X51760Y10808D01*
X51871Y10882D01*
X51990Y10941D01*
X52116Y10984D01*
X52247Y11010D01*
X52380Y11018D01*
X67620Y11018D01*
D02*
G37*
G36*
X47620D02*
X47753Y11010D01*
X47884Y10984D01*
X48010Y10941D01*
X48129Y10882D01*
X48240Y10808D01*
X48340Y10720D01*
X48428Y10620D01*
X48502Y10509D01*
X48561Y10390D01*
X48604Y10264D01*
X48629Y10133D01*
X48638Y10000D01*
Y0D01*
X48629Y-133D01*
X48604Y-264D01*
X48561Y-390D01*
X48502Y-509D01*
X48428Y-620D01*
X48340Y-720D01*
X48240Y-808D01*
X48129Y-882D01*
X48010Y-941D01*
X47884Y-984D01*
X47753Y-1010D01*
X47620Y-1018D01*
X32380D01*
X32247Y-1010D01*
X32116Y-984D01*
X31990Y-941D01*
X31871Y-882D01*
X31760Y-808D01*
X31660Y-720D01*
X31572Y-620D01*
X31498Y-509D01*
X31439Y-390D01*
X31397Y-264D01*
X31370Y-133D01*
X31362Y0D01*
Y10000D01*
X31370Y10133D01*
X31397Y10264D01*
X31439Y10390D01*
X31498Y10509D01*
X31572Y10620D01*
X31660Y10720D01*
X31760Y10808D01*
X31871Y10882D01*
X31990Y10941D01*
X32116Y10984D01*
X32247Y11010D01*
X32380Y11018D01*
X47620Y11018D01*
D02*
G37*
G36*
X27620D02*
X27753Y11010D01*
X27884Y10984D01*
X28010Y10941D01*
X28129Y10882D01*
X28240Y10808D01*
X28340Y10720D01*
X28428Y10620D01*
X28502Y10509D01*
X28561Y10390D01*
X28603Y10264D01*
X28630Y10133D01*
X28638Y10000D01*
Y0D01*
X28630Y-133D01*
X28603Y-264D01*
X28561Y-390D01*
X28502Y-509D01*
X28428Y-620D01*
X28340Y-720D01*
X28240Y-808D01*
X28129Y-882D01*
X28010Y-941D01*
X27884Y-984D01*
X27753Y-1010D01*
X27620Y-1018D01*
X12380D01*
X12247Y-1010D01*
X12117Y-984D01*
X11990Y-941D01*
X11871Y-882D01*
X11760Y-808D01*
X11660Y-720D01*
X11572Y-620D01*
X11498Y-509D01*
X11439Y-390D01*
X11396Y-264D01*
X11371Y-133D01*
X11362Y0D01*
Y10000D01*
X11371Y10133D01*
X11396Y10264D01*
X11439Y10390D01*
X11498Y10509D01*
X11572Y10620D01*
X11660Y10720D01*
X11760Y10808D01*
X11871Y10882D01*
X11990Y10941D01*
X12117Y10984D01*
X12247Y11010D01*
X12380Y11018D01*
X27620Y11018D01*
D02*
G37*
D13*
X340000Y107000D02*
D03*
Y150000D02*
D03*
D23*
X237880Y104050D02*
D03*
Y91350D02*
D03*
Y78650D02*
D03*
Y65950D02*
D03*
X292120D02*
D03*
Y78650D02*
D03*
Y91350D02*
D03*
Y104050D02*
D03*
D24*
X265000Y85000D02*
D03*
D25*
X353600Y70000D02*
D03*
X326400D02*
D03*
X166400Y50000D02*
D03*
X193600D02*
D03*
X166400Y27500D02*
D03*
X193600D02*
D03*
D26*
X345000Y14600D02*
D03*
Y30400D02*
D03*
X330000Y30400D02*
D03*
Y14600D02*
D03*
X255000Y30400D02*
D03*
Y14600D02*
D03*
X300000Y30400D02*
D03*
Y14600D02*
D03*
X285000Y14600D02*
D03*
Y30400D02*
D03*
X270000Y30400D02*
D03*
Y14600D02*
D03*
X225000Y30400D02*
D03*
Y14600D02*
D03*
X240000Y14600D02*
D03*
Y30400D02*
D03*
D27*
X315000Y31000D02*
D03*
Y14000D02*
D03*
X360000D02*
D03*
Y31000D02*
D03*
D28*
X420250Y90000D02*
D03*
X379750D02*
D03*
D29*
X399000Y45000D02*
D03*
X416000D02*
D03*
X399000Y30000D02*
D03*
X416000D02*
D03*
X399000Y15000D02*
D03*
X416000D02*
D03*
D30*
X90000Y61500D02*
D03*
Y158500D02*
D03*
D31*
X192500Y90500D02*
D03*
Y134500D02*
D03*
M02*
