G04*
G04 #@! TF.GenerationSoftware,Altium Limited,Altium Designer,24.5.2 (23)*
G04*
G04 Layer_Physical_Order=1*
G04 Layer_Color=255*
%FSLAX44Y44*%
%MOMM*%
G71*
G04*
G04 #@! TF.SameCoordinates,71DE77E4-8B13-49D2-B116-840717ED03C6*
G04*
G04*
G04 #@! TF.FilePolarity,Positive*
G04*
G01*
G75*
%ADD14R,2.4000X3.1000*%
%ADD15R,1.5250X0.6500*%
%ADD16R,2.1500X2.2000*%
%ADD17R,2.3000X2.5000*%
%ADD18R,1.0700X1.7800*%
%ADD19R,1.0200X0.9400*%
%ADD20R,1.0000X0.9000*%
%ADD21R,1.5500X5.6000*%
%ADD22R,0.9000X1.0000*%
%AMCUSTOMSHAPE31*
4,1,8,2.2500,0.5000,2.5000,0.2500,2.5000,-0.2500,2.2500,-0.5000,-2.2500,-0.5000,-2.5000,-0.2500,-2.5000,0.2500,-2.2500,0.5000,2.2500,0.5000,0.0*%
%ADD31CUSTOMSHAPE31*%

%ADD32C,0.5000*%
%AMCUSTOMSHAPE33*
4,1,4,0.0000,0.7620,1.0000,0.7620,1.0000,-0.7620,0.0000,-0.7620,0.0000,0.7620,0.0*%
%ADD33CUSTOMSHAPE33*%

%AMCUSTOMSHAPE34*
4,1,4,0.0000,-0.7620,-1.0000,-0.7620,-1.0000,0.7620,0.0000,0.7620,0.0000,-0.7620,0.0*%
%ADD34CUSTOMSHAPE34*%

%AMCUSTOMSHAPE35*
4,1,4,0.7620,0.0000,0.7620,-1.0000,-0.7620,-1.0000,-0.7620,0.0000,0.7620,0.0000,0.0*%
%ADD35CUSTOMSHAPE35*%

%AMCUSTOMSHAPE36*
4,1,4,-0.7620,0.0000,-0.7620,1.0000,0.7620,1.0000,0.7620,0.0000,-0.7620,0.0000,0.0*%
%ADD36CUSTOMSHAPE36*%

%ADD37C,0.6000*%
G36*
X320000Y220000D02*
Y137500D01*
X224040D01*
Y148730D01*
X210000D01*
X195960D01*
Y137500D01*
X187500D01*
X170000Y120000D01*
X155000D01*
X147500Y112500D01*
Y103040D01*
X147500D01*
Y100000D01*
X136270D01*
Y85000D01*
X133730D01*
Y100000D01*
X122500D01*
Y112500D01*
X115000Y120000D01*
X63290D01*
Y130730D01*
X50000D01*
X36710D01*
Y120000D01*
X0D01*
Y220000D01*
X0D01*
Y240000D01*
X320000D01*
Y220000D01*
D02*
G37*
G36*
X92880Y95000D02*
X107880D01*
Y87500D01*
X92880D01*
Y82880D01*
X85000Y75000D01*
Y67500D01*
X42500D01*
Y61440D01*
X33510D01*
Y51270D01*
X41400D01*
Y48730D01*
X33510D01*
Y38560D01*
Y28770D01*
X41400D01*
Y26230D01*
X33510D01*
Y16060D01*
X42500D01*
Y15000D01*
X50000D01*
Y0D01*
X0D01*
Y6250D01*
Y110000D01*
X15000D01*
Y109914D01*
X20000D01*
X20656Y110000D01*
X92880D01*
Y95000D01*
D02*
G37*
G36*
X265000Y55000D02*
X212500D01*
Y85000D01*
X189620D01*
Y85153D01*
X174472Y100300D01*
X162120Y100300D01*
Y107800D01*
X174472D01*
X189620Y125000D01*
X265000D01*
Y55000D01*
D02*
G37*
G36*
X261960Y46270D02*
X269000D01*
Y43730D01*
X261960D01*
Y37460D01*
Y31270D01*
X269000D01*
Y28730D01*
X261960D01*
Y22460D01*
Y16270D01*
X269000D01*
Y13730D01*
X261960D01*
Y7460D01*
X261960D01*
X261777Y4996D01*
X238930D01*
X237540Y6960D01*
Y12730D01*
X230000D01*
Y14000D01*
X228730D01*
Y21040D01*
X225000D01*
Y23875D01*
X229400D01*
X229400Y23875D01*
X229829Y23960D01*
X237540D01*
Y38040D01*
X225000D01*
Y47940D01*
X261960D01*
Y46270D01*
D02*
G37*
G36*
X87500Y37640D02*
X87360D01*
Y24380D01*
X87360Y23160D01*
X87360Y23160D01*
Y21840D01*
X87360D01*
X87360Y20620D01*
Y7360D01*
X87360Y7360D01*
X87360D01*
X87360Y7360D01*
X86935Y4996D01*
X60086D01*
Y13778D01*
X60466Y15166D01*
X62509Y16060D01*
X67330D01*
Y27500D01*
X68600D01*
Y28770D01*
X76490D01*
Y38560D01*
Y48730D01*
X68600D01*
Y51270D01*
X76490D01*
Y60000D01*
X87500D01*
Y37640D01*
D02*
G37*
G36*
X320000Y0D02*
X280000D01*
Y125000D01*
X320000D01*
Y0D01*
D02*
G37*
%LPC*%
G36*
X224040Y165040D02*
X211270D01*
Y151270D01*
X224040D01*
Y165040D01*
D02*
G37*
G36*
X208730D02*
X195960D01*
Y151270D01*
X208730D01*
Y165040D01*
D02*
G37*
G36*
X63290Y145540D02*
X51270D01*
Y133270D01*
X63290D01*
Y145540D01*
D02*
G37*
G36*
X48730D02*
X36710D01*
Y133270D01*
X48730D01*
Y145540D01*
D02*
G37*
G36*
X63290Y101540D02*
X51270D01*
Y89270D01*
X63290D01*
Y101540D01*
D02*
G37*
G36*
X48730D02*
X36710D01*
Y89270D01*
X48730D01*
Y101540D01*
D02*
G37*
G36*
X63290Y86730D02*
X51270D01*
Y74460D01*
X63290D01*
Y86730D01*
D02*
G37*
G36*
X48730D02*
X36710D01*
Y74460D01*
X48730D01*
Y86730D01*
D02*
G37*
G36*
X224040Y122040D02*
X211270D01*
Y108270D01*
X224040D01*
Y122040D01*
D02*
G37*
G36*
X208730D02*
X195960D01*
Y108270D01*
X208730D01*
Y122040D01*
D02*
G37*
G36*
X224040Y105730D02*
X211270D01*
Y91960D01*
X224040D01*
Y105730D01*
D02*
G37*
G36*
X208730D02*
X195960D01*
Y91960D01*
X208730D01*
Y105730D01*
D02*
G37*
G36*
X260040Y120540D02*
X251020D01*
Y91270D01*
X260040D01*
Y120540D01*
D02*
G37*
G36*
X248480D02*
X239460D01*
Y91270D01*
X248480D01*
Y120540D01*
D02*
G37*
G36*
X231490Y81440D02*
X224870D01*
Y71270D01*
X231490D01*
Y81440D01*
D02*
G37*
G36*
X222330D02*
X215710D01*
Y71270D01*
X222330D01*
Y81440D01*
D02*
G37*
G36*
X260040Y88730D02*
X251020D01*
Y59460D01*
X260040D01*
Y88730D01*
D02*
G37*
G36*
X248480D02*
X239460D01*
Y59460D01*
X248480D01*
Y88730D01*
D02*
G37*
G36*
X231490Y68730D02*
X224870D01*
Y58560D01*
X231490D01*
Y68730D01*
D02*
G37*
G36*
X222330D02*
X215710D01*
Y58560D01*
X222330D01*
Y68730D01*
D02*
G37*
G36*
X237540Y21040D02*
X231270D01*
Y15270D01*
X237540D01*
Y21040D01*
D02*
G37*
G36*
X76490Y26230D02*
X69870D01*
Y16060D01*
X76490D01*
Y26230D01*
D02*
G37*
%LPD*%
D14*
X135000Y85000D02*
D03*
D15*
X162120Y104050D02*
D03*
Y91350D02*
D03*
Y78650D02*
D03*
Y65950D02*
D03*
X107880D02*
D03*
Y78650D02*
D03*
Y91350D02*
D03*
Y104050D02*
D03*
D16*
X50000Y132000D02*
D03*
Y88000D02*
D03*
D17*
X210000Y107000D02*
D03*
Y150000D02*
D03*
D18*
X223600Y70000D02*
D03*
X196400D02*
D03*
X41400Y50000D02*
D03*
X68600D02*
D03*
X41400Y27500D02*
D03*
X68600D02*
D03*
D19*
X215000Y14600D02*
D03*
Y30400D02*
D03*
X200000Y30400D02*
D03*
Y14600D02*
D03*
X125000Y30400D02*
D03*
Y14600D02*
D03*
X170000Y30400D02*
D03*
Y14600D02*
D03*
X155000Y14600D02*
D03*
Y30400D02*
D03*
X140000Y30400D02*
D03*
Y14600D02*
D03*
X95000Y30400D02*
D03*
Y14600D02*
D03*
X110000Y14600D02*
D03*
Y30400D02*
D03*
D20*
X185000Y31000D02*
D03*
Y14000D02*
D03*
X230000D02*
D03*
Y31000D02*
D03*
D21*
X290250Y90000D02*
D03*
X249750D02*
D03*
D22*
X269000Y45000D02*
D03*
X286000D02*
D03*
X269000Y30000D02*
D03*
X286000D02*
D03*
X269000Y15000D02*
D03*
X286000D02*
D03*
D31*
X70000Y200000D02*
D03*
X135000Y160000D02*
D03*
X210000Y200000D02*
D03*
X135000D02*
D03*
X70000Y160000D02*
D03*
Y180000D02*
D03*
X135000Y140000D02*
D03*
Y180000D02*
D03*
X270000Y160000D02*
D03*
Y180000D02*
D03*
Y200000D02*
D03*
X210000Y180000D02*
D03*
D32*
X107500Y112500D02*
X107880Y112120D01*
X177500Y52500D02*
X185000Y45000D01*
X171350Y78650D02*
X177500Y72500D01*
Y52500D02*
Y72500D01*
X162120Y78650D02*
X171350D01*
X185000Y31000D02*
Y45000D01*
X229400Y30400D02*
X230000Y31000D01*
X215000Y30400D02*
X229400D01*
X185000Y31000D02*
X185600Y30400D01*
X200000D01*
X215000Y14600D02*
X215000Y14600D01*
X200000Y14600D02*
X215000D01*
X185000Y6540D02*
Y14000D01*
X230000Y6540D02*
Y14000D01*
X155000Y30400D02*
Y52500D01*
X162120Y59620D02*
Y65950D01*
X155000Y52500D02*
X162120Y59620D01*
X170000Y30400D02*
Y40000D01*
X170000Y30400D02*
X170000Y30400D01*
X135000Y85000D02*
X141350Y91350D01*
X162120D01*
X187500Y70000D02*
X196400D01*
X92500Y65000D02*
Y72618D01*
X98532Y78650D01*
X107880D01*
Y104050D02*
Y112120D01*
X125000Y30400D02*
Y42500D01*
X107880Y59620D02*
X107880Y65950D01*
X107880Y59620D02*
X125000Y42500D01*
X170000Y14600D02*
X170000Y14600D01*
X155000Y14600D02*
X170000D01*
X155000Y30400D02*
X155000Y30400D01*
X140000Y30400D02*
X155000D01*
X140000Y6540D02*
Y14600D01*
X125000Y6540D02*
Y14600D01*
X95000Y30400D02*
Y37500D01*
X97500Y40000D01*
X95000Y6540D02*
Y14600D01*
X110000Y30400D02*
Y40000D01*
X95000Y14600D02*
X110000Y14600D01*
D33*
X-360Y62374D02*
D03*
Y102374D02*
D03*
X0Y210000D02*
D03*
X0Y170000D02*
D03*
X0Y190000D02*
D03*
Y150000D02*
D03*
X-360Y82374D02*
D03*
Y22374D02*
D03*
Y42374D02*
D03*
D34*
X320000Y170000D02*
D03*
Y190000D02*
D03*
Y210000D02*
D03*
Y117500D02*
D03*
Y97500D02*
D03*
Y77500D02*
D03*
Y57500D02*
D03*
Y37500D02*
D03*
Y17500D02*
D03*
D35*
X260000Y240000D02*
D03*
X280000Y240000D02*
D03*
X220000Y240000D02*
D03*
X200000D02*
D03*
X240000D02*
D03*
X300000D02*
D03*
X180000D02*
D03*
X40000D02*
D03*
X20000D02*
D03*
X60000Y240000D02*
D03*
X100000Y240000D02*
D03*
X80000Y240000D02*
D03*
X120000Y240000D02*
D03*
X140000D02*
D03*
X160000D02*
D03*
D36*
X20000Y0D02*
D03*
X40000Y0D02*
D03*
D37*
X40000Y70000D02*
D03*
X30000Y90000D02*
D03*
Y70000D02*
D03*
Y50000D02*
D03*
Y30000D02*
D03*
X25000Y100000D02*
D03*
X20000Y90000D02*
D03*
X25000Y80000D02*
D03*
X20000Y70000D02*
D03*
X25000Y60000D02*
D03*
X20000Y50000D02*
D03*
X25000Y40000D02*
D03*
X20000Y30000D02*
D03*
X25000Y20000D02*
D03*
X15000Y100000D02*
D03*
Y80000D02*
D03*
Y60000D02*
D03*
Y40000D02*
D03*
Y20000D02*
D03*
X310000Y150000D02*
D03*
X305000Y220000D02*
D03*
X300000Y210000D02*
D03*
X305000Y200000D02*
D03*
X300000Y190000D02*
D03*
X305000Y180000D02*
D03*
X300000Y170000D02*
D03*
X305000Y160000D02*
D03*
X300000Y150000D02*
D03*
X295000Y220000D02*
D03*
X290000Y210000D02*
D03*
Y190000D02*
D03*
Y170000D02*
D03*
Y150000D02*
D03*
X285000Y220000D02*
D03*
X280000Y210000D02*
D03*
Y190000D02*
D03*
Y170000D02*
D03*
Y150000D02*
D03*
X275000Y220000D02*
D03*
X270000Y210000D02*
D03*
Y190000D02*
D03*
Y170000D02*
D03*
Y150000D02*
D03*
X265000Y220000D02*
D03*
X260000Y210000D02*
D03*
Y190000D02*
D03*
Y170000D02*
D03*
Y150000D02*
D03*
X255000Y220000D02*
D03*
X250000Y210000D02*
D03*
Y190000D02*
D03*
Y170000D02*
D03*
Y150000D02*
D03*
X245000Y220000D02*
D03*
X240000Y210000D02*
D03*
Y190000D02*
D03*
Y170000D02*
D03*
Y150000D02*
D03*
X235000Y220000D02*
D03*
X230000Y210000D02*
D03*
Y190000D02*
D03*
Y170000D02*
D03*
X235000Y160000D02*
D03*
X230000Y150000D02*
D03*
X225000Y220000D02*
D03*
X220000Y210000D02*
D03*
Y190000D02*
D03*
Y170000D02*
D03*
X215000Y220000D02*
D03*
X210000Y210000D02*
D03*
Y190000D02*
D03*
Y170000D02*
D03*
X205000Y220000D02*
D03*
X200000Y210000D02*
D03*
Y190000D02*
D03*
Y170000D02*
D03*
X195000Y220000D02*
D03*
X190000Y210000D02*
D03*
Y190000D02*
D03*
Y170000D02*
D03*
Y150000D02*
D03*
X185000Y220000D02*
D03*
X180000Y210000D02*
D03*
Y190000D02*
D03*
Y170000D02*
D03*
X185000Y160000D02*
D03*
X180000Y150000D02*
D03*
X175000Y220000D02*
D03*
X170000Y210000D02*
D03*
X175000Y200000D02*
D03*
X170000Y190000D02*
D03*
X175000Y180000D02*
D03*
X170000Y170000D02*
D03*
X175000Y160000D02*
D03*
X170000Y150000D02*
D03*
X165000Y220000D02*
D03*
X160000Y210000D02*
D03*
X165000Y200000D02*
D03*
X160000Y190000D02*
D03*
X165000Y180000D02*
D03*
X160000Y170000D02*
D03*
X165000Y160000D02*
D03*
X160000Y150000D02*
D03*
X155000Y220000D02*
D03*
X150000Y210000D02*
D03*
Y190000D02*
D03*
Y170000D02*
D03*
Y150000D02*
D03*
X145000Y220000D02*
D03*
X140000Y210000D02*
D03*
Y190000D02*
D03*
Y170000D02*
D03*
Y150000D02*
D03*
X135000Y220000D02*
D03*
X130000Y210000D02*
D03*
Y190000D02*
D03*
Y170000D02*
D03*
Y150000D02*
D03*
X125000Y220000D02*
D03*
X120000Y210000D02*
D03*
Y190000D02*
D03*
Y170000D02*
D03*
Y150000D02*
D03*
X115000Y220000D02*
D03*
X110000Y210000D02*
D03*
Y190000D02*
D03*
Y170000D02*
D03*
Y150000D02*
D03*
X105000Y220000D02*
D03*
X100000Y210000D02*
D03*
X105000Y200000D02*
D03*
X100000Y190000D02*
D03*
X105000Y180000D02*
D03*
X100000Y170000D02*
D03*
X105000Y160000D02*
D03*
X100000Y150000D02*
D03*
X95000Y220000D02*
D03*
X90000Y210000D02*
D03*
Y190000D02*
D03*
Y170000D02*
D03*
Y150000D02*
D03*
X85000Y220000D02*
D03*
X80000Y210000D02*
D03*
Y190000D02*
D03*
Y170000D02*
D03*
Y150000D02*
D03*
X75000Y220000D02*
D03*
X70000Y210000D02*
D03*
Y190000D02*
D03*
Y170000D02*
D03*
Y150000D02*
D03*
X65000Y220000D02*
D03*
X60000Y210000D02*
D03*
Y190000D02*
D03*
Y170000D02*
D03*
Y150000D02*
D03*
X55000Y220000D02*
D03*
X50000Y210000D02*
D03*
Y190000D02*
D03*
Y170000D02*
D03*
Y150000D02*
D03*
X45000Y220000D02*
D03*
X40000Y210000D02*
D03*
Y190000D02*
D03*
Y170000D02*
D03*
Y150000D02*
D03*
X35000Y220000D02*
D03*
X30000Y210000D02*
D03*
X35000Y200000D02*
D03*
X30000Y190000D02*
D03*
X35000Y180000D02*
D03*
X30000Y170000D02*
D03*
X35000Y160000D02*
D03*
X30000Y150000D02*
D03*
X25000Y220000D02*
D03*
X20000Y210000D02*
D03*
X25000Y200000D02*
D03*
X20000Y190000D02*
D03*
X25000Y180000D02*
D03*
X20000Y170000D02*
D03*
X25000Y160000D02*
D03*
X20000Y150000D02*
D03*
X15000Y220000D02*
D03*
Y200000D02*
D03*
Y180000D02*
D03*
Y160000D02*
D03*
X85000Y85000D02*
D03*
X303001Y118001D02*
D03*
Y104001D02*
D03*
Y90001D02*
D03*
Y76001D02*
D03*
Y62000D02*
D03*
Y48000D02*
D03*
Y34000D02*
D03*
Y20001D02*
D03*
X299501Y55001D02*
D03*
X296001Y48000D02*
D03*
X299501Y41000D02*
D03*
X296001Y34000D02*
D03*
X299501Y27001D02*
D03*
X296001Y20001D02*
D03*
X299501Y13001D02*
D03*
X292501Y55001D02*
D03*
X257500Y45000D02*
D03*
Y30000D02*
D03*
Y15000D02*
D03*
X185000Y6540D02*
D03*
X230000D02*
D03*
X170000Y40000D02*
D03*
X142500Y95000D02*
D03*
X135000Y90000D02*
D03*
X92500Y65000D02*
D03*
X107880Y112500D02*
D03*
X140000Y6540D02*
D03*
X125000D02*
D03*
X95000D02*
D03*
X97500Y40000D02*
D03*
X110000D02*
D03*
X135000Y80000D02*
D03*
X127500Y85000D02*
D03*
X142500D02*
D03*
X187500Y70000D02*
D03*
X142500Y75000D02*
D03*
X127500Y95000D02*
D03*
Y75000D02*
D03*
X77500Y10000D02*
D03*
Y20000D02*
D03*
Y30000D02*
D03*
Y40000D02*
D03*
Y50000D02*
D03*
M02*
