M48
;Layer_Color=9474304
;FILE_FORMAT=4:4
METRIC,TZ
;TYPE=PLATED
T01F00S00C0.3000
T02F00S00C0.9000
%
T01
X15000Y20000
X25000
X20000Y30000
X30000
X25000Y40000
X15000
X20000Y50000
X30000
X25000Y60000
X15000
X20000Y70000
X30000
X40000
X25000Y80000
X15000
X20000Y90000
X30000
X25000Y100000
X15000
X85000Y85000
X92500Y65000
X97500Y40000
X110000
X77500
Y30000
Y20000
Y10000
X95000Y6540
X125000
X140000
X185000
X230000
X257500Y15000
Y30000
Y45000
X296001Y48000
X303001
X299501Y55001
X292501
X303001Y62000
Y76001
Y90001
Y104001
Y118001
X299501Y41000
X296001Y34000
X303001
X299501Y27001
X296001Y20001
X303001
X299501Y13001
X170000Y40000
X187500Y70000
X142500Y75000
Y85000
Y95000
X135000Y90000
X135000Y80000
X127500Y85000
Y75000
Y95000
X107880Y112500
X77500Y50000
X80000Y150000
X90000
X100000
X110000
X120000
X130000
X140000
X150000
X160000
X170000
X180000
X190000
X185000Y160000
X175000
X165000
X160000Y170000
X170000
X180000
X190000
X200000
X210000
X220000
X230000
X240000
X250000
X260000
X270000
X280000
X290000
X300000
X305000Y180000
X300000Y190000
X290000
X280000
X270000
X260000
X250000
X240000
X230000
X220000
X210000
X200000
X190000
X180000
X170000
X160000
X150000
X140000
X130000
X120000
X110000
X100000
X90000
X80000
X70000
X60000
X50000
X40000
X30000
X20000
X25000Y200000
X35000
X30000Y210000
X40000
X50000
X60000
X70000
X80000
X90000
X100000
X110000
X120000
X130000
X140000
X150000
X160000
X170000
X180000
X190000
X200000
X210000
X220000
X230000
X240000
X250000
X260000
X270000
X280000
X290000
X300000
X305000Y220000
X295000
X285000
X275000
X265000
X255000
X245000
X235000
X225000
X215000
X205000
X195000
X185000
X175000
X165000
X155000
X145000
X135000
X125000
X115000
X105000
X95000
X85000
X75000
X65000
X55000
X45000
X35000
X25000
X15000
X20000Y210000
X15000Y200000
Y180000
X25000
X35000
X30000Y170000
X40000
X50000
X60000
X70000
X80000
X90000
X100000
X110000
X120000
X130000
X140000
X150000
X165000Y180000
X175000
Y200000
X165000
X105000
Y180000
Y160000
X70000Y150000
X60000
X50000
X40000
X30000
X20000
X25000Y160000
X35000
X15000
X20000Y170000
X235000Y160000
X230000Y150000
X240000
X250000
X260000
X270000
X280000
X290000
X300000
X310000
X305000Y160000
Y200000
T02
X20000Y0
X40000Y0
X-360Y22374
Y42374
Y62374
Y82374
Y102374
X320000Y97500
Y117500
Y77500
Y57500
Y37500
Y17500
Y170000
Y190000
Y210000
X300000Y240000
X280000Y240000
X260000Y240000
X240000
X220000
X200000
X180000
X160000
X140000
X120000
X100000
X80000Y240000
X60000
X40000Y240000
X20000
X0Y210000
Y190000
X0Y170000
X0Y150000
M30
