G04*
G04 #@! TF.GenerationSoftware,Altium Limited,Altium Designer,24.5.2 (23)*
G04*
G04 Layer_Physical_Order=1*
G04 Layer_Color=255*
%FSLAX44Y44*%
%MOMM*%
G71*
G04*
G04 #@! TF.SameCoordinates,B9E64D96-6C6B-41B8-AF92-246256EA7E35*
G04*
G04*
G04 #@! TF.FilePolarity,Positive*
G04*
G01*
G75*
%ADD14R,1.5500X5.6000*%
%ADD15R,1.0700X1.7800*%
%ADD16R,2.3000X2.5000*%
%ADD17R,2.4000X3.1000*%
%ADD18R,1.5250X0.6500*%
%ADD19R,2.1500X2.2000*%
%ADD20R,1.0200X0.9400*%
%ADD21R,1.0000X0.9000*%
%AMCUSTOMSHAPE29*
4,1,8,2.2500,0.5000,2.5000,0.2500,2.5000,-0.2500,2.2500,-0.5000,-2.2500,-0.5000,-2.5000,-0.2500,-2.5000,0.2500,-2.2500,0.5000,2.2500,0.5000,0.0*%
%ADD29CUSTOMSHAPE29*%

%ADD30C,0.5000*%
%AMCUSTOMSHAPE31*
4,1,4,0.0000,-0.7620,-1.0000,-0.7620,-1.0000,0.7620,0.0000,0.7620,0.0000,-0.7620,0.0*%
%ADD31CUSTOMSHAPE31*%

%AMCUSTOMSHAPE32*
4,1,4,0.7620,0.0000,0.7620,-1.0000,-0.7620,-1.0000,-0.7620,0.0000,0.7620,0.0000,0.0*%
%ADD32CUSTOMSHAPE32*%

%AMCUSTOMSHAPE33*
4,1,4,0.0000,0.7620,1.0000,0.7620,1.0000,-0.7620,0.0000,-0.7620,0.0000,0.7620,0.0*%
%ADD33CUSTOMSHAPE33*%

%ADD34C,0.6000*%
G36*
X345000Y230210D02*
Y220000D01*
Y170000D01*
X177500D01*
X162500Y155000D01*
Y127500D01*
X162500D01*
X147500Y112500D01*
X147500D01*
Y66960D01*
X147500D01*
Y37640D01*
X129025D01*
Y45000D01*
X128529Y47497D01*
X127114Y49614D01*
X127114Y49614D01*
X122162Y54566D01*
X122500Y55381D01*
X122500D01*
Y65000D01*
X122500D01*
Y112500D01*
X107500Y127500D01*
X63290D01*
Y135730D01*
X50000D01*
X36710D01*
Y127500D01*
X5000D01*
Y220000D01*
Y235000D01*
Y235004D01*
X20000D01*
Y235000D01*
X330210D01*
Y235004D01*
X345000D01*
Y230210D01*
D02*
G37*
G36*
X263750Y85000D02*
X182500D01*
X175000Y100300D01*
X162120D01*
Y107800D01*
X175000D01*
X182500Y122500D01*
X197500D01*
Y150000D01*
X263750D01*
Y85000D01*
D02*
G37*
G36*
X267500Y73206D02*
Y66440D01*
X262670D01*
Y55000D01*
X261400D01*
Y53730D01*
X253510D01*
Y43560D01*
Y33770D01*
X261400D01*
Y31230D01*
X253510D01*
Y21060D01*
Y11270D01*
X261400D01*
Y10000D01*
X262670D01*
Y-1440D01*
X267500D01*
Y-5000D01*
X60000D01*
Y3814D01*
X60710Y6060D01*
X62540Y6060D01*
X67330D01*
Y17500D01*
X68600D01*
Y18770D01*
X76490D01*
Y28560D01*
Y38730D01*
X68600D01*
Y40000D01*
X67330D01*
Y51440D01*
X62540D01*
X60710Y51440D01*
X60000Y53686D01*
Y57500D01*
X86250D01*
Y58610D01*
X88790Y59782D01*
X90003Y58971D01*
X92500Y58475D01*
X94997Y58971D01*
X95522Y59322D01*
X97715Y60160D01*
X100142Y59886D01*
X101355Y59620D01*
X101851Y57123D01*
X103266Y55006D01*
X103266Y55006D01*
X115975Y42297D01*
Y37640D01*
X111270D01*
Y30400D01*
X108730D01*
Y37640D01*
X105558D01*
X103947Y39604D01*
X104025Y40000D01*
X103529Y42497D01*
X102114Y44614D01*
X99997Y46029D01*
X97500Y46525D01*
X95003Y46029D01*
X92886Y44614D01*
X90386Y42114D01*
X88971Y39997D01*
X88503Y37640D01*
X87360D01*
Y24380D01*
X87360Y22500D01*
X87360Y20620D01*
Y7360D01*
X88475D01*
Y6540D01*
X88971Y4043D01*
X90386Y1926D01*
X92503Y511D01*
X95000Y15D01*
X97497Y511D01*
X99614Y1926D01*
X101029Y4043D01*
X101273Y5270D01*
X102360Y7360D01*
X117640D01*
Y7360D01*
X123730D01*
Y14600D01*
X126270D01*
Y7360D01*
X138730D01*
Y14600D01*
X141270D01*
Y7360D01*
X147360D01*
Y7360D01*
X162640D01*
Y7360D01*
X177460D01*
Y6960D01*
X183730D01*
Y14000D01*
X186270D01*
Y6960D01*
X192540D01*
Y7360D01*
X207360D01*
Y7360D01*
X222460D01*
Y6960D01*
X228730D01*
Y14000D01*
Y21040D01*
X225874D01*
X225323Y22041D01*
X226414Y23875D01*
X229400D01*
X229400Y23875D01*
X229829Y23960D01*
X237540D01*
Y38040D01*
X222460D01*
Y37640D01*
X207640D01*
Y37640D01*
X192540D01*
Y38040D01*
X191525D01*
Y45000D01*
X191029Y47497D01*
X189614Y49614D01*
X189614Y49614D01*
X184025Y55203D01*
Y72500D01*
X183936Y72950D01*
X185547Y74914D01*
X198460D01*
Y68270D01*
X226540D01*
Y74914D01*
X263750D01*
X264960Y75073D01*
X267500Y73206D01*
D02*
G37*
G36*
X345000Y-5000D02*
X282500D01*
Y150000D01*
X345000D01*
Y-5000D01*
D02*
G37*
G36*
X15000Y110000D02*
X92880D01*
Y95000D01*
X107880D01*
Y87500D01*
X92880D01*
Y82880D01*
X85000Y75000D01*
Y66250D01*
X47500D01*
Y61622D01*
Y57500D01*
Y51440D01*
X42670D01*
Y40000D01*
X41400D01*
Y38730D01*
X33510D01*
Y28560D01*
Y18770D01*
X41400D01*
Y17500D01*
X42670D01*
Y6060D01*
X47500D01*
Y-5000D01*
X4996D01*
Y2290D01*
X10000D01*
X10991Y2487D01*
X11831Y3049D01*
X12393Y3889D01*
X12590Y4880D01*
Y6250D01*
X5000D01*
Y102710D01*
X4996D01*
Y107599D01*
X5000Y107628D01*
Y110000D01*
X15000D01*
Y110000D01*
D02*
G37*
%LPC*%
G36*
X63290Y150540D02*
X51270D01*
Y138270D01*
X63290D01*
Y150540D01*
D02*
G37*
G36*
X48730D02*
X36710D01*
Y138270D01*
X48730D01*
Y150540D01*
D02*
G37*
G36*
X260130Y66440D02*
X253510D01*
Y56270D01*
X260130D01*
Y66440D01*
D02*
G37*
G36*
X226540Y65730D02*
X213770D01*
Y51960D01*
X226540D01*
Y65730D01*
D02*
G37*
G36*
X211230D02*
X198460D01*
Y51960D01*
X211230D01*
Y65730D01*
D02*
G37*
G36*
X69870Y51440D02*
Y41270D01*
X76490D01*
Y51440D01*
X69870D01*
D02*
G37*
G36*
X237540Y21040D02*
X231270D01*
Y15270D01*
X237540D01*
Y21040D01*
D02*
G37*
G36*
Y12730D02*
X231270D01*
Y6960D01*
X237540D01*
Y12730D01*
D02*
G37*
G36*
X76490Y16230D02*
X69870D01*
Y6060D01*
X76490D01*
Y16230D01*
D02*
G37*
G36*
X260130Y8730D02*
X253510D01*
Y-1440D01*
X260130D01*
Y8730D01*
D02*
G37*
G36*
X63290Y106540D02*
X51270D01*
Y94270D01*
X63290D01*
Y106540D01*
D02*
G37*
G36*
X48730D02*
X36710D01*
Y94270D01*
X48730D01*
Y106540D01*
D02*
G37*
G36*
X63290Y91730D02*
X51270D01*
Y79460D01*
X63290D01*
Y91730D01*
D02*
G37*
G36*
X48730D02*
X36710D01*
Y79460D01*
X48730D01*
Y91730D01*
D02*
G37*
G36*
X40130Y51440D02*
X33510D01*
Y41270D01*
X40130D01*
Y51440D01*
D02*
G37*
G36*
Y16230D02*
X33510D01*
Y6060D01*
X40130D01*
Y16230D01*
D02*
G37*
%LPD*%
D14*
X252250Y117500D02*
D03*
X292750D02*
D03*
D15*
X206100Y137500D02*
D03*
X178900D02*
D03*
X288600Y55000D02*
D03*
X261400D02*
D03*
X288600Y32500D02*
D03*
X261400D02*
D03*
X288600Y10000D02*
D03*
X261400D02*
D03*
X41400Y40000D02*
D03*
X68600D02*
D03*
X41400Y17500D02*
D03*
X68600D02*
D03*
D16*
X212500Y110000D02*
D03*
Y67000D02*
D03*
D17*
X135000Y85000D02*
D03*
D18*
X162120Y104050D02*
D03*
Y91350D02*
D03*
Y78650D02*
D03*
Y65950D02*
D03*
X107880D02*
D03*
Y78650D02*
D03*
Y91350D02*
D03*
Y104050D02*
D03*
D19*
X50000Y137000D02*
D03*
Y93000D02*
D03*
D20*
X215000Y14600D02*
D03*
Y30400D02*
D03*
X200000Y30400D02*
D03*
Y14600D02*
D03*
X125000Y30400D02*
D03*
Y14600D02*
D03*
X170000Y30400D02*
D03*
Y14600D02*
D03*
X155000Y14600D02*
D03*
Y30400D02*
D03*
X140000Y30400D02*
D03*
Y14600D02*
D03*
X95000Y30400D02*
D03*
Y14600D02*
D03*
X110000Y14600D02*
D03*
Y30400D02*
D03*
D21*
X185000Y31000D02*
D03*
Y14000D02*
D03*
X230000D02*
D03*
Y31000D02*
D03*
D29*
X282500Y220000D02*
D03*
X210000D02*
D03*
X137500D02*
D03*
X67500D02*
D03*
X210000Y200000D02*
D03*
X67500D02*
D03*
Y180000D02*
D03*
X210000Y180000D02*
D03*
X282500Y200000D02*
D03*
Y180000D02*
D03*
X137500Y200000D02*
D03*
Y180000D02*
D03*
D30*
X157500Y55000D02*
X162120Y59620D01*
X157500Y32900D02*
Y55000D01*
X155000Y30400D02*
X157500Y32900D01*
X122500Y32900D02*
X125000Y30400D01*
X107880Y59620D02*
X122500Y45000D01*
Y32900D02*
Y45000D01*
X107500Y112500D02*
X107880Y112120D01*
X170000Y137500D02*
X178900D01*
X250000Y55000D02*
X261400D01*
X250000Y32500D02*
X261400D01*
X250000Y10000D02*
X261400D01*
X177500Y52500D02*
X185000Y45000D01*
X171350Y78650D02*
X177500Y72500D01*
Y52500D02*
Y72500D01*
X162120Y78650D02*
X171350D01*
X185000Y31000D02*
Y45000D01*
X229400Y30400D02*
X230000Y31000D01*
X215000Y30400D02*
X229400D01*
X185000Y31000D02*
X185600Y30400D01*
X200000D01*
X215000Y14600D02*
X215000Y14600D01*
X200000Y14600D02*
X215000D01*
X185000Y6540D02*
Y14000D01*
X230000Y6540D02*
Y14000D01*
X162120Y59620D02*
Y65950D01*
X170000Y30400D02*
Y40000D01*
X170000Y30400D02*
X170000Y30400D01*
X135000Y85000D02*
X141350Y91350D01*
X162120D01*
X92500Y65000D02*
Y72618D01*
X98532Y78650D01*
X107880D01*
Y104050D02*
Y112120D01*
X107880Y59620D02*
X107880Y65950D01*
X170000Y14600D02*
X170000Y14600D01*
X155000Y14600D02*
X170000D01*
X155000Y30400D02*
X155000Y30400D01*
X140000Y30400D02*
X155000D01*
X140000Y6540D02*
Y14600D01*
X125000Y6540D02*
Y14600D01*
X95000Y30400D02*
Y37500D01*
X97500Y40000D01*
X95000Y6540D02*
Y14600D01*
X110000Y30400D02*
Y40000D01*
X95000Y14600D02*
X110000Y14600D01*
D31*
X350000Y12500D02*
D03*
Y132500D02*
D03*
X350000Y112500D02*
D03*
X350000Y180000D02*
D03*
Y200000D02*
D03*
Y220000D02*
D03*
Y92500D02*
D03*
Y72500D02*
D03*
Y52500D02*
D03*
Y32500D02*
D03*
D32*
X320000Y240000D02*
D03*
X260000D02*
D03*
X280000Y240000D02*
D03*
X220000Y240000D02*
D03*
X200000D02*
D03*
X240000D02*
D03*
X300000D02*
D03*
X180000D02*
D03*
X40000D02*
D03*
X20000D02*
D03*
X60000Y240000D02*
D03*
X100000Y240000D02*
D03*
X80000Y240000D02*
D03*
X120000Y240000D02*
D03*
X140000D02*
D03*
X160000D02*
D03*
D33*
X0Y137500D02*
D03*
Y52500D02*
D03*
Y92500D02*
D03*
Y217500D02*
D03*
X0Y177500D02*
D03*
X0Y197500D02*
D03*
Y157500D02*
D03*
Y72500D02*
D03*
Y12500D02*
D03*
X0Y32500D02*
D03*
D34*
X335000Y230000D02*
D03*
X330000Y220000D02*
D03*
X335000Y210000D02*
D03*
X330000Y200000D02*
D03*
X335000Y190000D02*
D03*
X330000Y180000D02*
D03*
X325000Y210000D02*
D03*
X320000Y200000D02*
D03*
X325000Y190000D02*
D03*
X320000Y180000D02*
D03*
X315000Y210000D02*
D03*
Y190000D02*
D03*
X305000Y210000D02*
D03*
Y190000D02*
D03*
X295000Y210000D02*
D03*
Y190000D02*
D03*
X285000Y210000D02*
D03*
Y190000D02*
D03*
X275000Y210000D02*
D03*
Y190000D02*
D03*
X265000Y210000D02*
D03*
Y190000D02*
D03*
X250000Y220000D02*
D03*
X255000Y210000D02*
D03*
X250000Y200000D02*
D03*
X255000Y190000D02*
D03*
X250000Y180000D02*
D03*
X240000Y220000D02*
D03*
X245000Y210000D02*
D03*
X240000Y200000D02*
D03*
X245000Y190000D02*
D03*
X240000Y180000D02*
D03*
X235000Y210000D02*
D03*
Y190000D02*
D03*
X225000Y210000D02*
D03*
Y190000D02*
D03*
X215000Y210000D02*
D03*
Y190000D02*
D03*
X205000Y210000D02*
D03*
Y190000D02*
D03*
X195000Y210000D02*
D03*
Y190000D02*
D03*
X180000Y220000D02*
D03*
X185000Y210000D02*
D03*
X180000Y200000D02*
D03*
X185000Y190000D02*
D03*
X180000Y180000D02*
D03*
X170000Y220000D02*
D03*
X175000Y210000D02*
D03*
X170000Y200000D02*
D03*
X175000Y190000D02*
D03*
X170000Y180000D02*
D03*
X165000Y210000D02*
D03*
Y190000D02*
D03*
Y170000D02*
D03*
X160000Y160000D02*
D03*
X155000Y210000D02*
D03*
Y190000D02*
D03*
Y170000D02*
D03*
X150000Y160000D02*
D03*
X155000Y150000D02*
D03*
X150000Y140000D02*
D03*
X145000Y210000D02*
D03*
Y190000D02*
D03*
Y170000D02*
D03*
X140000Y160000D02*
D03*
X145000Y150000D02*
D03*
X140000Y140000D02*
D03*
X135000Y210000D02*
D03*
Y190000D02*
D03*
Y170000D02*
D03*
X130000Y160000D02*
D03*
X135000Y150000D02*
D03*
X130000Y140000D02*
D03*
X125000Y210000D02*
D03*
Y190000D02*
D03*
Y170000D02*
D03*
X120000Y160000D02*
D03*
X125000Y150000D02*
D03*
X120000Y140000D02*
D03*
X115000Y210000D02*
D03*
Y190000D02*
D03*
Y170000D02*
D03*
X110000Y160000D02*
D03*
X115000Y150000D02*
D03*
X110000Y140000D02*
D03*
X100000Y220000D02*
D03*
X105000Y210000D02*
D03*
X100000Y200000D02*
D03*
X105000Y190000D02*
D03*
X100000Y180000D02*
D03*
X105000Y170000D02*
D03*
X100000Y160000D02*
D03*
X105000Y150000D02*
D03*
X100000Y140000D02*
D03*
X95000Y210000D02*
D03*
Y190000D02*
D03*
Y170000D02*
D03*
X90000Y160000D02*
D03*
X95000Y150000D02*
D03*
X90000Y140000D02*
D03*
X85000Y210000D02*
D03*
Y190000D02*
D03*
Y170000D02*
D03*
X80000Y160000D02*
D03*
X85000Y150000D02*
D03*
X80000Y140000D02*
D03*
X75000Y210000D02*
D03*
Y190000D02*
D03*
Y170000D02*
D03*
X70000Y160000D02*
D03*
X75000Y150000D02*
D03*
X70000Y140000D02*
D03*
X65000Y210000D02*
D03*
Y190000D02*
D03*
Y170000D02*
D03*
X60000Y160000D02*
D03*
X55000Y210000D02*
D03*
Y190000D02*
D03*
Y170000D02*
D03*
X50000Y160000D02*
D03*
X45000Y210000D02*
D03*
Y190000D02*
D03*
Y170000D02*
D03*
X40000Y160000D02*
D03*
X30000Y220000D02*
D03*
X35000Y210000D02*
D03*
X30000Y200000D02*
D03*
X35000Y190000D02*
D03*
X30000Y180000D02*
D03*
X35000Y170000D02*
D03*
X30000Y160000D02*
D03*
Y140000D02*
D03*
X20000Y220000D02*
D03*
X25000Y210000D02*
D03*
X20000Y200000D02*
D03*
X25000Y190000D02*
D03*
X20000Y180000D02*
D03*
X25000Y170000D02*
D03*
X20000Y160000D02*
D03*
X25000Y150000D02*
D03*
X20000Y140000D02*
D03*
X15000Y210000D02*
D03*
Y190000D02*
D03*
Y170000D02*
D03*
Y150000D02*
D03*
X40000Y60000D02*
D03*
Y0D02*
D03*
X30000Y100000D02*
D03*
Y80000D02*
D03*
X35000Y70000D02*
D03*
X30000Y60000D02*
D03*
Y40000D02*
D03*
Y20000D02*
D03*
Y0D02*
D03*
X20000Y100000D02*
D03*
X25000Y90000D02*
D03*
X20000Y80000D02*
D03*
X25000Y70000D02*
D03*
X20000Y60000D02*
D03*
X25000Y50000D02*
D03*
X20000Y40000D02*
D03*
X25000Y30000D02*
D03*
X20000Y20000D02*
D03*
X25000Y10000D02*
D03*
X20000Y0D02*
D03*
X15000Y90000D02*
D03*
Y70000D02*
D03*
Y50000D02*
D03*
Y30000D02*
D03*
Y10000D02*
D03*
X340000Y0D02*
D03*
X330000Y140000D02*
D03*
X335000Y130000D02*
D03*
X330000Y120000D02*
D03*
X335000Y110000D02*
D03*
X330000Y100000D02*
D03*
X335000Y90000D02*
D03*
X330000Y80000D02*
D03*
X335000Y70000D02*
D03*
X330000Y60000D02*
D03*
X335000Y50000D02*
D03*
X330000Y40000D02*
D03*
X335000Y30000D02*
D03*
X330000Y20000D02*
D03*
X335000Y10000D02*
D03*
X330000Y0D02*
D03*
X320000Y140000D02*
D03*
X325000Y130000D02*
D03*
X320000Y120000D02*
D03*
X325000Y110000D02*
D03*
X320000Y100000D02*
D03*
X325000Y90000D02*
D03*
X320000Y80000D02*
D03*
X325000Y70000D02*
D03*
X320000Y60000D02*
D03*
X325000Y50000D02*
D03*
X320000Y40000D02*
D03*
X325000Y30000D02*
D03*
X320000Y20000D02*
D03*
X325000Y10000D02*
D03*
X320000Y0D02*
D03*
X310000Y140000D02*
D03*
X315000Y130000D02*
D03*
X310000Y120000D02*
D03*
X315000Y110000D02*
D03*
X310000Y100000D02*
D03*
X315000Y90000D02*
D03*
X310000Y80000D02*
D03*
X315000Y70000D02*
D03*
X310000Y60000D02*
D03*
X315000Y50000D02*
D03*
X310000Y40000D02*
D03*
X315000Y30000D02*
D03*
X310000Y20000D02*
D03*
X315000Y10000D02*
D03*
X310000Y0D02*
D03*
X305000Y130000D02*
D03*
Y110000D02*
D03*
Y90000D02*
D03*
X300000Y80000D02*
D03*
X305000Y70000D02*
D03*
X300000Y60000D02*
D03*
X305000Y50000D02*
D03*
X300000Y40000D02*
D03*
X305000Y30000D02*
D03*
X300000Y20000D02*
D03*
X305000Y10000D02*
D03*
X300000Y0D02*
D03*
X290000Y80000D02*
D03*
X295000Y70000D02*
D03*
X250000Y60000D02*
D03*
Y20000D02*
D03*
Y0D02*
D03*
X240000Y60000D02*
D03*
X245000Y30000D02*
D03*
Y10000D02*
D03*
X240000Y0D02*
D03*
X230000Y60000D02*
D03*
Y0D02*
D03*
X220000D02*
D03*
X210000D02*
D03*
X200000D02*
D03*
X190000Y60000D02*
D03*
X195000Y50000D02*
D03*
X190000Y0D02*
D03*
X180000D02*
D03*
X170000D02*
D03*
X160000D02*
D03*
X150000D02*
D03*
X140000Y60000D02*
D03*
X145000Y50000D02*
D03*
X140000Y0D02*
D03*
X130000Y60000D02*
D03*
X135000Y50000D02*
D03*
X130000Y0D02*
D03*
X120000D02*
D03*
X110000D02*
D03*
X80000Y20000D02*
D03*
Y0D02*
D03*
X70000D02*
D03*
X170000Y137500D02*
D03*
X85000Y85000D02*
D03*
X170000Y40000D02*
D03*
X142500Y95000D02*
D03*
X135000Y90000D02*
D03*
X92500Y65000D02*
D03*
X107880Y112500D02*
D03*
X95000Y6540D02*
D03*
X97500Y40000D02*
D03*
X110000D02*
D03*
X135000Y80000D02*
D03*
X127500Y85000D02*
D03*
X142500D02*
D03*
Y75000D02*
D03*
X127500Y95000D02*
D03*
Y75000D02*
D03*
M02*
