G04*
G04 #@! TF.GenerationSoftware,Altium Limited,Altium Designer,24.5.2 (23)*
G04*
G04 Layer_Color=255*
%FSLAX44Y44*%
%MOMM*%
G71*
G04*
G04 #@! TF.SameCoordinates,245D8356-CA84-4E05-9727-EF31AAE23950*
G04*
G04*
G04 #@! TF.FilePolarity,Positive*
G04*
G01*
G75*
%ADD13R,2.3000X2.5000*%
%ADD14R,1.5250X0.6500*%
%ADD15R,2.4000X3.1000*%
%ADD16R,1.0700X1.7800*%
%ADD17R,1.0200X0.9400*%
%ADD18R,1.0000X0.9000*%
%ADD19R,1.5500X5.6000*%
%ADD20R,0.9000X1.0000*%
%ADD21R,2.3500X5.6500*%
%ADD22R,2.1500X2.2000*%
%AMCUSTOMSHAPE32*
4,1,8,2.2500,0.5000,2.5000,0.2500,2.5000,-0.2500,2.2500,-0.5000,-2.2500,-0.5000,-2.5000,-0.2500,-2.5000,0.2500,-2.2500,0.5000,2.2500,0.5000,0.0*%
%ADD32CUSTOMSHAPE32*%

%AMCUSTOMSHAPE33*
4,1,8,0.5000,-2.2500,0.2500,-2.5000,-0.2500,-2.5000,-0.5000,-2.2500,-0.5000,2.2500,-0.2500,2.5000,0.2500,2.5000,0.5000,2.2500,0.5000,-2.2500,0.0*%
%ADD33CUSTOMSHAPE33*%

%AMCUSTOMSHAPE36*
4,1,4,0.0000,-0.7620,-1.0000,-0.7620,-1.0000,0.7620,0.0000,0.7620,0.0000,-0.7620,0.0*%
%ADD36CUSTOMSHAPE36*%

%AMCUSTOMSHAPE37*
4,1,4,0.7620,0.0000,0.7620,-1.0000,-0.7620,-1.0000,-0.7620,0.0000,0.7620,0.0000,0.0*%
%ADD37CUSTOMSHAPE37*%

%AMCUSTOMSHAPE38*
4,1,4,0.0000,0.7620,1.0000,0.7620,1.0000,-0.7620,0.0000,-0.7620,0.0000,0.7620,0.0*%
%ADD38CUSTOMSHAPE38*%

%AMCUSTOMSHAPE39*
4,1,4,-0.7620,0.0000,-0.7620,1.0000,0.7620,1.0000,0.7620,0.0000,-0.7620,0.0000,0.0*%
%ADD39CUSTOMSHAPE39*%

D13*
X340000Y107000D02*
D03*
Y150000D02*
D03*
D14*
X237880Y104050D02*
D03*
Y91350D02*
D03*
Y78650D02*
D03*
Y65950D02*
D03*
X292120D02*
D03*
Y78650D02*
D03*
Y91350D02*
D03*
Y104050D02*
D03*
D15*
X265000Y85000D02*
D03*
D16*
X353600Y70000D02*
D03*
X326400D02*
D03*
X166400Y50000D02*
D03*
X193600D02*
D03*
X166400Y27500D02*
D03*
X193600D02*
D03*
D17*
X345000Y14600D02*
D03*
Y30400D02*
D03*
X330000Y30400D02*
D03*
Y14600D02*
D03*
X255000Y30400D02*
D03*
Y14600D02*
D03*
X300000Y30400D02*
D03*
Y14600D02*
D03*
X285000Y14600D02*
D03*
Y30400D02*
D03*
X270000Y30400D02*
D03*
Y14600D02*
D03*
X225000Y30400D02*
D03*
Y14600D02*
D03*
X240000Y14600D02*
D03*
Y30400D02*
D03*
D18*
X315000Y31000D02*
D03*
Y14000D02*
D03*
X360000D02*
D03*
Y31000D02*
D03*
D19*
X420250Y90000D02*
D03*
X379750D02*
D03*
D20*
X399000Y45000D02*
D03*
X416000D02*
D03*
X399000Y30000D02*
D03*
X416000D02*
D03*
X399000Y15000D02*
D03*
X416000D02*
D03*
D21*
X90000Y61500D02*
D03*
Y158500D02*
D03*
D22*
X192500Y90500D02*
D03*
Y134500D02*
D03*
D32*
X340000Y215000D02*
D03*
X265000D02*
D03*
X195000Y160000D02*
D03*
X125000Y200000D02*
D03*
X55000D02*
D03*
X195000D02*
D03*
Y180000D02*
D03*
X265000Y135000D02*
D03*
X340000Y195000D02*
D03*
Y175000D02*
D03*
D33*
X265000D02*
D03*
X245000D02*
D03*
X285000D02*
D03*
X390000Y185000D02*
D03*
X410000D02*
D03*
D36*
X450000Y170000D02*
D03*
Y190000D02*
D03*
Y210000D02*
D03*
Y117500D02*
D03*
Y97500D02*
D03*
Y77500D02*
D03*
Y57500D02*
D03*
X450000Y37500D02*
D03*
X450000Y17500D02*
D03*
D37*
X390000Y240000D02*
D03*
X410000Y240000D02*
D03*
X350000Y240000D02*
D03*
X330000D02*
D03*
X370000D02*
D03*
X430000D02*
D03*
X310000D02*
D03*
X170000D02*
D03*
X150000D02*
D03*
X190000Y240000D02*
D03*
X230000Y240000D02*
D03*
X210000Y240000D02*
D03*
X250000Y240000D02*
D03*
X270000D02*
D03*
X290000D02*
D03*
X130000D02*
D03*
X110000D02*
D03*
X90000D02*
D03*
X70000Y240000D02*
D03*
X50000Y240000D02*
D03*
X30000D02*
D03*
X10000D02*
D03*
D38*
X0Y150000D02*
D03*
Y170000D02*
D03*
Y130000D02*
D03*
Y210000D02*
D03*
Y190000D02*
D03*
Y62500D02*
D03*
Y82500D02*
D03*
Y22500D02*
D03*
Y42500D02*
D03*
D39*
X40000Y0D02*
D03*
X60000D02*
D03*
X80000D02*
D03*
X100000D02*
D03*
X20000D02*
D03*
M02*
