G04*
G04 #@! TF.GenerationSoftware,Altium Limited,Altium Designer,24.5.2 (23)*
G04*
G04 Layer_Color=65535*
%FSLAX44Y44*%
%MOMM*%
G71*
G04*
G04 #@! TF.SameCoordinates,245D8356-CA84-4E05-9727-EF31AAE23950*
G04*
G04*
G04 #@! TF.FilePolarity,Positive*
G04*
G01*
G75*
%ADD10C,0.2000*%
%ADD11C,0.1524*%
%ADD12C,0.2540*%
D10*
X332500Y132000D02*
X340000Y124500D01*
X347500Y132000D01*
X332500D02*
X347500D01*
X235000Y120000D02*
X237500Y117500D01*
X237500D01*
X240000Y120000D01*
X235000D02*
X240000D01*
X227500Y115000D02*
X302500D01*
X227500Y55000D02*
X302500D01*
X340000Y63000D02*
Y77000D01*
X180000Y43000D02*
Y57000D01*
Y20500D02*
Y34500D01*
X367500Y55000D02*
X432500D01*
Y125000D01*
X367500D02*
X432500D01*
X367500Y55000D02*
Y125000D01*
X122500Y175000D02*
X155000Y175000D01*
X25000D02*
X57500Y175000D01*
X122500Y45000D02*
X155000Y77500D01*
X25000Y77500D02*
X57500Y45000D01*
X25000Y77500D02*
Y175000D01*
X155000Y77500D02*
Y175000D01*
X182500Y107500D02*
X202500D01*
X172500Y140080D02*
X175000D01*
X172500Y85080D02*
X175000D01*
X210000Y140080D02*
X212500D01*
X210000Y85080D02*
X212500D01*
X172500D02*
Y140080D01*
X212500Y85080D02*
Y140080D01*
D11*
X317500Y157000D02*
X322500D01*
X362500Y94500D02*
Y157000D01*
X357500D02*
X362500D01*
X317500Y94500D02*
Y157000D01*
Y94500D02*
X322500D01*
X357500D02*
X362500D01*
X33079Y44707D02*
Y54864D01*
X28001Y49786D02*
X38158D01*
D12*
X273809Y38652D02*
X266191D01*
Y42461D01*
X267461Y43730D01*
X270000D01*
X271269Y42461D01*
Y38652D01*
Y41191D02*
X273809Y43730D01*
X267461Y46270D02*
X266191Y47539D01*
Y50078D01*
X267461Y51348D01*
X268730D01*
X270000Y50078D01*
X271269Y51348D01*
X272539D01*
X273809Y50078D01*
Y47539D01*
X272539Y46270D01*
X271269D01*
X270000Y47539D01*
X268730Y46270D01*
X267461D01*
X270000Y47539D02*
Y50078D01*
X348809Y38652D02*
X341191D01*
Y42461D01*
X342461Y43730D01*
X345000D01*
X346269Y42461D01*
Y38652D01*
Y41191D02*
X348809Y43730D01*
X341191Y46270D02*
Y51348D01*
X342461D01*
X347539Y46270D01*
X348809D01*
X288809Y38652D02*
X281191D01*
Y42461D01*
X282461Y43730D01*
X285000D01*
X286270Y42461D01*
Y38652D01*
Y41191D02*
X288809Y43730D01*
X281191Y51348D02*
X282461Y48809D01*
X285000Y46270D01*
X287539D01*
X288809Y47539D01*
Y50078D01*
X287539Y51348D01*
X286270D01*
X285000Y50078D01*
Y46270D01*
X333809Y38652D02*
X326191D01*
Y42461D01*
X327461Y43730D01*
X330000D01*
X331270Y42461D01*
Y38652D01*
Y41191D02*
X333809Y43730D01*
X326191Y51348D02*
Y46270D01*
X330000D01*
X328730Y48809D01*
Y50078D01*
X330000Y51348D01*
X332539D01*
X333809Y50078D01*
Y47539D01*
X332539Y46270D01*
X258809Y38652D02*
X251191D01*
Y42461D01*
X252461Y43730D01*
X255000D01*
X256270Y42461D01*
Y38652D01*
Y41191D02*
X258809Y43730D01*
Y50078D02*
X251191D01*
X255000Y46270D01*
Y51348D01*
X243809Y38652D02*
X236191D01*
Y42461D01*
X237461Y43730D01*
X240000D01*
X241269Y42461D01*
Y38652D01*
Y41191D02*
X243809Y43730D01*
X237461Y46270D02*
X236191Y47539D01*
Y50078D01*
X237461Y51348D01*
X238730D01*
X240000Y50078D01*
Y48809D01*
Y50078D01*
X241269Y51348D01*
X242539D01*
X243809Y50078D01*
Y47539D01*
X242539Y46270D01*
X303809Y38652D02*
X296191D01*
Y42461D01*
X297461Y43730D01*
X300000D01*
X301270Y42461D01*
Y38652D01*
Y41191D02*
X303809Y43730D01*
Y51348D02*
Y46270D01*
X298730Y51348D01*
X297461D01*
X296191Y50078D01*
Y47539D01*
X297461Y46270D01*
X228809Y39922D02*
X221191D01*
Y43730D01*
X222461Y45000D01*
X225000D01*
X226270Y43730D01*
Y39922D01*
Y42461D02*
X228809Y45000D01*
Y47539D02*
Y50078D01*
Y48809D01*
X221191D01*
X222461Y47539D01*
X369922Y136309D02*
Y128691D01*
X375000D01*
X377539D02*
X380078D01*
X378809D01*
Y136309D01*
X377539Y135039D01*
X306191Y94922D02*
X313809D01*
Y98730D01*
X312539Y100000D01*
X307461D01*
X306191Y98730D01*
Y94922D01*
X313809Y102539D02*
Y105078D01*
Y103809D01*
X306191D01*
X307461Y102539D01*
X357461Y43730D02*
X356191Y42461D01*
Y39922D01*
X357461Y38652D01*
X362539D01*
X363809Y39922D01*
Y42461D01*
X362539Y43730D01*
Y46270D02*
X363809Y47539D01*
Y50078D01*
X362539Y51348D01*
X357461D01*
X356191Y50078D01*
Y47539D01*
X357461Y46270D01*
X358730D01*
X360000Y47539D01*
Y51348D01*
X312461Y43730D02*
X311191Y42461D01*
Y39922D01*
X312461Y38652D01*
X317539D01*
X318809Y39922D01*
Y42461D01*
X317539Y43730D01*
X312461Y46270D02*
X311191Y47539D01*
Y50078D01*
X312461Y51348D01*
X313730D01*
X315000Y50078D01*
X316270Y51348D01*
X317539D01*
X318809Y50078D01*
Y47539D01*
X317539Y46270D01*
X316270D01*
X315000Y47539D01*
X313730Y46270D01*
X312461D01*
X315000Y47539D02*
Y50078D01*
X383730Y47539D02*
X382461Y48809D01*
X379922D01*
X378652Y47539D01*
Y42461D01*
X379922Y41191D01*
X382461D01*
X383730Y42461D01*
X386270Y48809D02*
X391348D01*
Y47539D01*
X386270Y42461D01*
Y41191D01*
X383730Y32539D02*
X382461Y33809D01*
X379922D01*
X378652Y32539D01*
Y27461D01*
X379922Y26191D01*
X382461D01*
X383730Y27461D01*
X391348Y33809D02*
X388809Y32539D01*
X386270Y30000D01*
Y27461D01*
X387539Y26191D01*
X390078D01*
X391348Y27461D01*
Y28730D01*
X390078Y30000D01*
X386270D01*
X383730Y17539D02*
X382461Y18809D01*
X379922D01*
X378652Y17539D01*
Y12461D01*
X379922Y11191D01*
X382461D01*
X383730Y12461D01*
X391348Y18809D02*
X386270D01*
Y15000D01*
X388809Y16270D01*
X390078D01*
X391348Y15000D01*
Y12461D01*
X390078Y11191D01*
X387539D01*
X386270Y12461D01*
X312500Y72539D02*
X311230Y73809D01*
X308691D01*
X307422Y72539D01*
Y67461D01*
X308691Y66191D01*
X311230D01*
X312500Y67461D01*
X315039Y66191D02*
X317578D01*
X316309D01*
Y73809D01*
X315039Y72539D01*
X289922Y126309D02*
Y119961D01*
X291191Y118691D01*
X293730D01*
X295000Y119961D01*
Y126309D01*
X297539Y118691D02*
X300078D01*
X298809D01*
Y126309D01*
X297539Y125039D01*
X179804Y73809D02*
X184883D01*
X182343D01*
Y66191D01*
X187422Y73809D02*
Y68730D01*
X189961Y66191D01*
X192500Y68730D01*
Y73809D01*
X200117Y72539D02*
X198848Y73809D01*
X196309D01*
X195039Y72539D01*
Y71270D01*
X196309Y70000D01*
X198848D01*
X200117Y68730D01*
Y67461D01*
X198848Y66191D01*
X196309D01*
X195039Y67461D01*
X202657Y66191D02*
X205196D01*
X203926D01*
Y73809D01*
X202657Y72539D01*
X148730Y52539D02*
X147461Y53809D01*
X144922D01*
X143652Y52539D01*
Y47461D01*
X144922Y46191D01*
X147461D01*
X148730Y47461D01*
X155078Y46191D02*
Y53809D01*
X151270Y50000D01*
X156348D01*
X148730Y30039D02*
X147461Y31309D01*
X144922D01*
X143652Y30039D01*
Y24961D01*
X144922Y23691D01*
X147461D01*
X148730Y24961D01*
X151270Y30039D02*
X152539Y31309D01*
X155078D01*
X156348Y30039D01*
Y28770D01*
X155078Y27500D01*
X153809D01*
X155078D01*
X156348Y26230D01*
Y24961D01*
X155078Y23691D01*
X152539D01*
X151270Y24961D01*
X31230Y185039D02*
X29961Y186309D01*
X27422D01*
X26152Y185039D01*
Y179961D01*
X27422Y178691D01*
X29961D01*
X31230Y179961D01*
X38848Y178691D02*
X33770D01*
X38848Y183770D01*
Y185039D01*
X37578Y186309D01*
X35039D01*
X33770Y185039D01*
M02*
