G04*
G04 #@! TF.GenerationSoftware,Altium Limited,Altium Designer,24.5.2 (23)*
G04*
G04 Layer_Physical_Order=2*
G04 Layer_Color=16711680*
%FSLAX44Y44*%
%MOMM*%
G71*
G04*
G04 #@! TF.SameCoordinates,245D8356-CA84-4E05-9727-EF31AAE23950*
G04*
G04*
G04 #@! TF.FilePolarity,Positive*
G04*
G01*
G75*
%ADD34C,0.5000*%
%AMCUSTOMSHAPE36*
4,1,4,0.0000,-0.7620,-1.0000,-0.7620,-1.0000,0.7620,0.0000,0.7620,0.0000,-0.7620,0.0*%
%ADD36CUSTOMSHAPE36*%

%AMCUSTOMSHAPE37*
4,1,4,0.7620,0.0000,0.7620,-1.0000,-0.7620,-1.0000,-0.7620,0.0000,0.7620,0.0000,0.0*%
%ADD37CUSTOMSHAPE37*%

%AMCUSTOMSHAPE38*
4,1,4,0.0000,0.7620,1.0000,0.7620,1.0000,-0.7620,0.0000,-0.7620,0.0000,0.7620,0.0*%
%ADD38CUSTOMSHAPE38*%

%AMCUSTOMSHAPE39*
4,1,4,-0.7620,0.0000,-0.7620,1.0000,0.7620,1.0000,0.7620,0.0000,-0.7620,0.0000,0.0*%
%ADD39CUSTOMSHAPE39*%

%ADD40C,0.6000*%
G36*
X450000Y220000D02*
Y150000D01*
X430000D01*
Y150086D01*
X370000D01*
X367389Y149743D01*
X364957Y148735D01*
X362868Y147132D01*
X361265Y145043D01*
X360257Y142611D01*
X359914Y140000D01*
Y4996D01*
X232792D01*
X231525Y6540D01*
Y22500D01*
X231029Y24997D01*
X229614Y27114D01*
X229614Y27114D01*
X225432Y31296D01*
X226683Y33637D01*
X227500Y33475D01*
X229997Y33971D01*
X232114Y35386D01*
X233529Y37503D01*
X234025Y40000D01*
Y52297D01*
X239614Y57886D01*
X239614Y57886D01*
X241029Y60003D01*
X241525Y62500D01*
Y81350D01*
X241525Y81350D01*
X241029Y83847D01*
X239614Y85964D01*
X239614Y85964D01*
X229614Y95964D01*
X227497Y97379D01*
X225000Y97875D01*
X222503Y97379D01*
X220386Y95964D01*
X218971Y93847D01*
X218475Y91350D01*
X218971Y88853D01*
X220386Y86736D01*
X228475Y78647D01*
Y71760D01*
X225935Y70402D01*
X224997Y71029D01*
X222500Y71525D01*
X220003Y71029D01*
X217886Y69614D01*
X212886Y64614D01*
X211471Y62497D01*
X210975Y60000D01*
X210975Y60000D01*
Y30000D01*
X210975Y30000D01*
X211471Y27503D01*
X212886Y25386D01*
X218475Y19797D01*
Y6540D01*
X217208Y4996D01*
X110210D01*
Y10000D01*
X110086Y10621D01*
Y100000D01*
X109743Y102611D01*
X108735Y105043D01*
X107132Y107132D01*
X105043Y108735D01*
X102611Y109743D01*
X100000Y110086D01*
X5000D01*
X4996Y110090D01*
Y119790D01*
X10000D01*
X10991Y119987D01*
X11831Y120549D01*
X12393Y121389D01*
X12590Y122380D01*
Y122580D01*
X0D01*
Y220000D01*
Y240000D01*
X450000D01*
Y220000D01*
D02*
G37*
G36*
X100000Y7500D02*
X5000D01*
Y100000D01*
X100000D01*
Y7500D01*
D02*
G37*
G36*
X450000Y0D02*
X370000D01*
Y140000D01*
X450000D01*
Y0D01*
D02*
G37*
%LPC*%
G36*
X300000Y119025D02*
X300000Y119025D01*
X237880D01*
X235383Y118529D01*
X233266Y117114D01*
X231851Y114997D01*
X231355Y112500D01*
X231851Y110003D01*
X233266Y107886D01*
X235383Y106471D01*
X237880Y105975D01*
X297297D01*
X310975Y92297D01*
Y70000D01*
X311471Y67503D01*
X312886Y65386D01*
X315003Y63971D01*
X317500Y63475D01*
X319997Y63971D01*
X322114Y65386D01*
X323529Y67503D01*
X324025Y70000D01*
Y95000D01*
X323529Y97497D01*
X322114Y99614D01*
X322114Y99614D01*
X304614Y117114D01*
X302497Y118529D01*
X300000Y119025D01*
D02*
G37*
G36*
X301102Y45540D02*
X298898D01*
X296862Y44697D01*
X295303Y43138D01*
X294460Y41102D01*
Y38898D01*
X295303Y36862D01*
X296862Y35303D01*
X298898Y34460D01*
X301102D01*
X303138Y35303D01*
X304697Y36862D01*
X305540Y38898D01*
Y41102D01*
X304697Y43138D01*
X303138Y44697D01*
X301102Y45540D01*
D02*
G37*
%LPD*%
D34*
X300000Y112500D02*
X317500Y95000D01*
X237880Y112500D02*
X300000D01*
X317500Y70000D02*
Y95000D01*
X217500Y30000D02*
Y60000D01*
X222500Y65000D01*
X217500Y30000D02*
X225000Y22500D01*
X227500Y40000D02*
Y55000D01*
X235000Y62500D01*
Y81350D01*
X225000Y91350D02*
X235000Y81350D01*
X225000Y6540D02*
Y22500D01*
D36*
X450000Y170000D02*
D03*
Y190000D02*
D03*
Y210000D02*
D03*
Y117500D02*
D03*
Y97500D02*
D03*
Y77500D02*
D03*
Y57500D02*
D03*
X450000Y37500D02*
D03*
X450000Y17500D02*
D03*
D37*
X390000Y240000D02*
D03*
X410000Y240000D02*
D03*
X350000Y240000D02*
D03*
X330000D02*
D03*
X370000D02*
D03*
X430000D02*
D03*
X310000D02*
D03*
X170000D02*
D03*
X150000D02*
D03*
X190000Y240000D02*
D03*
X230000Y240000D02*
D03*
X210000Y240000D02*
D03*
X250000Y240000D02*
D03*
X270000D02*
D03*
X290000D02*
D03*
X130000D02*
D03*
X110000D02*
D03*
X90000D02*
D03*
X70000Y240000D02*
D03*
X50000Y240000D02*
D03*
X30000D02*
D03*
X10000D02*
D03*
D38*
X0Y150000D02*
D03*
Y170000D02*
D03*
Y130000D02*
D03*
Y210000D02*
D03*
Y190000D02*
D03*
Y62500D02*
D03*
Y82500D02*
D03*
Y22500D02*
D03*
Y42500D02*
D03*
D39*
X40000Y0D02*
D03*
X60000D02*
D03*
X80000D02*
D03*
X100000D02*
D03*
X20000D02*
D03*
D40*
X60000Y30000D02*
D03*
X415000Y130000D02*
D03*
X425000D02*
D03*
X435000D02*
D03*
Y117500D02*
D03*
Y87500D02*
D03*
Y107500D02*
D03*
Y97500D02*
D03*
Y77500D02*
D03*
Y67500D02*
D03*
Y57500D02*
D03*
X425000D02*
D03*
Y47500D02*
D03*
X435000D02*
D03*
X425000Y17500D02*
D03*
X435000Y37500D02*
D03*
X425000D02*
D03*
X435000Y27500D02*
D03*
X425000D02*
D03*
X435000Y17500D02*
D03*
X425000Y6540D02*
D03*
X435000D02*
D03*
X315000D02*
D03*
X360000D02*
D03*
X300000Y40000D02*
D03*
X272500Y95000D02*
D03*
X265000Y90000D02*
D03*
X222500Y65000D02*
D03*
X237880Y112500D02*
D03*
X70000Y30000D02*
D03*
Y40000D02*
D03*
Y50000D02*
D03*
Y60000D02*
D03*
Y70000D02*
D03*
Y80000D02*
D03*
Y90000D02*
D03*
X60000Y40000D02*
D03*
Y50000D02*
D03*
Y60000D02*
D03*
Y70000D02*
D03*
Y80000D02*
D03*
Y90000D02*
D03*
X270000Y6540D02*
D03*
X255000D02*
D03*
X225000D02*
D03*
X227500Y40000D02*
D03*
X240000D02*
D03*
X265000Y80000D02*
D03*
X257500Y85000D02*
D03*
X225000Y91350D02*
D03*
X272500Y85000D02*
D03*
X317500Y70000D02*
D03*
X272500Y75000D02*
D03*
X257500Y95000D02*
D03*
Y75000D02*
D03*
X40000Y90000D02*
D03*
X50000D02*
D03*
X30000D02*
D03*
X20000D02*
D03*
X50000Y80000D02*
D03*
X40000D02*
D03*
X30000D02*
D03*
X20000D02*
D03*
X50000Y70000D02*
D03*
X40000D02*
D03*
X29339Y70210D02*
D03*
X20000Y70000D02*
D03*
X50000Y60000D02*
D03*
X40000D02*
D03*
X30000D02*
D03*
X20000D02*
D03*
X50000Y50000D02*
D03*
X40000D02*
D03*
X30000D02*
D03*
X20000D02*
D03*
X50000Y40000D02*
D03*
X40000D02*
D03*
X30000D02*
D03*
X20000D02*
D03*
X50000Y30000D02*
D03*
X40000D02*
D03*
X30000D02*
D03*
X20000D02*
D03*
Y20000D02*
D03*
X30000D02*
D03*
X40000D02*
D03*
X50000D02*
D03*
X60000D02*
D03*
X70000D02*
D03*
X207500Y10000D02*
D03*
Y20000D02*
D03*
Y30000D02*
D03*
Y40000D02*
D03*
Y50000D02*
D03*
M02*
