G04*
G04 #@! TF.GenerationSoftware,Altium Limited,Altium Designer,24.5.2 (23)*
G04*
G04 Layer_Physical_Order=2*
G04 Layer_Color=16711680*
%FSLAX44Y44*%
%MOMM*%
G71*
G04*
G04 #@! TF.SameCoordinates,71DE77E4-8B13-49D2-B116-840717ED03C6*
G04*
G04*
G04 #@! TF.FilePolarity,Positive*
G04*
G01*
G75*
%ADD32C,0.5000*%
%AMCUSTOMSHAPE33*
4,1,4,0.0000,0.7620,1.0000,0.7620,1.0000,-0.7620,0.0000,-0.7620,0.0000,0.7620,0.0*%
%ADD33CUSTOMSHAPE33*%

%AMCUSTOMSHAPE34*
4,1,4,0.0000,-0.7620,-1.0000,-0.7620,-1.0000,0.7620,0.0000,0.7620,0.0000,-0.7620,0.0*%
%ADD34CUSTOMSHAPE34*%

%AMCUSTOMSHAPE35*
4,1,4,0.7620,0.0000,0.7620,-1.0000,-0.7620,-1.0000,-0.7620,0.0000,0.7620,0.0000,0.0*%
%ADD35CUSTOMSHAPE35*%

%AMCUSTOMSHAPE36*
4,1,4,-0.7620,0.0000,-0.7620,1.0000,0.7620,1.0000,0.7620,0.0000,-0.7620,0.0000,0.0*%
%ADD36CUSTOMSHAPE36*%

%ADD37C,0.6000*%
G36*
X320000Y220000D02*
Y135000D01*
X300000D01*
Y135086D01*
X280000D01*
X277390Y134743D01*
X274957Y133735D01*
X272868Y132132D01*
X271265Y130043D01*
X270257Y127611D01*
X269914Y125000D01*
Y64025D01*
X194260D01*
X192902Y66565D01*
X193529Y67503D01*
X194025Y70000D01*
Y92500D01*
X194025Y92500D01*
X193529Y94997D01*
X192114Y97114D01*
X192114Y97114D01*
X172114Y117114D01*
X169997Y118529D01*
X167500Y119025D01*
X167500Y119025D01*
X107880D01*
X105383Y118529D01*
X103266Y117114D01*
X101851Y114997D01*
X101355Y112500D01*
X101851Y110003D01*
X103266Y107886D01*
X105383Y106471D01*
X107880Y105975D01*
X164797D01*
X180975Y89797D01*
Y70000D01*
X181471Y67503D01*
X182886Y65386D01*
X183048Y65277D01*
Y62223D01*
X182886Y62114D01*
X182886Y62114D01*
X165386Y44614D01*
X163971Y42497D01*
X163475Y40000D01*
X163971Y37503D01*
X165386Y35386D01*
X167503Y33971D01*
X170000Y33475D01*
X172497Y33971D01*
X174614Y35386D01*
X190203Y50975D01*
X269914D01*
Y4996D01*
X102793D01*
X101525Y6540D01*
Y22500D01*
X101029Y24997D01*
X99614Y27114D01*
X99614Y27114D01*
X95432Y31296D01*
X96683Y33637D01*
X97500Y33475D01*
X99997Y33971D01*
X102114Y35386D01*
X103529Y37503D01*
X104025Y40000D01*
Y52297D01*
X109614Y57886D01*
X109614Y57886D01*
X111029Y60003D01*
X111525Y62500D01*
Y75000D01*
X111525Y75000D01*
X111029Y77497D01*
X109614Y79614D01*
X109614Y79614D01*
X99614Y89614D01*
X97497Y91029D01*
X95000Y91525D01*
X95000Y91525D01*
X85000D01*
X82503Y91029D01*
X80386Y89614D01*
X78971Y87497D01*
X78475Y85000D01*
X78971Y82503D01*
X80386Y80386D01*
X82503Y78971D01*
X85000Y78475D01*
X92297D01*
X96948Y73824D01*
X96807Y72874D01*
X96419Y72479D01*
X93995Y71228D01*
X92500Y71525D01*
X90003Y71029D01*
X87886Y69614D01*
X82886Y64614D01*
X81471Y62497D01*
X80975Y60000D01*
X80975Y60000D01*
Y30000D01*
X80975Y30000D01*
X81471Y27503D01*
X82886Y25386D01*
X88475Y19797D01*
Y6540D01*
X87207Y4996D01*
X60086D01*
Y110000D01*
X59743Y112611D01*
X58735Y115043D01*
X57132Y117132D01*
X55043Y118735D01*
X52611Y119743D01*
X50000Y120086D01*
X20000D01*
Y120000D01*
X0D01*
Y220000D01*
Y240000D01*
X320000D01*
Y220000D01*
D02*
G37*
G36*
Y0D02*
X280000D01*
Y125000D01*
X320000D01*
Y0D01*
D02*
G37*
G36*
X50000D02*
X0D01*
Y110000D01*
X50000D01*
Y0D01*
D02*
G37*
D32*
X105000Y62500D02*
Y75000D01*
X85000Y85000D02*
X95000D01*
X105000Y75000D01*
X97500Y55000D02*
X105000Y62500D01*
X187500Y57500D02*
X295000D01*
X170000Y40000D02*
X187500Y57500D01*
X187500Y70000D02*
Y92500D01*
X167500Y112500D02*
X187500Y92500D01*
X107880Y112500D02*
X167500D01*
X87500Y30000D02*
Y60000D01*
X92500Y65000D01*
X87500Y30000D02*
X95000Y22500D01*
X97500Y40000D02*
Y55000D01*
X95000Y6540D02*
Y22500D01*
D33*
X-360Y62374D02*
D03*
Y102374D02*
D03*
X0Y210000D02*
D03*
X0Y170000D02*
D03*
X0Y190000D02*
D03*
Y150000D02*
D03*
X-360Y82374D02*
D03*
Y22374D02*
D03*
Y42374D02*
D03*
D34*
X320000Y170000D02*
D03*
Y190000D02*
D03*
Y210000D02*
D03*
Y117500D02*
D03*
Y97500D02*
D03*
Y77500D02*
D03*
Y57500D02*
D03*
Y37500D02*
D03*
Y17500D02*
D03*
D35*
X260000Y240000D02*
D03*
X280000Y240000D02*
D03*
X220000Y240000D02*
D03*
X200000D02*
D03*
X240000D02*
D03*
X300000D02*
D03*
X180000D02*
D03*
X40000D02*
D03*
X20000D02*
D03*
X60000Y240000D02*
D03*
X100000Y240000D02*
D03*
X80000Y240000D02*
D03*
X120000Y240000D02*
D03*
X140000D02*
D03*
X160000D02*
D03*
D36*
X20000Y0D02*
D03*
X40000Y0D02*
D03*
D37*
X40000Y70000D02*
D03*
X30000Y90000D02*
D03*
Y70000D02*
D03*
Y50000D02*
D03*
Y30000D02*
D03*
X25000Y100000D02*
D03*
X20000Y90000D02*
D03*
X25000Y80000D02*
D03*
X20000Y70000D02*
D03*
X25000Y60000D02*
D03*
X20000Y50000D02*
D03*
X25000Y40000D02*
D03*
X20000Y30000D02*
D03*
X25000Y20000D02*
D03*
X15000Y100000D02*
D03*
Y80000D02*
D03*
Y60000D02*
D03*
Y40000D02*
D03*
Y20000D02*
D03*
X310000Y150000D02*
D03*
X305000Y220000D02*
D03*
X300000Y210000D02*
D03*
X305000Y200000D02*
D03*
X300000Y190000D02*
D03*
X305000Y180000D02*
D03*
X300000Y170000D02*
D03*
X305000Y160000D02*
D03*
X300000Y150000D02*
D03*
X295000Y220000D02*
D03*
X290000Y210000D02*
D03*
Y190000D02*
D03*
Y170000D02*
D03*
Y150000D02*
D03*
X285000Y220000D02*
D03*
X280000Y210000D02*
D03*
Y190000D02*
D03*
Y170000D02*
D03*
Y150000D02*
D03*
X275000Y220000D02*
D03*
X270000Y210000D02*
D03*
Y190000D02*
D03*
Y170000D02*
D03*
Y150000D02*
D03*
X265000Y220000D02*
D03*
X260000Y210000D02*
D03*
Y190000D02*
D03*
Y170000D02*
D03*
Y150000D02*
D03*
X255000Y220000D02*
D03*
X250000Y210000D02*
D03*
Y190000D02*
D03*
Y170000D02*
D03*
Y150000D02*
D03*
X245000Y220000D02*
D03*
X240000Y210000D02*
D03*
Y190000D02*
D03*
Y170000D02*
D03*
Y150000D02*
D03*
X235000Y220000D02*
D03*
X230000Y210000D02*
D03*
Y190000D02*
D03*
Y170000D02*
D03*
X235000Y160000D02*
D03*
X230000Y150000D02*
D03*
X225000Y220000D02*
D03*
X220000Y210000D02*
D03*
Y190000D02*
D03*
Y170000D02*
D03*
X215000Y220000D02*
D03*
X210000Y210000D02*
D03*
Y190000D02*
D03*
Y170000D02*
D03*
X205000Y220000D02*
D03*
X200000Y210000D02*
D03*
Y190000D02*
D03*
Y170000D02*
D03*
X195000Y220000D02*
D03*
X190000Y210000D02*
D03*
Y190000D02*
D03*
Y170000D02*
D03*
Y150000D02*
D03*
X185000Y220000D02*
D03*
X180000Y210000D02*
D03*
Y190000D02*
D03*
Y170000D02*
D03*
X185000Y160000D02*
D03*
X180000Y150000D02*
D03*
X175000Y220000D02*
D03*
X170000Y210000D02*
D03*
X175000Y200000D02*
D03*
X170000Y190000D02*
D03*
X175000Y180000D02*
D03*
X170000Y170000D02*
D03*
X175000Y160000D02*
D03*
X170000Y150000D02*
D03*
X165000Y220000D02*
D03*
X160000Y210000D02*
D03*
X165000Y200000D02*
D03*
X160000Y190000D02*
D03*
X165000Y180000D02*
D03*
X160000Y170000D02*
D03*
X165000Y160000D02*
D03*
X160000Y150000D02*
D03*
X155000Y220000D02*
D03*
X150000Y210000D02*
D03*
Y190000D02*
D03*
Y170000D02*
D03*
Y150000D02*
D03*
X145000Y220000D02*
D03*
X140000Y210000D02*
D03*
Y190000D02*
D03*
Y170000D02*
D03*
Y150000D02*
D03*
X135000Y220000D02*
D03*
X130000Y210000D02*
D03*
Y190000D02*
D03*
Y170000D02*
D03*
Y150000D02*
D03*
X125000Y220000D02*
D03*
X120000Y210000D02*
D03*
Y190000D02*
D03*
Y170000D02*
D03*
Y150000D02*
D03*
X115000Y220000D02*
D03*
X110000Y210000D02*
D03*
Y190000D02*
D03*
Y170000D02*
D03*
Y150000D02*
D03*
X105000Y220000D02*
D03*
X100000Y210000D02*
D03*
X105000Y200000D02*
D03*
X100000Y190000D02*
D03*
X105000Y180000D02*
D03*
X100000Y170000D02*
D03*
X105000Y160000D02*
D03*
X100000Y150000D02*
D03*
X95000Y220000D02*
D03*
X90000Y210000D02*
D03*
Y190000D02*
D03*
Y170000D02*
D03*
Y150000D02*
D03*
X85000Y220000D02*
D03*
X80000Y210000D02*
D03*
Y190000D02*
D03*
Y170000D02*
D03*
Y150000D02*
D03*
X75000Y220000D02*
D03*
X70000Y210000D02*
D03*
Y190000D02*
D03*
Y170000D02*
D03*
Y150000D02*
D03*
X65000Y220000D02*
D03*
X60000Y210000D02*
D03*
Y190000D02*
D03*
Y170000D02*
D03*
Y150000D02*
D03*
X55000Y220000D02*
D03*
X50000Y210000D02*
D03*
Y190000D02*
D03*
Y170000D02*
D03*
Y150000D02*
D03*
X45000Y220000D02*
D03*
X40000Y210000D02*
D03*
Y190000D02*
D03*
Y170000D02*
D03*
Y150000D02*
D03*
X35000Y220000D02*
D03*
X30000Y210000D02*
D03*
X35000Y200000D02*
D03*
X30000Y190000D02*
D03*
X35000Y180000D02*
D03*
X30000Y170000D02*
D03*
X35000Y160000D02*
D03*
X30000Y150000D02*
D03*
X25000Y220000D02*
D03*
X20000Y210000D02*
D03*
X25000Y200000D02*
D03*
X20000Y190000D02*
D03*
X25000Y180000D02*
D03*
X20000Y170000D02*
D03*
X25000Y160000D02*
D03*
X20000Y150000D02*
D03*
X15000Y220000D02*
D03*
Y200000D02*
D03*
Y180000D02*
D03*
Y160000D02*
D03*
X85000Y85000D02*
D03*
X303001Y118001D02*
D03*
Y104001D02*
D03*
Y90001D02*
D03*
Y76001D02*
D03*
Y62000D02*
D03*
Y48000D02*
D03*
Y34000D02*
D03*
Y20001D02*
D03*
X299501Y55001D02*
D03*
X296001Y48000D02*
D03*
X299501Y41000D02*
D03*
X296001Y34000D02*
D03*
X299501Y27001D02*
D03*
X296001Y20001D02*
D03*
X299501Y13001D02*
D03*
X292501Y55001D02*
D03*
X257500Y45000D02*
D03*
Y30000D02*
D03*
Y15000D02*
D03*
X185000Y6540D02*
D03*
X230000D02*
D03*
X170000Y40000D02*
D03*
X142500Y95000D02*
D03*
X135000Y90000D02*
D03*
X92500Y65000D02*
D03*
X107880Y112500D02*
D03*
X140000Y6540D02*
D03*
X125000D02*
D03*
X95000D02*
D03*
X97500Y40000D02*
D03*
X110000D02*
D03*
X135000Y80000D02*
D03*
X127500Y85000D02*
D03*
X142500D02*
D03*
X187500Y70000D02*
D03*
X142500Y75000D02*
D03*
X127500Y95000D02*
D03*
Y75000D02*
D03*
X77500Y10000D02*
D03*
Y20000D02*
D03*
Y30000D02*
D03*
Y40000D02*
D03*
Y50000D02*
D03*
M02*
